<?xml version="1.0" encoding="UTF-8" standalone="no"?>
<!DOCTYPE svg PUBLIC "-//W3C//DTD SVG 1.1//EN"
 "http://www.w3.org/Graphics/SVG/1.1/DTD/svg11.dtd">
<!-- Generated by graphviz version 2.47.3 (20210619.2315)
 -->
<!-- Title: snakemake_dag Pages: 1 -->
<svg width="1055pt" height="620pt"
 viewBox="0.00 0.00 1054.81 620.00" xmlns="http://www.w3.org/2000/svg" xmlns:xlink="http://www.w3.org/1999/xlink">
<g id="graph0" class="graph" transform="scale(1 1) rotate(0) translate(4 616)">
<title>snakemake_dag</title>
<polygon fill="white" stroke="transparent" points="-4,4 -4,-616 1050.81,-616 1050.81,4 -4,4"/>
<!-- 0 -->
<g id="node1" class="node">
<title>0</title>
<path fill="none" stroke="#56d8d8" stroke-width="2" d="M613.81,-36C613.81,-36 583.81,-36 583.81,-36 577.81,-36 571.81,-30 571.81,-24 571.81,-24 571.81,-12 571.81,-12 571.81,-6 577.81,0 583.81,0 583.81,0 613.81,0 613.81,0 619.81,0 625.81,-6 625.81,-12 625.81,-12 625.81,-24 625.81,-24 625.81,-30 619.81,-36 613.81,-36"/>
<text text-anchor="middle" x="598.81" y="-15.5" font-family="sans" font-size="10.00">all</text>
</g>
<!-- 1 -->
<g id="node2" class="node">
<title>1</title>
<path fill="none" stroke="#d6d856" stroke-width="2" d="M592.31,-180C592.31,-180 537.31,-180 537.31,-180 531.31,-180 525.31,-174 525.31,-168 525.31,-168 525.31,-156 525.31,-156 525.31,-150 531.31,-144 537.31,-144 537.31,-144 592.31,-144 592.31,-144 598.31,-144 604.31,-150 604.31,-156 604.31,-156 604.31,-168 604.31,-168 604.31,-174 598.31,-180 592.31,-180"/>
<text text-anchor="middle" x="564.81" y="-159.5" font-family="sans" font-size="10.00">final_catalog</text>
</g>
<!-- 1&#45;&gt;0 -->
<g id="edge1" class="edge">
<title>1&#45;&gt;0</title>
<path fill="none" stroke="grey" stroke-width="2" d="M568.91,-143.87C574.73,-119.56 585.45,-74.82 592.34,-46.01"/>
<polygon fill="grey" stroke="grey" stroke-width="2" points="595.77,-46.73 594.7,-36.19 588.96,-45.1 595.77,-46.73"/>
</g>
<!-- 32 -->
<g id="node33" class="node">
<title>32</title>
<path fill="none" stroke="#59d856" stroke-width="2" d="M647.81,-108C647.81,-108 611.81,-108 611.81,-108 605.81,-108 599.81,-102 599.81,-96 599.81,-96 599.81,-84 599.81,-84 599.81,-78 605.81,-72 611.81,-72 611.81,-72 647.81,-72 647.81,-72 653.81,-72 659.81,-78 659.81,-84 659.81,-84 659.81,-96 659.81,-96 659.81,-102 653.81,-108 647.81,-108"/>
<text text-anchor="middle" x="629.81" y="-87.5" font-family="sans" font-size="10.00">visualize</text>
</g>
<!-- 1&#45;&gt;32 -->
<g id="edge50" class="edge">
<title>1&#45;&gt;32</title>
<path fill="none" stroke="grey" stroke-width="2" d="M580.88,-143.7C588.75,-135.22 598.37,-124.86 606.99,-115.58"/>
<polygon fill="grey" stroke="grey" stroke-width="2" points="609.69,-117.81 613.93,-108.1 604.56,-113.05 609.69,-117.81"/>
</g>
<!-- 2 -->
<g id="node3" class="node">
<title>2</title>
<path fill="none" stroke="#5682d8" stroke-width="2" d="M592.31,-252C592.31,-252 497.31,-252 497.31,-252 491.31,-252 485.31,-246 485.31,-240 485.31,-240 485.31,-228 485.31,-228 485.31,-222 491.31,-216 497.31,-216 497.31,-216 592.31,-216 592.31,-216 598.31,-216 604.31,-222 604.31,-228 604.31,-228 604.31,-240 604.31,-240 604.31,-246 598.31,-252 592.31,-252"/>
<text text-anchor="middle" x="544.81" y="-231.5" font-family="sans" font-size="10.00">eliminate_duplicates</text>
</g>
<!-- 2&#45;&gt;1 -->
<g id="edge3" class="edge">
<title>2&#45;&gt;1</title>
<path fill="none" stroke="grey" stroke-width="2" d="M549.76,-215.7C551.98,-207.9 554.67,-198.51 557.15,-189.83"/>
<polygon fill="grey" stroke="grey" stroke-width="2" points="560.54,-190.68 559.92,-180.1 553.81,-188.76 560.54,-190.68"/>
</g>
<!-- 3 -->
<g id="node4" class="node">
<title>3</title>
<path fill="none" stroke="#56d8a9" stroke-width="2" d="M594.31,-324C594.31,-324 495.31,-324 495.31,-324 489.31,-324 483.31,-318 483.31,-312 483.31,-312 483.31,-300 483.31,-300 483.31,-294 489.31,-288 495.31,-288 495.31,-288 594.31,-288 594.31,-288 600.31,-288 606.31,-294 606.31,-300 606.31,-300 606.31,-312 606.31,-312 606.31,-318 600.31,-324 594.31,-324"/>
<text text-anchor="middle" x="544.81" y="-303.5" font-family="sans" font-size="10.00">concatenate_catalogs</text>
</g>
<!-- 3&#45;&gt;2 -->
<g id="edge4" class="edge">
<title>3&#45;&gt;2</title>
<path fill="none" stroke="grey" stroke-width="2" d="M544.81,-287.7C544.81,-279.98 544.81,-270.71 544.81,-262.11"/>
<polygon fill="grey" stroke="grey" stroke-width="2" points="548.31,-262.1 544.81,-252.1 541.31,-262.1 548.31,-262.1"/>
</g>
<!-- 3&#45;&gt;32 -->
<g id="edge51" class="edge">
<title>3&#45;&gt;32</title>
<path fill="none" stroke="grey" stroke-width="2" d="M576.72,-287.94C590.14,-279.06 604.53,-266.92 612.81,-252 636.21,-209.87 635.89,-151.96 633.13,-118.3"/>
<polygon fill="grey" stroke="grey" stroke-width="2" points="636.61,-117.9 632.17,-108.28 629.64,-118.56 636.61,-117.9"/>
</g>
<!-- 4 -->
<g id="node5" class="node">
<title>4</title>
<path fill="none" stroke="#56a9d8" stroke-width="2" d="M62.31,-396C62.31,-396 25.31,-396 25.31,-396 19.31,-396 13.31,-390 13.31,-384 13.31,-384 13.31,-372 13.31,-372 13.31,-366 19.31,-360 25.31,-360 25.31,-360 62.31,-360 62.31,-360 68.31,-360 74.31,-366 74.31,-372 74.31,-372 74.31,-384 74.31,-384 74.31,-390 68.31,-396 62.31,-396"/>
<text text-anchor="middle" x="43.81" y="-375.5" font-family="sans" font-size="10.00">sofia2cat</text>
</g>
<!-- 4&#45;&gt;3 -->
<g id="edge5" class="edge">
<title>4&#45;&gt;3</title>
<path fill="none" stroke="grey" stroke-width="2" d="M74.44,-369.66C88.77,-366.39 106.1,-362.69 121.81,-360 244.66,-338.96 388.93,-322.67 473.28,-313.98"/>
<polygon fill="grey" stroke="grey" stroke-width="2" points="473.67,-317.46 483.26,-312.96 472.96,-310.49 473.67,-317.46"/>
</g>
<!-- 5 -->
<g id="node6" class="node">
<title>5</title>
<path fill="none" stroke="#d8ac56" stroke-width="2" d="M73.31,-540C73.31,-540 14.31,-540 14.31,-540 8.31,-540 2.31,-534 2.31,-528 2.31,-528 2.31,-516 2.31,-516 2.31,-510 8.31,-504 14.31,-504 14.31,-504 73.31,-504 73.31,-504 79.31,-504 85.31,-510 85.31,-516 85.31,-516 85.31,-528 85.31,-528 85.31,-534 79.31,-540 73.31,-540"/>
<text text-anchor="middle" x="43.81" y="-525" font-family="sans" font-size="10.00">split_subcube</text>
<text text-anchor="middle" x="43.81" y="-514" font-family="sans" font-size="10.00">idx: 0</text>
</g>
<!-- 5&#45;&gt;4 -->
<g id="edge14" class="edge">
<title>5&#45;&gt;4</title>
<path fill="none" stroke="grey" stroke-width="2" d="M26.08,-503.6C17.57,-494 8.28,-481.34 3.81,-468 -1.27,-452.83 -1.27,-447.17 3.81,-432 7.16,-422 13.23,-412.38 19.64,-404.14"/>
<polygon fill="grey" stroke="grey" stroke-width="2" points="22.37,-406.33 26.08,-396.4 16.99,-401.85 22.37,-406.33"/>
</g>
<!-- 7 -->
<g id="node8" class="node">
<title>7</title>
<path fill="none" stroke="#80d856" stroke-width="2" d="M62.31,-468C62.31,-468 25.31,-468 25.31,-468 19.31,-468 13.31,-462 13.31,-456 13.31,-456 13.31,-444 13.31,-444 13.31,-438 19.31,-432 25.31,-432 25.31,-432 62.31,-432 62.31,-432 68.31,-432 74.31,-438 74.31,-444 74.31,-444 74.31,-456 74.31,-456 74.31,-462 68.31,-468 62.31,-468"/>
<text text-anchor="middle" x="43.81" y="-447.5" font-family="sans" font-size="10.00">run_sofia</text>
</g>
<!-- 5&#45;&gt;7 -->
<g id="edge17" class="edge">
<title>5&#45;&gt;7</title>
<path fill="none" stroke="grey" stroke-width="2" d="M43.81,-503.7C43.81,-495.98 43.81,-486.71 43.81,-478.11"/>
<polygon fill="grey" stroke="grey" stroke-width="2" points="47.31,-478.1 43.81,-468.1 40.31,-478.1 47.31,-478.1"/>
</g>
<!-- 6 -->
<g id="node7" class="node">
<title>6</title>
<path fill="none" stroke="#56d882" stroke-width="2" d="M575.81,-612C575.81,-612 513.81,-612 513.81,-612 507.81,-612 501.81,-606 501.81,-600 501.81,-600 501.81,-588 501.81,-588 501.81,-582 507.81,-576 513.81,-576 513.81,-576 575.81,-576 575.81,-576 581.81,-576 587.81,-582 587.81,-588 587.81,-588 587.81,-600 587.81,-600 587.81,-606 581.81,-612 575.81,-612"/>
<text text-anchor="middle" x="544.81" y="-591.5" font-family="sans" font-size="10.00">define_chunks</text>
</g>
<!-- 6&#45;&gt;5 -->
<g id="edge16" class="edge">
<title>6&#45;&gt;5</title>
<path fill="none" stroke="grey" stroke-width="2" d="M501.72,-589.56C423.42,-582.92 252.76,-566.56 110.81,-540 105.78,-539.06 100.57,-537.96 95.37,-536.78"/>
<polygon fill="grey" stroke="grey" stroke-width="2" points="95.98,-533.33 85.45,-534.43 94.37,-540.14 95.98,-533.33"/>
</g>
<!-- 9 -->
<g id="node10" class="node">
<title>9</title>
<path fill="none" stroke="#d8ac56" stroke-width="2" d="M191.31,-540C191.31,-540 132.31,-540 132.31,-540 126.31,-540 120.31,-534 120.31,-528 120.31,-528 120.31,-516 120.31,-516 120.31,-510 126.31,-504 132.31,-504 132.31,-504 191.31,-504 191.31,-504 197.31,-504 203.31,-510 203.31,-516 203.31,-516 203.31,-528 203.31,-528 203.31,-534 197.31,-540 191.31,-540"/>
<text text-anchor="middle" x="161.81" y="-525" font-family="sans" font-size="10.00">split_subcube</text>
<text text-anchor="middle" x="161.81" y="-514" font-family="sans" font-size="10.00">idx: 1</text>
</g>
<!-- 6&#45;&gt;9 -->
<g id="edge20" class="edge">
<title>6&#45;&gt;9</title>
<path fill="none" stroke="grey" stroke-width="2" d="M501.67,-586.91C440.63,-578.04 325.71,-560.38 228.81,-540 223.8,-538.95 218.6,-537.77 213.41,-536.55"/>
<polygon fill="grey" stroke="grey" stroke-width="2" points="214.05,-533.1 203.5,-534.14 212.4,-539.9 214.05,-533.1"/>
</g>
<!-- 12 -->
<g id="node13" class="node">
<title>12</title>
<path fill="none" stroke="#d8ac56" stroke-width="2" d="M309.31,-540C309.31,-540 250.31,-540 250.31,-540 244.31,-540 238.31,-534 238.31,-528 238.31,-528 238.31,-516 238.31,-516 238.31,-510 244.31,-504 250.31,-504 250.31,-504 309.31,-504 309.31,-504 315.31,-504 321.31,-510 321.31,-516 321.31,-516 321.31,-528 321.31,-528 321.31,-534 315.31,-540 309.31,-540"/>
<text text-anchor="middle" x="279.81" y="-525" font-family="sans" font-size="10.00">split_subcube</text>
<text text-anchor="middle" x="279.81" y="-514" font-family="sans" font-size="10.00">idx: 2</text>
</g>
<!-- 6&#45;&gt;12 -->
<g id="edge24" class="edge">
<title>6&#45;&gt;12</title>
<path fill="none" stroke="grey" stroke-width="2" d="M501.44,-581.71C460.52,-571.04 397.47,-554.54 342.81,-540 339.04,-539 335.14,-537.95 331.22,-536.9"/>
<polygon fill="grey" stroke="grey" stroke-width="2" points="332.05,-533.5 321.48,-534.29 330.23,-540.26 332.05,-533.5"/>
</g>
<!-- 15 -->
<g id="node16" class="node">
<title>15</title>
<path fill="none" stroke="#d8ac56" stroke-width="2" d="M423.31,-540C423.31,-540 364.31,-540 364.31,-540 358.31,-540 352.31,-534 352.31,-528 352.31,-528 352.31,-516 352.31,-516 352.31,-510 358.31,-504 364.31,-504 364.31,-504 423.31,-504 423.31,-504 429.31,-504 435.31,-510 435.31,-516 435.31,-516 435.31,-528 435.31,-528 435.31,-534 429.31,-540 423.31,-540"/>
<text text-anchor="middle" x="393.81" y="-525" font-family="sans" font-size="10.00">split_subcube</text>
<text text-anchor="middle" x="393.81" y="-514" font-family="sans" font-size="10.00">idx: 3</text>
</g>
<!-- 6&#45;&gt;15 -->
<g id="edge28" class="edge">
<title>6&#45;&gt;15</title>
<path fill="none" stroke="grey" stroke-width="2" d="M507.87,-575.88C487.32,-566.35 461.56,-554.41 439.72,-544.28"/>
<polygon fill="grey" stroke="grey" stroke-width="2" points="441.18,-541.1 430.63,-540.07 438.23,-547.45 441.18,-541.1"/>
</g>
<!-- 18 -->
<g id="node19" class="node">
<title>18</title>
<path fill="none" stroke="#d8ac56" stroke-width="2" d="M524.31,-540C524.31,-540 465.31,-540 465.31,-540 459.31,-540 453.31,-534 453.31,-528 453.31,-528 453.31,-516 453.31,-516 453.31,-510 459.31,-504 465.31,-504 465.31,-504 524.31,-504 524.31,-504 530.31,-504 536.31,-510 536.31,-516 536.31,-516 536.31,-528 536.31,-528 536.31,-534 530.31,-540 524.31,-540"/>
<text text-anchor="middle" x="494.81" y="-525" font-family="sans" font-size="10.00">split_subcube</text>
<text text-anchor="middle" x="494.81" y="-514" font-family="sans" font-size="10.00">idx: 4</text>
</g>
<!-- 6&#45;&gt;18 -->
<g id="edge32" class="edge">
<title>6&#45;&gt;18</title>
<path fill="none" stroke="grey" stroke-width="2" d="M532.45,-575.7C526.58,-567.47 519.44,-557.48 512.97,-548.42"/>
<polygon fill="grey" stroke="grey" stroke-width="2" points="515.69,-546.21 507.03,-540.1 509.99,-550.28 515.69,-546.21"/>
</g>
<!-- 21 -->
<g id="node22" class="node">
<title>21</title>
<path fill="none" stroke="#d8ac56" stroke-width="2" d="M625.31,-540C625.31,-540 566.31,-540 566.31,-540 560.31,-540 554.31,-534 554.31,-528 554.31,-528 554.31,-516 554.31,-516 554.31,-510 560.31,-504 566.31,-504 566.31,-504 625.31,-504 625.31,-504 631.31,-504 637.31,-510 637.31,-516 637.31,-516 637.31,-528 637.31,-528 637.31,-534 631.31,-540 625.31,-540"/>
<text text-anchor="middle" x="595.81" y="-525" font-family="sans" font-size="10.00">split_subcube</text>
<text text-anchor="middle" x="595.81" y="-514" font-family="sans" font-size="10.00">idx: 5</text>
</g>
<!-- 6&#45;&gt;21 -->
<g id="edge36" class="edge">
<title>6&#45;&gt;21</title>
<path fill="none" stroke="grey" stroke-width="2" d="M557.42,-575.7C563.41,-567.47 570.69,-557.48 577.29,-548.42"/>
<polygon fill="grey" stroke="grey" stroke-width="2" points="580.29,-550.25 583.35,-540.1 574.63,-546.13 580.29,-550.25"/>
</g>
<!-- 24 -->
<g id="node25" class="node">
<title>24</title>
<path fill="none" stroke="#d8ac56" stroke-width="2" d="M726.31,-540C726.31,-540 667.31,-540 667.31,-540 661.31,-540 655.31,-534 655.31,-528 655.31,-528 655.31,-516 655.31,-516 655.31,-510 661.31,-504 667.31,-504 667.31,-504 726.31,-504 726.31,-504 732.31,-504 738.31,-510 738.31,-516 738.31,-516 738.31,-528 738.31,-528 738.31,-534 732.31,-540 726.31,-540"/>
<text text-anchor="middle" x="696.81" y="-525" font-family="sans" font-size="10.00">split_subcube</text>
<text text-anchor="middle" x="696.81" y="-514" font-family="sans" font-size="10.00">idx: 6</text>
</g>
<!-- 6&#45;&gt;24 -->
<g id="edge40" class="edge">
<title>6&#45;&gt;24</title>
<path fill="none" stroke="grey" stroke-width="2" d="M582,-575.88C602.68,-566.35 628.61,-554.41 650.6,-544.28"/>
<polygon fill="grey" stroke="grey" stroke-width="2" points="652.13,-547.43 659.75,-540.07 649.2,-541.07 652.13,-547.43"/>
</g>
<!-- 27 -->
<g id="node28" class="node">
<title>27</title>
<path fill="none" stroke="#d8ac56" stroke-width="2" d="M840.31,-540C840.31,-540 781.31,-540 781.31,-540 775.31,-540 769.31,-534 769.31,-528 769.31,-528 769.31,-516 769.31,-516 769.31,-510 775.31,-504 781.31,-504 781.31,-504 840.31,-504 840.31,-504 846.31,-504 852.31,-510 852.31,-516 852.31,-516 852.31,-528 852.31,-528 852.31,-534 846.31,-540 840.31,-540"/>
<text text-anchor="middle" x="810.81" y="-525" font-family="sans" font-size="10.00">split_subcube</text>
<text text-anchor="middle" x="810.81" y="-514" font-family="sans" font-size="10.00">idx: 7</text>
</g>
<!-- 6&#45;&gt;27 -->
<g id="edge44" class="edge">
<title>6&#45;&gt;27</title>
<path fill="none" stroke="grey" stroke-width="2" d="M588,-581.83C629.12,-571.18 692.72,-554.63 747.81,-540 751.58,-539 755.48,-537.96 759.4,-536.91"/>
<polygon fill="grey" stroke="grey" stroke-width="2" points="760.39,-540.27 769.14,-534.3 758.58,-533.51 760.39,-540.27"/>
</g>
<!-- 30 -->
<g id="node31" class="node">
<title>30</title>
<path fill="none" stroke="#d8ac56" stroke-width="2" d="M958.31,-540C958.31,-540 899.31,-540 899.31,-540 893.31,-540 887.31,-534 887.31,-528 887.31,-528 887.31,-516 887.31,-516 887.31,-510 893.31,-504 899.31,-504 899.31,-504 958.31,-504 958.31,-504 964.31,-504 970.31,-510 970.31,-516 970.31,-516 970.31,-528 970.31,-528 970.31,-534 964.31,-540 958.31,-540"/>
<text text-anchor="middle" x="928.81" y="-525" font-family="sans" font-size="10.00">split_subcube</text>
<text text-anchor="middle" x="928.81" y="-514" font-family="sans" font-size="10.00">idx: 8</text>
</g>
<!-- 6&#45;&gt;30 -->
<g id="edge48" class="edge">
<title>6&#45;&gt;30</title>
<path fill="none" stroke="grey" stroke-width="2" d="M587.84,-586.96C649,-578.12 764.48,-560.45 861.81,-540 866.82,-538.95 872.02,-537.77 877.21,-536.55"/>
<polygon fill="grey" stroke="grey" stroke-width="2" points="878.23,-539.9 887.12,-534.15 876.58,-533.1 878.23,-539.9"/>
</g>
<!-- 6&#45;&gt;32 -->
<g id="edge52" class="edge">
<title>6&#45;&gt;32</title>
<path fill="none" stroke="grey" stroke-width="2" d="M587.97,-591.98C684.34,-589.04 913.75,-578.12 979.81,-540 1022.7,-515.25 1046.81,-500.51 1046.81,-451 1046.81,-451 1046.81,-451 1046.81,-233 1046.81,-153.98 775.08,-110 670.32,-95.99"/>
<polygon fill="grey" stroke="grey" stroke-width="2" points="670.51,-92.48 660.14,-94.65 669.6,-99.42 670.51,-92.48"/>
</g>
<!-- 7&#45;&gt;4 -->
<g id="edge15" class="edge">
<title>7&#45;&gt;4</title>
<path fill="none" stroke="grey" stroke-width="2" d="M43.81,-431.7C43.81,-423.98 43.81,-414.71 43.81,-406.11"/>
<polygon fill="grey" stroke="grey" stroke-width="2" points="47.31,-406.1 43.81,-396.1 40.31,-406.1 47.31,-406.1"/>
</g>
<!-- 8 -->
<g id="node9" class="node">
<title>8</title>
<path fill="none" stroke="#56a9d8" stroke-width="2" d="M180.31,-396C180.31,-396 143.31,-396 143.31,-396 137.31,-396 131.31,-390 131.31,-384 131.31,-384 131.31,-372 131.31,-372 131.31,-366 137.31,-360 143.31,-360 143.31,-360 180.31,-360 180.31,-360 186.31,-360 192.31,-366 192.31,-372 192.31,-372 192.31,-384 192.31,-384 192.31,-390 186.31,-396 180.31,-396"/>
<text text-anchor="middle" x="161.81" y="-375.5" font-family="sans" font-size="10.00">sofia2cat</text>
</g>
<!-- 8&#45;&gt;3 -->
<g id="edge6" class="edge">
<title>8&#45;&gt;3</title>
<path fill="none" stroke="grey" stroke-width="2" d="M192.5,-370C206.84,-366.8 224.17,-363.06 239.81,-360 319.38,-344.42 411.08,-328.8 472.99,-318.6"/>
<polygon fill="grey" stroke="grey" stroke-width="2" points="473.74,-322.02 483.04,-316.94 472.61,-315.11 473.74,-322.02"/>
</g>
<!-- 9&#45;&gt;8 -->
<g id="edge18" class="edge">
<title>9&#45;&gt;8</title>
<path fill="none" stroke="grey" stroke-width="2" d="M144.08,-503.6C135.57,-494 126.28,-481.34 121.81,-468 116.73,-452.83 116.73,-447.17 121.81,-432 125.16,-422 131.23,-412.38 137.64,-404.14"/>
<polygon fill="grey" stroke="grey" stroke-width="2" points="140.37,-406.33 144.08,-396.4 134.99,-401.85 140.37,-406.33"/>
</g>
<!-- 10 -->
<g id="node11" class="node">
<title>10</title>
<path fill="none" stroke="#80d856" stroke-width="2" d="M180.31,-468C180.31,-468 143.31,-468 143.31,-468 137.31,-468 131.31,-462 131.31,-456 131.31,-456 131.31,-444 131.31,-444 131.31,-438 137.31,-432 143.31,-432 143.31,-432 180.31,-432 180.31,-432 186.31,-432 192.31,-438 192.31,-444 192.31,-444 192.31,-456 192.31,-456 192.31,-462 186.31,-468 180.31,-468"/>
<text text-anchor="middle" x="161.81" y="-447.5" font-family="sans" font-size="10.00">run_sofia</text>
</g>
<!-- 9&#45;&gt;10 -->
<g id="edge21" class="edge">
<title>9&#45;&gt;10</title>
<path fill="none" stroke="grey" stroke-width="2" d="M161.81,-503.7C161.81,-495.98 161.81,-486.71 161.81,-478.11"/>
<polygon fill="grey" stroke="grey" stroke-width="2" points="165.31,-478.1 161.81,-468.1 158.31,-478.1 165.31,-478.1"/>
</g>
<!-- 10&#45;&gt;8 -->
<g id="edge19" class="edge">
<title>10&#45;&gt;8</title>
<path fill="none" stroke="grey" stroke-width="2" d="M161.81,-431.7C161.81,-423.98 161.81,-414.71 161.81,-406.11"/>
<polygon fill="grey" stroke="grey" stroke-width="2" points="165.31,-406.1 161.81,-396.1 158.31,-406.1 165.31,-406.1"/>
</g>
<!-- 11 -->
<g id="node12" class="node">
<title>11</title>
<path fill="none" stroke="#56a9d8" stroke-width="2" d="M298.31,-396C298.31,-396 261.31,-396 261.31,-396 255.31,-396 249.31,-390 249.31,-384 249.31,-384 249.31,-372 249.31,-372 249.31,-366 255.31,-360 261.31,-360 261.31,-360 298.31,-360 298.31,-360 304.31,-360 310.31,-366 310.31,-372 310.31,-372 310.31,-384 310.31,-384 310.31,-390 304.31,-396 298.31,-396"/>
<text text-anchor="middle" x="279.81" y="-375.5" font-family="sans" font-size="10.00">sofia2cat</text>
</g>
<!-- 11&#45;&gt;3 -->
<g id="edge7" class="edge">
<title>11&#45;&gt;3</title>
<path fill="none" stroke="grey" stroke-width="2" d="M310.47,-368.9C350.04,-358.45 420.12,-339.94 473.36,-325.87"/>
<polygon fill="grey" stroke="grey" stroke-width="2" points="474.32,-329.24 483.1,-323.3 472.54,-322.47 474.32,-329.24"/>
</g>
<!-- 12&#45;&gt;11 -->
<g id="edge22" class="edge">
<title>12&#45;&gt;11</title>
<path fill="none" stroke="grey" stroke-width="2" d="M262.08,-503.6C253.57,-494 244.28,-481.34 239.81,-468 234.73,-452.83 234.73,-447.17 239.81,-432 243.16,-422 249.23,-412.38 255.64,-404.14"/>
<polygon fill="grey" stroke="grey" stroke-width="2" points="258.37,-406.33 262.08,-396.4 252.99,-401.85 258.37,-406.33"/>
</g>
<!-- 13 -->
<g id="node14" class="node">
<title>13</title>
<path fill="none" stroke="#80d856" stroke-width="2" d="M298.31,-468C298.31,-468 261.31,-468 261.31,-468 255.31,-468 249.31,-462 249.31,-456 249.31,-456 249.31,-444 249.31,-444 249.31,-438 255.31,-432 261.31,-432 261.31,-432 298.31,-432 298.31,-432 304.31,-432 310.31,-438 310.31,-444 310.31,-444 310.31,-456 310.31,-456 310.31,-462 304.31,-468 298.31,-468"/>
<text text-anchor="middle" x="279.81" y="-447.5" font-family="sans" font-size="10.00">run_sofia</text>
</g>
<!-- 12&#45;&gt;13 -->
<g id="edge25" class="edge">
<title>12&#45;&gt;13</title>
<path fill="none" stroke="grey" stroke-width="2" d="M279.81,-503.7C279.81,-495.98 279.81,-486.71 279.81,-478.11"/>
<polygon fill="grey" stroke="grey" stroke-width="2" points="283.31,-478.1 279.81,-468.1 276.31,-478.1 283.31,-478.1"/>
</g>
<!-- 13&#45;&gt;11 -->
<g id="edge23" class="edge">
<title>13&#45;&gt;11</title>
<path fill="none" stroke="grey" stroke-width="2" d="M279.81,-431.7C279.81,-423.98 279.81,-414.71 279.81,-406.11"/>
<polygon fill="grey" stroke="grey" stroke-width="2" points="283.31,-406.1 279.81,-396.1 276.31,-406.1 283.31,-406.1"/>
</g>
<!-- 14 -->
<g id="node15" class="node">
<title>14</title>
<path fill="none" stroke="#56a9d8" stroke-width="2" d="M416.31,-396C416.31,-396 379.31,-396 379.31,-396 373.31,-396 367.31,-390 367.31,-384 367.31,-384 367.31,-372 367.31,-372 367.31,-366 373.31,-360 379.31,-360 379.31,-360 416.31,-360 416.31,-360 422.31,-360 428.31,-366 428.31,-372 428.31,-372 428.31,-384 428.31,-384 428.31,-390 422.31,-396 416.31,-396"/>
<text text-anchor="middle" x="397.81" y="-375.5" font-family="sans" font-size="10.00">sofia2cat</text>
</g>
<!-- 14&#45;&gt;3 -->
<g id="edge8" class="edge">
<title>14&#45;&gt;3</title>
<path fill="none" stroke="grey" stroke-width="2" d="M428.63,-362.33C449.2,-352.53 476.6,-339.48 499.62,-328.52"/>
<polygon fill="grey" stroke="grey" stroke-width="2" points="501.33,-331.58 508.86,-324.12 498.32,-325.26 501.33,-331.58"/>
</g>
<!-- 15&#45;&gt;14 -->
<g id="edge26" class="edge">
<title>15&#45;&gt;14</title>
<path fill="none" stroke="grey" stroke-width="2" d="M378.2,-503.77C370.44,-494.03 361.87,-481.18 357.81,-468 353.11,-452.71 352.73,-447.17 357.81,-432 361.16,-422 367.23,-412.38 373.64,-404.14"/>
<polygon fill="grey" stroke="grey" stroke-width="2" points="376.37,-406.33 380.08,-396.4 370.99,-401.85 376.37,-406.33"/>
</g>
<!-- 16 -->
<g id="node17" class="node">
<title>16</title>
<path fill="none" stroke="#80d856" stroke-width="2" d="M416.31,-468C416.31,-468 379.31,-468 379.31,-468 373.31,-468 367.31,-462 367.31,-456 367.31,-456 367.31,-444 367.31,-444 367.31,-438 373.31,-432 379.31,-432 379.31,-432 416.31,-432 416.31,-432 422.31,-432 428.31,-438 428.31,-444 428.31,-444 428.31,-456 428.31,-456 428.31,-462 422.31,-468 416.31,-468"/>
<text text-anchor="middle" x="397.81" y="-447.5" font-family="sans" font-size="10.00">run_sofia</text>
</g>
<!-- 15&#45;&gt;16 -->
<g id="edge29" class="edge">
<title>15&#45;&gt;16</title>
<path fill="none" stroke="grey" stroke-width="2" d="M394.8,-503.7C395.24,-495.98 395.77,-486.71 396.26,-478.11"/>
<polygon fill="grey" stroke="grey" stroke-width="2" points="399.76,-478.29 396.83,-468.1 392.77,-477.89 399.76,-478.29"/>
</g>
<!-- 16&#45;&gt;14 -->
<g id="edge27" class="edge">
<title>16&#45;&gt;14</title>
<path fill="none" stroke="grey" stroke-width="2" d="M397.81,-431.7C397.81,-423.98 397.81,-414.71 397.81,-406.11"/>
<polygon fill="grey" stroke="grey" stroke-width="2" points="401.31,-406.1 397.81,-396.1 394.31,-406.1 401.31,-406.1"/>
</g>
<!-- 17 -->
<g id="node18" class="node">
<title>17</title>
<path fill="none" stroke="#56a9d8" stroke-width="2" d="M524.31,-396C524.31,-396 487.31,-396 487.31,-396 481.31,-396 475.31,-390 475.31,-384 475.31,-384 475.31,-372 475.31,-372 475.31,-366 481.31,-360 487.31,-360 487.31,-360 524.31,-360 524.31,-360 530.31,-360 536.31,-366 536.31,-372 536.31,-372 536.31,-384 536.31,-384 536.31,-390 530.31,-396 524.31,-396"/>
<text text-anchor="middle" x="505.81" y="-375.5" font-family="sans" font-size="10.00">sofia2cat</text>
</g>
<!-- 17&#45;&gt;3 -->
<g id="edge9" class="edge">
<title>17&#45;&gt;3</title>
<path fill="none" stroke="grey" stroke-width="2" d="M515.45,-359.7C519.94,-351.64 525.37,-341.89 530.34,-332.98"/>
<polygon fill="grey" stroke="grey" stroke-width="2" points="533.47,-334.54 535.28,-324.1 527.36,-331.14 533.47,-334.54"/>
</g>
<!-- 18&#45;&gt;17 -->
<g id="edge30" class="edge">
<title>18&#45;&gt;17</title>
<path fill="none" stroke="grey" stroke-width="2" d="M486.37,-503.82C478.63,-485.82 469.29,-456.75 475.81,-432 478.3,-422.54 482.91,-412.99 487.78,-404.66"/>
<polygon fill="grey" stroke="grey" stroke-width="2" points="490.77,-406.49 493.09,-396.15 484.83,-402.79 490.77,-406.49"/>
</g>
<!-- 19 -->
<g id="node20" class="node">
<title>19</title>
<path fill="none" stroke="#80d856" stroke-width="2" d="M534.31,-468C534.31,-468 497.31,-468 497.31,-468 491.31,-468 485.31,-462 485.31,-456 485.31,-456 485.31,-444 485.31,-444 485.31,-438 491.31,-432 497.31,-432 497.31,-432 534.31,-432 534.31,-432 540.31,-432 546.31,-438 546.31,-444 546.31,-444 546.31,-456 546.31,-456 546.31,-462 540.31,-468 534.31,-468"/>
<text text-anchor="middle" x="515.81" y="-447.5" font-family="sans" font-size="10.00">run_sofia</text>
</g>
<!-- 18&#45;&gt;19 -->
<g id="edge33" class="edge">
<title>18&#45;&gt;19</title>
<path fill="none" stroke="grey" stroke-width="2" d="M500,-503.7C502.34,-495.9 505.16,-486.51 507.76,-477.83"/>
<polygon fill="grey" stroke="grey" stroke-width="2" points="511.16,-478.69 510.68,-468.1 504.45,-476.68 511.16,-478.69"/>
</g>
<!-- 19&#45;&gt;17 -->
<g id="edge31" class="edge">
<title>19&#45;&gt;17</title>
<path fill="none" stroke="grey" stroke-width="2" d="M513.34,-431.7C512.24,-423.98 510.91,-414.71 509.69,-406.11"/>
<polygon fill="grey" stroke="grey" stroke-width="2" points="513.13,-405.51 508.26,-396.1 506.2,-406.5 513.13,-405.51"/>
</g>
<!-- 20 -->
<g id="node21" class="node">
<title>20</title>
<path fill="none" stroke="#56a9d8" stroke-width="2" d="M603.31,-396C603.31,-396 566.31,-396 566.31,-396 560.31,-396 554.31,-390 554.31,-384 554.31,-384 554.31,-372 554.31,-372 554.31,-366 560.31,-360 566.31,-360 566.31,-360 603.31,-360 603.31,-360 609.31,-360 615.31,-366 615.31,-372 615.31,-372 615.31,-384 615.31,-384 615.31,-390 609.31,-396 603.31,-396"/>
<text text-anchor="middle" x="584.81" y="-375.5" font-family="sans" font-size="10.00">sofia2cat</text>
</g>
<!-- 20&#45;&gt;3 -->
<g id="edge10" class="edge">
<title>20&#45;&gt;3</title>
<path fill="none" stroke="grey" stroke-width="2" d="M574.92,-359.7C570.32,-351.64 564.75,-341.89 559.66,-332.98"/>
<polygon fill="grey" stroke="grey" stroke-width="2" points="562.59,-331.05 554.59,-324.1 556.51,-334.52 562.59,-331.05"/>
</g>
<!-- 21&#45;&gt;20 -->
<g id="edge34" class="edge">
<title>21&#45;&gt;20</title>
<path fill="none" stroke="grey" stroke-width="2" d="M594.49,-503.87C592.61,-479.67 589.17,-435.21 586.93,-406.39"/>
<polygon fill="grey" stroke="grey" stroke-width="2" points="590.41,-405.89 586.14,-396.19 583.43,-406.43 590.41,-405.89"/>
</g>
<!-- 22 -->
<g id="node23" class="node">
<title>22</title>
<path fill="none" stroke="#80d856" stroke-width="2" d="M652.31,-468C652.31,-468 615.31,-468 615.31,-468 609.31,-468 603.31,-462 603.31,-456 603.31,-456 603.31,-444 603.31,-444 603.31,-438 609.31,-432 615.31,-432 615.31,-432 652.31,-432 652.31,-432 658.31,-432 664.31,-438 664.31,-444 664.31,-444 664.31,-456 664.31,-456 664.31,-462 658.31,-468 652.31,-468"/>
<text text-anchor="middle" x="633.81" y="-447.5" font-family="sans" font-size="10.00">run_sofia</text>
</g>
<!-- 21&#45;&gt;22 -->
<g id="edge37" class="edge">
<title>21&#45;&gt;22</title>
<path fill="none" stroke="grey" stroke-width="2" d="M605.21,-503.7C609.58,-495.64 614.87,-485.89 619.71,-476.98"/>
<polygon fill="grey" stroke="grey" stroke-width="2" points="622.83,-478.56 624.53,-468.1 616.68,-475.22 622.83,-478.56"/>
</g>
<!-- 22&#45;&gt;20 -->
<g id="edge35" class="edge">
<title>22&#45;&gt;20</title>
<path fill="none" stroke="grey" stroke-width="2" d="M621.7,-431.7C615.94,-423.47 608.95,-413.48 602.61,-404.42"/>
<polygon fill="grey" stroke="grey" stroke-width="2" points="605.39,-402.29 596.78,-396.1 599.65,-406.3 605.39,-402.29"/>
</g>
<!-- 23 -->
<g id="node24" class="node">
<title>23</title>
<path fill="none" stroke="#56a9d8" stroke-width="2" d="M711.31,-396C711.31,-396 674.31,-396 674.31,-396 668.31,-396 662.31,-390 662.31,-384 662.31,-384 662.31,-372 662.31,-372 662.31,-366 668.31,-360 674.31,-360 674.31,-360 711.31,-360 711.31,-360 717.31,-360 723.31,-366 723.31,-372 723.31,-372 723.31,-384 723.31,-384 723.31,-390 717.31,-396 711.31,-396"/>
<text text-anchor="middle" x="692.81" y="-375.5" font-family="sans" font-size="10.00">sofia2cat</text>
</g>
<!-- 23&#45;&gt;3 -->
<g id="edge11" class="edge">
<title>23&#45;&gt;3</title>
<path fill="none" stroke="grey" stroke-width="2" d="M662.15,-362.5C641.29,-352.63 613.35,-339.42 589.96,-328.36"/>
<polygon fill="grey" stroke="grey" stroke-width="2" points="591.45,-325.19 580.92,-324.08 588.46,-331.52 591.45,-325.19"/>
</g>
<!-- 24&#45;&gt;23 -->
<g id="edge38" class="edge">
<title>24&#45;&gt;23</title>
<path fill="none" stroke="grey" stroke-width="2" d="M696.33,-503.87C695.65,-479.67 694.4,-435.21 693.58,-406.39"/>
<polygon fill="grey" stroke="grey" stroke-width="2" points="697.08,-406.09 693.3,-396.19 690.08,-406.28 697.08,-406.09"/>
</g>
<!-- 25 -->
<g id="node26" class="node">
<title>25</title>
<path fill="none" stroke="#80d856" stroke-width="2" d="M770.31,-468C770.31,-468 733.31,-468 733.31,-468 727.31,-468 721.31,-462 721.31,-456 721.31,-456 721.31,-444 721.31,-444 721.31,-438 727.31,-432 733.31,-432 733.31,-432 770.31,-432 770.31,-432 776.31,-432 782.31,-438 782.31,-444 782.31,-444 782.31,-456 782.31,-456 782.31,-462 776.31,-468 770.31,-468"/>
<text text-anchor="middle" x="751.81" y="-447.5" font-family="sans" font-size="10.00">run_sofia</text>
</g>
<!-- 24&#45;&gt;25 -->
<g id="edge41" class="edge">
<title>24&#45;&gt;25</title>
<path fill="none" stroke="grey" stroke-width="2" d="M710.41,-503.7C716.93,-495.39 724.88,-485.28 732.06,-476.14"/>
<polygon fill="grey" stroke="grey" stroke-width="2" points="734.95,-478.13 738.37,-468.1 729.44,-473.81 734.95,-478.13"/>
</g>
<!-- 25&#45;&gt;23 -->
<g id="edge39" class="edge">
<title>25&#45;&gt;23</title>
<path fill="none" stroke="grey" stroke-width="2" d="M737.23,-431.7C730.15,-423.3 721.53,-413.07 713.77,-403.86"/>
<polygon fill="grey" stroke="grey" stroke-width="2" points="716.35,-401.49 707.23,-396.1 711,-406.01 716.35,-401.49"/>
</g>
<!-- 26 -->
<g id="node27" class="node">
<title>26</title>
<path fill="none" stroke="#56a9d8" stroke-width="2" d="M829.31,-396C829.31,-396 792.31,-396 792.31,-396 786.31,-396 780.31,-390 780.31,-384 780.31,-384 780.31,-372 780.31,-372 780.31,-366 786.31,-360 792.31,-360 792.31,-360 829.31,-360 829.31,-360 835.31,-360 841.31,-366 841.31,-372 841.31,-372 841.31,-384 841.31,-384 841.31,-390 835.31,-396 829.31,-396"/>
<text text-anchor="middle" x="810.81" y="-375.5" font-family="sans" font-size="10.00">sofia2cat</text>
</g>
<!-- 26&#45;&gt;3 -->
<g id="edge12" class="edge">
<title>26&#45;&gt;3</title>
<path fill="none" stroke="grey" stroke-width="2" d="M780.3,-368.97C740.54,-358.51 669.77,-339.88 616.16,-325.78"/>
<polygon fill="grey" stroke="grey" stroke-width="2" points="616.92,-322.36 606.36,-323.2 615.14,-329.13 616.92,-322.36"/>
</g>
<!-- 27&#45;&gt;26 -->
<g id="edge42" class="edge">
<title>27&#45;&gt;26</title>
<path fill="none" stroke="grey" stroke-width="2" d="M810.81,-503.87C810.81,-479.67 810.81,-435.21 810.81,-406.39"/>
<polygon fill="grey" stroke="grey" stroke-width="2" points="814.31,-406.19 810.81,-396.19 807.31,-406.19 814.31,-406.19"/>
</g>
<!-- 28 -->
<g id="node29" class="node">
<title>28</title>
<path fill="none" stroke="#80d856" stroke-width="2" d="M888.31,-468C888.31,-468 851.31,-468 851.31,-468 845.31,-468 839.31,-462 839.31,-456 839.31,-456 839.31,-444 839.31,-444 839.31,-438 845.31,-432 851.31,-432 851.31,-432 888.31,-432 888.31,-432 894.31,-432 900.31,-438 900.31,-444 900.31,-444 900.31,-456 900.31,-456 900.31,-462 894.31,-468 888.31,-468"/>
<text text-anchor="middle" x="869.81" y="-447.5" font-family="sans" font-size="10.00">run_sofia</text>
</g>
<!-- 27&#45;&gt;28 -->
<g id="edge45" class="edge">
<title>27&#45;&gt;28</title>
<path fill="none" stroke="grey" stroke-width="2" d="M825.4,-503.7C832.47,-495.3 841.1,-485.07 848.86,-475.86"/>
<polygon fill="grey" stroke="grey" stroke-width="2" points="851.63,-478.01 855.4,-468.1 846.27,-473.49 851.63,-478.01"/>
</g>
<!-- 28&#45;&gt;26 -->
<g id="edge43" class="edge">
<title>28&#45;&gt;26</title>
<path fill="none" stroke="grey" stroke-width="2" d="M855.23,-431.7C848.15,-423.3 839.53,-413.07 831.77,-403.86"/>
<polygon fill="grey" stroke="grey" stroke-width="2" points="834.35,-401.49 825.23,-396.1 829,-406.01 834.35,-401.49"/>
</g>
<!-- 29 -->
<g id="node30" class="node">
<title>29</title>
<path fill="none" stroke="#56a9d8" stroke-width="2" d="M947.31,-396C947.31,-396 910.31,-396 910.31,-396 904.31,-396 898.31,-390 898.31,-384 898.31,-384 898.31,-372 898.31,-372 898.31,-366 904.31,-360 910.31,-360 910.31,-360 947.31,-360 947.31,-360 953.31,-360 959.31,-366 959.31,-372 959.31,-372 959.31,-384 959.31,-384 959.31,-390 953.31,-396 947.31,-396"/>
<text text-anchor="middle" x="928.81" y="-375.5" font-family="sans" font-size="10.00">sofia2cat</text>
</g>
<!-- 29&#45;&gt;3 -->
<g id="edge13" class="edge">
<title>29&#45;&gt;3</title>
<path fill="none" stroke="grey" stroke-width="2" d="M898.13,-369.99C883.78,-366.8 866.45,-363.06 850.81,-360 770.86,-344.37 678.7,-328.73 616.58,-318.53"/>
<polygon fill="grey" stroke="grey" stroke-width="2" points="616.93,-315.04 606.5,-316.88 615.8,-321.95 616.93,-315.04"/>
</g>
<!-- 30&#45;&gt;29 -->
<g id="edge46" class="edge">
<title>30&#45;&gt;29</title>
<path fill="none" stroke="grey" stroke-width="2" d="M928.81,-503.87C928.81,-479.67 928.81,-435.21 928.81,-406.39"/>
<polygon fill="grey" stroke="grey" stroke-width="2" points="932.31,-406.19 928.81,-396.19 925.31,-406.19 932.31,-406.19"/>
</g>
<!-- 31 -->
<g id="node32" class="node">
<title>31</title>
<path fill="none" stroke="#80d856" stroke-width="2" d="M1006.31,-468C1006.31,-468 969.31,-468 969.31,-468 963.31,-468 957.31,-462 957.31,-456 957.31,-456 957.31,-444 957.31,-444 957.31,-438 963.31,-432 969.31,-432 969.31,-432 1006.31,-432 1006.31,-432 1012.31,-432 1018.31,-438 1018.31,-444 1018.31,-444 1018.31,-456 1018.31,-456 1018.31,-462 1012.31,-468 1006.31,-468"/>
<text text-anchor="middle" x="987.81" y="-447.5" font-family="sans" font-size="10.00">run_sofia</text>
</g>
<!-- 30&#45;&gt;31 -->
<g id="edge49" class="edge">
<title>30&#45;&gt;31</title>
<path fill="none" stroke="grey" stroke-width="2" d="M943.4,-503.7C950.47,-495.3 959.1,-485.07 966.86,-475.86"/>
<polygon fill="grey" stroke="grey" stroke-width="2" points="969.63,-478.01 973.4,-468.1 964.27,-473.49 969.63,-478.01"/>
</g>
<!-- 31&#45;&gt;29 -->
<g id="edge47" class="edge">
<title>31&#45;&gt;29</title>
<path fill="none" stroke="grey" stroke-width="2" d="M973.23,-431.7C966.15,-423.3 957.53,-413.07 949.77,-403.86"/>
<polygon fill="grey" stroke="grey" stroke-width="2" points="952.35,-401.49 943.23,-396.1 947,-406.01 952.35,-401.49"/>
</g>
<!-- 32&#45;&gt;0 -->
<g id="edge2" class="edge">
<title>32&#45;&gt;0</title>
<path fill="none" stroke="grey" stroke-width="2" d="M622.15,-71.7C618.62,-63.73 614.36,-54.1 610.44,-45.26"/>
<polygon fill="grey" stroke="grey" stroke-width="2" points="613.64,-43.83 606.39,-36.1 607.24,-46.67 613.64,-43.83"/>
</g>
</g>
</svg>
