<?xml version="1.0" encoding="UTF-8" standalone="no"?>
<!DOCTYPE svg PUBLIC "-//W3C//DTD SVG 1.1//EN"
 "http://www.w3.org/Graphics/SVG/1.1/DTD/svg11.dtd">
<!-- Generated by graphviz version 2.47.3 (20210619.2315)
 -->
<!-- Title: snakemake_dag Pages: 1 -->
<svg width="202pt" height="620pt"
 viewBox="0.00 0.00 201.50 620.00" xmlns="http://www.w3.org/2000/svg" xmlns:xlink="http://www.w3.org/1999/xlink">
<g id="graph0" class="graph" transform="scale(1 1) rotate(0) translate(4 616)">
<title>snakemake_dag</title>
<polygon fill="white" stroke="transparent" points="-4,4 -4,-616 197.5,-616 197.5,4 -4,4"/>
<!-- 0 -->
<g id="node1" class="node">
<title>0</title>
<path fill="none" stroke="#d8ac56" stroke-width="2" d="M128.5,-36C128.5,-36 98.5,-36 98.5,-36 92.5,-36 86.5,-30 86.5,-24 86.5,-24 86.5,-12 86.5,-12 86.5,-6 92.5,0 98.5,0 98.5,0 128.5,0 128.5,0 134.5,0 140.5,-6 140.5,-12 140.5,-12 140.5,-24 140.5,-24 140.5,-30 134.5,-36 128.5,-36"/>
<text text-anchor="middle" x="113.5" y="-15.5" font-family="sans" font-size="10.00">all</text>
</g>
<!-- 1 -->
<g id="node2" class="node">
<title>1</title>
<path fill="none" stroke="#d6d856" stroke-width="2" d="M107,-180C107,-180 52,-180 52,-180 46,-180 40,-174 40,-168 40,-168 40,-156 40,-156 40,-150 46,-144 52,-144 52,-144 107,-144 107,-144 113,-144 119,-150 119,-156 119,-156 119,-168 119,-168 119,-174 113,-180 107,-180"/>
<text text-anchor="middle" x="79.5" y="-159.5" font-family="sans" font-size="10.00">final_catalog</text>
</g>
<!-- 1&#45;&gt;0 -->
<g id="edge1" class="edge">
<title>1&#45;&gt;0</title>
<path fill="none" stroke="grey" stroke-width="2" d="M83.6,-143.87C89.42,-119.56 100.13,-74.82 107.03,-46.01"/>
<polygon fill="grey" stroke="grey" stroke-width="2" points="110.46,-46.73 109.38,-36.19 103.65,-45.1 110.46,-46.73"/>
</g>
<!-- 8 -->
<g id="node9" class="node">
<title>8</title>
<path fill="none" stroke="#5682d8" stroke-width="2" d="M162.5,-108C162.5,-108 126.5,-108 126.5,-108 120.5,-108 114.5,-102 114.5,-96 114.5,-96 114.5,-84 114.5,-84 114.5,-78 120.5,-72 126.5,-72 126.5,-72 162.5,-72 162.5,-72 168.5,-72 174.5,-78 174.5,-84 174.5,-84 174.5,-96 174.5,-96 174.5,-102 168.5,-108 162.5,-108"/>
<text text-anchor="middle" x="144.5" y="-87.5" font-family="sans" font-size="10.00">visualize</text>
</g>
<!-- 1&#45;&gt;8 -->
<g id="edge12" class="edge">
<title>1&#45;&gt;8</title>
<path fill="none" stroke="grey" stroke-width="2" d="M95.57,-143.7C103.44,-135.22 113.06,-124.86 121.67,-115.58"/>
<polygon fill="grey" stroke="grey" stroke-width="2" points="124.38,-117.81 128.62,-108.1 119.25,-113.05 124.38,-117.81"/>
</g>
<!-- 2 -->
<g id="node3" class="node">
<title>2</title>
<path fill="none" stroke="#afd856" stroke-width="2" d="M107,-252C107,-252 12,-252 12,-252 6,-252 0,-246 0,-240 0,-240 0,-228 0,-228 0,-222 6,-216 12,-216 12,-216 107,-216 107,-216 113,-216 119,-222 119,-228 119,-228 119,-240 119,-240 119,-246 113,-252 107,-252"/>
<text text-anchor="middle" x="59.5" y="-231.5" font-family="sans" font-size="10.00">eliminate_duplicates</text>
</g>
<!-- 2&#45;&gt;1 -->
<g id="edge3" class="edge">
<title>2&#45;&gt;1</title>
<path fill="none" stroke="grey" stroke-width="2" d="M64.44,-215.7C66.67,-207.9 69.35,-198.51 71.83,-189.83"/>
<polygon fill="grey" stroke="grey" stroke-width="2" points="75.23,-190.68 74.61,-180.1 68.5,-188.76 75.23,-190.68"/>
</g>
<!-- 3 -->
<g id="node4" class="node">
<title>3</title>
<path fill="none" stroke="#56d8a9" stroke-width="2" d="M126,-324C126,-324 27,-324 27,-324 21,-324 15,-318 15,-312 15,-312 15,-300 15,-300 15,-294 21,-288 27,-288 27,-288 126,-288 126,-288 132,-288 138,-294 138,-300 138,-300 138,-312 138,-312 138,-318 132,-324 126,-324"/>
<text text-anchor="middle" x="76.5" y="-303.5" font-family="sans" font-size="10.00">concatenate_catalogs</text>
</g>
<!-- 3&#45;&gt;2 -->
<g id="edge4" class="edge">
<title>3&#45;&gt;2</title>
<path fill="none" stroke="grey" stroke-width="2" d="M72.3,-287.7C70.4,-279.9 68.12,-270.51 66.02,-261.83"/>
<polygon fill="grey" stroke="grey" stroke-width="2" points="69.42,-261 63.65,-252.1 62.61,-262.65 69.42,-261"/>
</g>
<!-- 3&#45;&gt;8 -->
<g id="edge10" class="edge">
<title>3&#45;&gt;8</title>
<path fill="none" stroke="grey" stroke-width="2" d="M98.91,-287.78C109.42,-278.41 121.03,-265.89 127.5,-252 147.64,-208.73 148.54,-152.03 146.87,-118.75"/>
<polygon fill="grey" stroke="grey" stroke-width="2" points="150.34,-118.18 146.22,-108.42 143.35,-118.61 150.34,-118.18"/>
</g>
<!-- 4 -->
<g id="node5" class="node">
<title>4</title>
<path fill="none" stroke="#56a9d8" stroke-width="2" d="M95,-396C95,-396 58,-396 58,-396 52,-396 46,-390 46,-384 46,-384 46,-372 46,-372 46,-366 52,-360 58,-360 58,-360 95,-360 95,-360 101,-360 107,-366 107,-372 107,-372 107,-384 107,-384 107,-390 101,-396 95,-396"/>
<text text-anchor="middle" x="76.5" y="-375.5" font-family="sans" font-size="10.00">sofia2cat</text>
</g>
<!-- 4&#45;&gt;3 -->
<g id="edge5" class="edge">
<title>4&#45;&gt;3</title>
<path fill="none" stroke="grey" stroke-width="2" d="M76.5,-359.7C76.5,-351.98 76.5,-342.71 76.5,-334.11"/>
<polygon fill="grey" stroke="grey" stroke-width="2" points="80,-334.1 76.5,-324.1 73,-334.1 80,-334.1"/>
</g>
<!-- 5 -->
<g id="node6" class="node">
<title>5</title>
<path fill="none" stroke="#d88556" stroke-width="2" d="M145,-540C145,-540 86,-540 86,-540 80,-540 74,-534 74,-528 74,-528 74,-516 74,-516 74,-510 80,-504 86,-504 86,-504 145,-504 145,-504 151,-504 157,-510 157,-516 157,-516 157,-528 157,-528 157,-534 151,-540 145,-540"/>
<text text-anchor="middle" x="115.5" y="-519.5" font-family="sans" font-size="10.00">split_subcube</text>
</g>
<!-- 5&#45;&gt;4 -->
<g id="edge7" class="edge">
<title>5&#45;&gt;4</title>
<path fill="none" stroke="grey" stroke-width="2" d="M101.04,-503.54C93.78,-493.73 85.68,-480.9 81.5,-468 75.03,-448.03 74.01,-424.24 74.49,-406.29"/>
<polygon fill="grey" stroke="grey" stroke-width="2" points="77.99,-406.34 74.92,-396.2 70.99,-406.04 77.99,-406.34"/>
</g>
<!-- 7 -->
<g id="node8" class="node">
<title>7</title>
<path fill="none" stroke="#59d856" stroke-width="2" d="M140,-468C140,-468 103,-468 103,-468 97,-468 91,-462 91,-456 91,-456 91,-444 91,-444 91,-438 97,-432 103,-432 103,-432 140,-432 140,-432 146,-432 152,-438 152,-444 152,-444 152,-456 152,-456 152,-462 146,-468 140,-468"/>
<text text-anchor="middle" x="121.5" y="-447.5" font-family="sans" font-size="10.00">run_sofia</text>
</g>
<!-- 5&#45;&gt;7 -->
<g id="edge9" class="edge">
<title>5&#45;&gt;7</title>
<path fill="none" stroke="grey" stroke-width="2" d="M116.98,-503.7C117.64,-495.98 118.44,-486.71 119.18,-478.11"/>
<polygon fill="grey" stroke="grey" stroke-width="2" points="122.67,-478.37 120.03,-468.1 115.69,-477.77 122.67,-478.37"/>
</g>
<!-- 6 -->
<g id="node7" class="node">
<title>6</title>
<path fill="none" stroke="#56d8d8" stroke-width="2" d="M181.5,-612C181.5,-612 119.5,-612 119.5,-612 113.5,-612 107.5,-606 107.5,-600 107.5,-600 107.5,-588 107.5,-588 107.5,-582 113.5,-576 119.5,-576 119.5,-576 181.5,-576 181.5,-576 187.5,-576 193.5,-582 193.5,-588 193.5,-588 193.5,-600 193.5,-600 193.5,-606 187.5,-612 181.5,-612"/>
<text text-anchor="middle" x="150.5" y="-591.5" font-family="sans" font-size="10.00">define_chunks</text>
</g>
<!-- 6&#45;&gt;5 -->
<g id="edge8" class="edge">
<title>6&#45;&gt;5</title>
<path fill="none" stroke="grey" stroke-width="2" d="M141.85,-575.7C137.86,-567.73 133.05,-558.1 128.63,-549.26"/>
<polygon fill="grey" stroke="grey" stroke-width="2" points="131.65,-547.48 124.05,-540.1 125.39,-550.61 131.65,-547.48"/>
</g>
<!-- 6&#45;&gt;8 -->
<g id="edge11" class="edge">
<title>6&#45;&gt;8</title>
<path fill="none" stroke="grey" stroke-width="2" d="M157.58,-575.85C167.81,-549.49 185.5,-497.21 185.5,-451 185.5,-451 185.5,-451 185.5,-233 185.5,-191.41 169.06,-145.56 157,-117.51"/>
<polygon fill="grey" stroke="grey" stroke-width="2" points="160.05,-115.75 152.8,-108.03 153.65,-118.59 160.05,-115.75"/>
</g>
<!-- 7&#45;&gt;4 -->
<g id="edge6" class="edge">
<title>7&#45;&gt;4</title>
<path fill="none" stroke="grey" stroke-width="2" d="M110.38,-431.7C105.14,-423.56 98.8,-413.69 93.02,-404.7"/>
<polygon fill="grey" stroke="grey" stroke-width="2" points="95.85,-402.62 87.5,-396.1 89.96,-406.41 95.85,-402.62"/>
</g>
<!-- 8&#45;&gt;0 -->
<g id="edge2" class="edge">
<title>8&#45;&gt;0</title>
<path fill="none" stroke="grey" stroke-width="2" d="M136.84,-71.7C133.31,-63.73 129.04,-54.1 125.13,-45.26"/>
<polygon fill="grey" stroke="grey" stroke-width="2" points="128.32,-43.83 121.07,-36.1 121.92,-46.67 128.32,-43.83"/>
</g>
</g>
</svg>
