<?xml version="1.0" encoding="UTF-8" standalone="no"?>
<!DOCTYPE svg PUBLIC "-//W3C//DTD SVG 1.1//EN"
 "http://www.w3.org/Graphics/SVG/1.1/DTD/svg11.dtd">
<!-- Generated by graphviz version 2.47.3 (20210619.2315)
 -->
<!-- Title: snakemake_dag Pages: 1 -->
<svg width="1334pt" height="548pt"
 viewBox="0.00 0.00 1334.33 548.00" xmlns="http://www.w3.org/2000/svg" xmlns:xlink="http://www.w3.org/1999/xlink">
<g id="graph0" class="graph" transform="scale(1 1) rotate(0) translate(4 544)">
<title>snakemake_dag</title>
<polygon fill="white" stroke="transparent" points="-4,4 -4,-544 1330.33,-544 1330.33,4 -4,4"/>
<!-- 0 -->
<g id="node1" class="node">
<title>0</title>
<path fill="none" stroke="#70d856" stroke-width="2" d="M645.83,-36C645.83,-36 615.83,-36 615.83,-36 609.83,-36 603.83,-30 603.83,-24 603.83,-24 603.83,-12 603.83,-12 603.83,-6 609.83,0 615.83,0 615.83,0 645.83,0 645.83,0 651.83,0 657.83,-6 657.83,-12 657.83,-12 657.83,-24 657.83,-24 657.83,-30 651.83,-36 645.83,-36"/>
<text text-anchor="middle" x="630.83" y="-15.5" font-family="sans" font-size="10.00">all</text>
</g>
<!-- 1 -->
<g id="node2" class="node">
<title>1</title>
<path fill="none" stroke="#ced856" stroke-width="2" d="M658.33,-180C658.33,-180 603.33,-180 603.33,-180 597.33,-180 591.33,-174 591.33,-168 591.33,-168 591.33,-156 591.33,-156 591.33,-150 597.33,-144 603.33,-144 603.33,-144 658.33,-144 658.33,-144 664.33,-144 670.33,-150 670.33,-156 670.33,-156 670.33,-168 670.33,-168 670.33,-174 664.33,-180 658.33,-180"/>
<text text-anchor="middle" x="630.83" y="-159.5" font-family="sans" font-size="10.00">final_catalog</text>
</g>
<!-- 1&#45;&gt;0 -->
<g id="edge1" class="edge">
<title>1&#45;&gt;0</title>
<path fill="none" stroke="grey" stroke-width="2" d="M615.22,-143.77C607.45,-134.03 598.88,-121.18 594.83,-108 590.12,-92.71 590.12,-87.29 594.83,-72 597.84,-62.22 603.33,-52.62 609.14,-44.33"/>
<polygon fill="grey" stroke="grey" stroke-width="2" points="612.02,-46.33 615.22,-36.23 606.42,-42.13 612.02,-46.33"/>
</g>
<!-- 43 -->
<g id="node44" class="node">
<title>43</title>
<path fill="none" stroke="#56d89a" stroke-width="2" d="M535.83,-108C535.83,-108 499.83,-108 499.83,-108 493.83,-108 487.83,-102 487.83,-96 487.83,-96 487.83,-84 487.83,-84 487.83,-78 493.83,-72 499.83,-72 499.83,-72 535.83,-72 535.83,-72 541.83,-72 547.83,-78 547.83,-84 547.83,-84 547.83,-96 547.83,-96 547.83,-102 541.83,-108 535.83,-108"/>
<text text-anchor="middle" x="517.83" y="-87.5" font-family="sans" font-size="10.00">visualize</text>
</g>
<!-- 1&#45;&gt;43 -->
<g id="edge59" class="edge">
<title>1&#45;&gt;43</title>
<path fill="none" stroke="grey" stroke-width="2" d="M603.18,-143.88C588.41,-134.72 570.04,-123.34 554.12,-113.48"/>
<polygon fill="grey" stroke="grey" stroke-width="2" points="555.92,-110.48 545.58,-108.19 552.23,-116.43 555.92,-110.48"/>
</g>
<!-- 44 -->
<g id="node45" class="node">
<title>44</title>
<path fill="none" stroke="#56b1d8" stroke-width="2" d="M645.83,-108C645.83,-108 615.83,-108 615.83,-108 609.83,-108 603.83,-102 603.83,-96 603.83,-96 603.83,-84 603.83,-84 603.83,-78 609.83,-72 615.83,-72 615.83,-72 645.83,-72 645.83,-72 651.83,-72 657.83,-78 657.83,-84 657.83,-84 657.83,-96 657.83,-96 657.83,-102 651.83,-108 645.83,-108"/>
<text text-anchor="middle" x="630.83" y="-87.5" font-family="sans" font-size="10.00">dag</text>
</g>
<!-- 1&#45;&gt;44 -->
<g id="edge62" class="edge">
<title>1&#45;&gt;44</title>
<path fill="none" stroke="grey" stroke-width="2" d="M630.83,-143.7C630.83,-135.98 630.83,-126.71 630.83,-118.11"/>
<polygon fill="grey" stroke="grey" stroke-width="2" points="634.33,-118.1 630.83,-108.1 627.33,-118.1 634.33,-118.1"/>
</g>
<!-- 45 -->
<g id="node46" class="node">
<title>45</title>
<path fill="none" stroke="#9fd856" stroke-width="2" d="M727.33,-108C727.33,-108 688.33,-108 688.33,-108 682.33,-108 676.33,-102 676.33,-96 676.33,-96 676.33,-84 676.33,-84 676.33,-78 682.33,-72 688.33,-72 688.33,-72 727.33,-72 727.33,-72 733.33,-72 739.33,-78 739.33,-84 739.33,-84 739.33,-96 739.33,-96 739.33,-102 733.33,-108 727.33,-108"/>
<text text-anchor="middle" x="707.83" y="-87.5" font-family="sans" font-size="10.00">rulegraph</text>
</g>
<!-- 1&#45;&gt;45 -->
<g id="edge63" class="edge">
<title>1&#45;&gt;45</title>
<path fill="none" stroke="grey" stroke-width="2" d="M649.86,-143.7C659.37,-135.05 671.03,-124.45 681.4,-115.03"/>
<polygon fill="grey" stroke="grey" stroke-width="2" points="683.97,-117.42 689.01,-108.1 679.26,-112.24 683.97,-117.42"/>
</g>
<!-- 46 -->
<g id="node47" class="node">
<title>46</title>
<path fill="none" stroke="#d88556" stroke-width="2" d="M804.33,-108C804.33,-108 769.33,-108 769.33,-108 763.33,-108 757.33,-102 757.33,-96 757.33,-96 757.33,-84 757.33,-84 757.33,-78 763.33,-72 769.33,-72 769.33,-72 804.33,-72 804.33,-72 810.33,-72 816.33,-78 816.33,-84 816.33,-84 816.33,-96 816.33,-96 816.33,-102 810.33,-108 804.33,-108"/>
<text text-anchor="middle" x="786.83" y="-87.5" font-family="sans" font-size="10.00">filegraph</text>
</g>
<!-- 1&#45;&gt;46 -->
<g id="edge64" class="edge">
<title>1&#45;&gt;46</title>
<path fill="none" stroke="grey" stroke-width="2" d="M668.99,-143.88C692.88,-133.16 723.58,-119.38 747.66,-108.57"/>
<polygon fill="grey" stroke="grey" stroke-width="2" points="749.18,-111.73 756.87,-104.44 746.31,-105.34 749.18,-111.73"/>
</g>
<!-- 2 -->
<g id="node3" class="node">
<title>2</title>
<path fill="none" stroke="#d8b456" stroke-width="2" d="M680.33,-252C680.33,-252 581.33,-252 581.33,-252 575.33,-252 569.33,-246 569.33,-240 569.33,-240 569.33,-228 569.33,-228 569.33,-222 575.33,-216 581.33,-216 581.33,-216 680.33,-216 680.33,-216 686.33,-216 692.33,-222 692.33,-228 692.33,-228 692.33,-240 692.33,-240 692.33,-246 686.33,-252 680.33,-252"/>
<text text-anchor="middle" x="630.83" y="-231.5" font-family="sans" font-size="10.00">concatenate_catalogs</text>
</g>
<!-- 2&#45;&gt;1 -->
<g id="edge6" class="edge">
<title>2&#45;&gt;1</title>
<path fill="none" stroke="grey" stroke-width="2" d="M630.83,-215.7C630.83,-207.98 630.83,-198.71 630.83,-190.11"/>
<polygon fill="grey" stroke="grey" stroke-width="2" points="634.33,-190.1 630.83,-180.1 627.33,-190.1 634.33,-190.1"/>
</g>
<!-- 2&#45;&gt;43 -->
<g id="edge60" class="edge">
<title>2&#45;&gt;43</title>
<path fill="none" stroke="grey" stroke-width="2" d="M613.94,-215.82C604.22,-205.67 591.97,-192.42 581.83,-180 564.96,-159.35 547.39,-134.65 534.94,-116.52"/>
<polygon fill="grey" stroke="grey" stroke-width="2" points="537.78,-114.48 529.26,-108.19 532,-118.42 537.78,-114.48"/>
</g>
<!-- 3 -->
<g id="node4" class="node">
<title>3</title>
<path fill="none" stroke="#56d86b" stroke-width="2" d="M1290.33,-324C1290.33,-324 1253.33,-324 1253.33,-324 1247.33,-324 1241.33,-318 1241.33,-312 1241.33,-312 1241.33,-300 1241.33,-300 1241.33,-294 1247.33,-288 1253.33,-288 1253.33,-288 1290.33,-288 1290.33,-288 1296.33,-288 1302.33,-294 1302.33,-300 1302.33,-300 1302.33,-312 1302.33,-312 1302.33,-318 1296.33,-324 1290.33,-324"/>
<text text-anchor="middle" x="1271.83" y="-303.5" font-family="sans" font-size="10.00">sofia2cat</text>
</g>
<!-- 3&#45;&gt;2 -->
<g id="edge7" class="edge">
<title>3&#45;&gt;2</title>
<path fill="none" stroke="grey" stroke-width="2" d="M1241.27,-296.68C1228.81,-293.55 1214.21,-290.21 1200.83,-288 1022.96,-258.59 810.97,-244.25 702.52,-238.39"/>
<polygon fill="grey" stroke="grey" stroke-width="2" points="702.52,-234.88 692.35,-237.85 702.15,-241.87 702.52,-234.88"/>
</g>
<!-- 4 -->
<g id="node5" class="node">
<title>4</title>
<path fill="none" stroke="#56d8c9" stroke-width="2" d="M1301.33,-396C1301.33,-396 1264.33,-396 1264.33,-396 1258.33,-396 1252.33,-390 1252.33,-384 1252.33,-384 1252.33,-372 1252.33,-372 1252.33,-366 1258.33,-360 1264.33,-360 1264.33,-360 1301.33,-360 1301.33,-360 1307.33,-360 1313.33,-366 1313.33,-372 1313.33,-372 1313.33,-384 1313.33,-384 1313.33,-390 1307.33,-396 1301.33,-396"/>
<text text-anchor="middle" x="1282.83" y="-375.5" font-family="sans" font-size="10.00">run_sofia</text>
</g>
<!-- 4&#45;&gt;3 -->
<g id="edge20" class="edge">
<title>4&#45;&gt;3</title>
<path fill="none" stroke="grey" stroke-width="2" d="M1280.11,-359.7C1278.9,-351.98 1277.44,-342.71 1276.09,-334.11"/>
<polygon fill="grey" stroke="grey" stroke-width="2" points="1279.52,-333.44 1274.51,-324.1 1272.61,-334.53 1279.52,-333.44"/>
</g>
<!-- 5 -->
<g id="node6" class="node">
<title>5</title>
<path fill="none" stroke="#d85656" stroke-width="2" d="M1314.33,-468C1314.33,-468 1255.33,-468 1255.33,-468 1249.33,-468 1243.33,-462 1243.33,-456 1243.33,-456 1243.33,-444 1243.33,-444 1243.33,-438 1249.33,-432 1255.33,-432 1255.33,-432 1314.33,-432 1314.33,-432 1320.33,-432 1326.33,-438 1326.33,-444 1326.33,-444 1326.33,-456 1326.33,-456 1326.33,-462 1320.33,-468 1314.33,-468"/>
<text text-anchor="middle" x="1284.83" y="-453" font-family="sans" font-size="10.00">split_subcube</text>
<text text-anchor="middle" x="1284.83" y="-442" font-family="sans" font-size="10.00">idx: 0</text>
</g>
<!-- 5&#45;&gt;4 -->
<g id="edge21" class="edge">
<title>5&#45;&gt;4</title>
<path fill="none" stroke="grey" stroke-width="2" d="M1284.33,-431.7C1284.11,-423.98 1283.85,-414.71 1283.6,-406.11"/>
<polygon fill="grey" stroke="grey" stroke-width="2" points="1287.1,-406 1283.31,-396.1 1280.1,-406.2 1287.1,-406"/>
</g>
<!-- 6 -->
<g id="node7" class="node">
<title>6</title>
<path fill="none" stroke="#5682d8" stroke-width="2" d="M658.83,-540C658.83,-540 596.83,-540 596.83,-540 590.83,-540 584.83,-534 584.83,-528 584.83,-528 584.83,-516 584.83,-516 584.83,-510 590.83,-504 596.83,-504 596.83,-504 658.83,-504 658.83,-504 664.83,-504 670.83,-510 670.83,-516 670.83,-516 670.83,-528 670.83,-528 670.83,-534 664.83,-540 658.83,-540"/>
<text text-anchor="middle" x="627.83" y="-519.5" font-family="sans" font-size="10.00">define_chunks</text>
</g>
<!-- 6&#45;&gt;5 -->
<g id="edge22" class="edge">
<title>6&#45;&gt;5</title>
<path fill="none" stroke="grey" stroke-width="2" d="M671.03,-520.78C769.71,-519.51 1019.06,-512.02 1233.43,-468.01"/>
<polygon fill="grey" stroke="grey" stroke-width="2" points="1234.22,-471.42 1243.29,-465.96 1232.79,-464.57 1234.22,-471.42"/>
</g>
<!-- 9 -->
<g id="node10" class="node">
<title>9</title>
<path fill="none" stroke="#d85656" stroke-width="2" d="M102.33,-468C102.33,-468 43.33,-468 43.33,-468 37.33,-468 31.33,-462 31.33,-456 31.33,-456 31.33,-444 31.33,-444 31.33,-438 37.33,-432 43.33,-432 43.33,-432 102.33,-432 102.33,-432 108.33,-432 114.33,-438 114.33,-444 114.33,-444 114.33,-456 114.33,-456 114.33,-462 108.33,-468 102.33,-468"/>
<text text-anchor="middle" x="72.83" y="-453" font-family="sans" font-size="10.00">split_subcube</text>
<text text-anchor="middle" x="72.83" y="-442" font-family="sans" font-size="10.00">idx: 1</text>
</g>
<!-- 6&#45;&gt;9 -->
<g id="edge25" class="edge">
<title>6&#45;&gt;9</title>
<path fill="none" stroke="grey" stroke-width="2" d="M584.75,-519.71C498.53,-516.44 298.75,-505.38 124.24,-468.05"/>
<polygon fill="grey" stroke="grey" stroke-width="2" points="124.89,-464.6 114.37,-465.9 123.4,-471.44 124.89,-464.6"/>
</g>
<!-- 12 -->
<g id="node13" class="node">
<title>12</title>
<path fill="none" stroke="#d85656" stroke-width="2" d="M203.33,-468C203.33,-468 144.33,-468 144.33,-468 138.33,-468 132.33,-462 132.33,-456 132.33,-456 132.33,-444 132.33,-444 132.33,-438 138.33,-432 144.33,-432 144.33,-432 203.33,-432 203.33,-432 209.33,-432 215.33,-438 215.33,-444 215.33,-444 215.33,-456 215.33,-456 215.33,-462 209.33,-468 203.33,-468"/>
<text text-anchor="middle" x="173.83" y="-453" font-family="sans" font-size="10.00">split_subcube</text>
<text text-anchor="middle" x="173.83" y="-442" font-family="sans" font-size="10.00">idx: 2</text>
</g>
<!-- 6&#45;&gt;12 -->
<g id="edge28" class="edge">
<title>6&#45;&gt;12</title>
<path fill="none" stroke="grey" stroke-width="2" d="M584.57,-518.14C511.91,-512.72 360.78,-498.86 225.51,-468.15"/>
<polygon fill="grey" stroke="grey" stroke-width="2" points="225.92,-464.66 215.39,-465.82 224.35,-471.48 225.92,-464.66"/>
</g>
<!-- 15 -->
<g id="node16" class="node">
<title>15</title>
<path fill="none" stroke="#d85656" stroke-width="2" d="M304.33,-468C304.33,-468 245.33,-468 245.33,-468 239.33,-468 233.33,-462 233.33,-456 233.33,-456 233.33,-444 233.33,-444 233.33,-438 239.33,-432 245.33,-432 245.33,-432 304.33,-432 304.33,-432 310.33,-432 316.33,-438 316.33,-444 316.33,-444 316.33,-456 316.33,-456 316.33,-462 310.33,-468 304.33,-468"/>
<text text-anchor="middle" x="274.83" y="-453" font-family="sans" font-size="10.00">split_subcube</text>
<text text-anchor="middle" x="274.83" y="-442" font-family="sans" font-size="10.00">idx: 3</text>
</g>
<!-- 6&#45;&gt;15 -->
<g id="edge31" class="edge">
<title>6&#45;&gt;15</title>
<path fill="none" stroke="grey" stroke-width="2" d="M584.73,-515.6C527.54,-507.96 423.35,-492.44 326.39,-468.21"/>
<polygon fill="grey" stroke="grey" stroke-width="2" points="326.98,-464.75 316.42,-465.68 325.26,-471.53 326.98,-464.75"/>
</g>
<!-- 18 -->
<g id="node19" class="node">
<title>18</title>
<path fill="none" stroke="#d85656" stroke-width="2" d="M405.33,-468C405.33,-468 346.33,-468 346.33,-468 340.33,-468 334.33,-462 334.33,-456 334.33,-456 334.33,-444 334.33,-444 334.33,-438 340.33,-432 346.33,-432 346.33,-432 405.33,-432 405.33,-432 411.33,-432 417.33,-438 417.33,-444 417.33,-444 417.33,-456 417.33,-456 417.33,-462 411.33,-468 405.33,-468"/>
<text text-anchor="middle" x="375.83" y="-453" font-family="sans" font-size="10.00">split_subcube</text>
<text text-anchor="middle" x="375.83" y="-442" font-family="sans" font-size="10.00">idx: 7</text>
</g>
<!-- 6&#45;&gt;18 -->
<g id="edge34" class="edge">
<title>6&#45;&gt;18</title>
<path fill="none" stroke="grey" stroke-width="2" d="M584.63,-510.61C545.72,-501.04 486.79,-486.03 427.41,-468.39"/>
<polygon fill="grey" stroke="grey" stroke-width="2" points="428.08,-464.93 417.5,-465.42 426.07,-471.64 428.08,-464.93"/>
</g>
<!-- 21 -->
<g id="node22" class="node">
<title>21</title>
<path fill="none" stroke="#d85656" stroke-width="2" d="M506.33,-468C506.33,-468 447.33,-468 447.33,-468 441.33,-468 435.33,-462 435.33,-456 435.33,-456 435.33,-444 435.33,-444 435.33,-438 441.33,-432 447.33,-432 447.33,-432 506.33,-432 506.33,-432 512.33,-432 518.33,-438 518.33,-444 518.33,-444 518.33,-456 518.33,-456 518.33,-462 512.33,-468 506.33,-468"/>
<text text-anchor="middle" x="476.83" y="-453" font-family="sans" font-size="10.00">split_subcube</text>
<text text-anchor="middle" x="476.83" y="-442" font-family="sans" font-size="10.00">idx: 8</text>
</g>
<!-- 6&#45;&gt;21 -->
<g id="edge37" class="edge">
<title>6&#45;&gt;21</title>
<path fill="none" stroke="grey" stroke-width="2" d="M590.89,-503.88C570.34,-494.35 544.58,-482.41 522.74,-472.28"/>
<polygon fill="grey" stroke="grey" stroke-width="2" points="524.19,-469.1 513.65,-468.07 521.25,-475.45 524.19,-469.1"/>
</g>
<!-- 24 -->
<g id="node25" class="node">
<title>24</title>
<path fill="none" stroke="#d85656" stroke-width="2" d="M607.33,-468C607.33,-468 548.33,-468 548.33,-468 542.33,-468 536.33,-462 536.33,-456 536.33,-456 536.33,-444 536.33,-444 536.33,-438 542.33,-432 548.33,-432 548.33,-432 607.33,-432 607.33,-432 613.33,-432 619.33,-438 619.33,-444 619.33,-444 619.33,-456 619.33,-456 619.33,-462 613.33,-468 607.33,-468"/>
<text text-anchor="middle" x="577.83" y="-453" font-family="sans" font-size="10.00">split_subcube</text>
<text text-anchor="middle" x="577.83" y="-442" font-family="sans" font-size="10.00">idx: 9</text>
</g>
<!-- 6&#45;&gt;24 -->
<g id="edge40" class="edge">
<title>6&#45;&gt;24</title>
<path fill="none" stroke="grey" stroke-width="2" d="M615.47,-503.7C609.59,-495.47 602.46,-485.48 595.98,-476.42"/>
<polygon fill="grey" stroke="grey" stroke-width="2" points="598.7,-474.21 590.04,-468.1 593.01,-478.28 598.7,-474.21"/>
</g>
<!-- 27 -->
<g id="node28" class="node">
<title>27</title>
<path fill="none" stroke="#d85656" stroke-width="2" d="M708.33,-468C708.33,-468 649.33,-468 649.33,-468 643.33,-468 637.33,-462 637.33,-456 637.33,-456 637.33,-444 637.33,-444 637.33,-438 643.33,-432 649.33,-432 649.33,-432 708.33,-432 708.33,-432 714.33,-432 720.33,-438 720.33,-444 720.33,-444 720.33,-456 720.33,-456 720.33,-462 714.33,-468 708.33,-468"/>
<text text-anchor="middle" x="678.83" y="-453" font-family="sans" font-size="10.00">split_subcube</text>
<text text-anchor="middle" x="678.83" y="-442" font-family="sans" font-size="10.00">idx: 10</text>
</g>
<!-- 6&#45;&gt;27 -->
<g id="edge43" class="edge">
<title>6&#45;&gt;27</title>
<path fill="none" stroke="grey" stroke-width="2" d="M640.43,-503.7C646.42,-495.47 653.7,-485.48 660.31,-476.42"/>
<polygon fill="grey" stroke="grey" stroke-width="2" points="663.3,-478.25 666.36,-468.1 657.65,-474.13 663.3,-478.25"/>
</g>
<!-- 30 -->
<g id="node31" class="node">
<title>30</title>
<path fill="none" stroke="#d85656" stroke-width="2" d="M809.33,-468C809.33,-468 750.33,-468 750.33,-468 744.33,-468 738.33,-462 738.33,-456 738.33,-456 738.33,-444 738.33,-444 738.33,-438 744.33,-432 750.33,-432 750.33,-432 809.33,-432 809.33,-432 815.33,-432 821.33,-438 821.33,-444 821.33,-444 821.33,-456 821.33,-456 821.33,-462 815.33,-468 809.33,-468"/>
<text text-anchor="middle" x="779.83" y="-453" font-family="sans" font-size="10.00">split_subcube</text>
<text text-anchor="middle" x="779.83" y="-442" font-family="sans" font-size="10.00">idx: 11</text>
</g>
<!-- 6&#45;&gt;30 -->
<g id="edge46" class="edge">
<title>6&#45;&gt;30</title>
<path fill="none" stroke="grey" stroke-width="2" d="M665.01,-503.88C685.7,-494.35 711.63,-482.41 733.61,-472.28"/>
<polygon fill="grey" stroke="grey" stroke-width="2" points="735.14,-475.43 742.76,-468.07 732.22,-469.07 735.14,-475.43"/>
</g>
<!-- 33 -->
<g id="node34" class="node">
<title>33</title>
<path fill="none" stroke="#d85656" stroke-width="2" d="M910.33,-468C910.33,-468 851.33,-468 851.33,-468 845.33,-468 839.33,-462 839.33,-456 839.33,-456 839.33,-444 839.33,-444 839.33,-438 845.33,-432 851.33,-432 851.33,-432 910.33,-432 910.33,-432 916.33,-432 922.33,-438 922.33,-444 922.33,-444 922.33,-456 922.33,-456 922.33,-462 916.33,-468 910.33,-468"/>
<text text-anchor="middle" x="880.83" y="-453" font-family="sans" font-size="10.00">split_subcube</text>
<text text-anchor="middle" x="880.83" y="-442" font-family="sans" font-size="10.00">idx: 12</text>
</g>
<!-- 6&#45;&gt;33 -->
<g id="edge49" class="edge">
<title>6&#45;&gt;33</title>
<path fill="none" stroke="grey" stroke-width="2" d="M670.85,-510.73C710.02,-501.16 769.62,-486.07 829.54,-468.29"/>
<polygon fill="grey" stroke="grey" stroke-width="2" points="830.58,-471.64 839.16,-465.42 828.57,-464.93 830.58,-471.64"/>
</g>
<!-- 36 -->
<g id="node37" class="node">
<title>36</title>
<path fill="none" stroke="#d85656" stroke-width="2" d="M1011.33,-468C1011.33,-468 952.33,-468 952.33,-468 946.33,-468 940.33,-462 940.33,-456 940.33,-456 940.33,-444 940.33,-444 940.33,-438 946.33,-432 952.33,-432 952.33,-432 1011.33,-432 1011.33,-432 1017.33,-432 1023.33,-438 1023.33,-444 1023.33,-444 1023.33,-456 1023.33,-456 1023.33,-462 1017.33,-468 1011.33,-468"/>
<text text-anchor="middle" x="981.83" y="-453" font-family="sans" font-size="10.00">split_subcube</text>
<text text-anchor="middle" x="981.83" y="-442" font-family="sans" font-size="10.00">idx: 13</text>
</g>
<!-- 6&#45;&gt;36 -->
<g id="edge52" class="edge">
<title>6&#45;&gt;36</title>
<path fill="none" stroke="grey" stroke-width="2" d="M671.06,-515.61C728.51,-507.99 833.19,-492.45 930.53,-468.14"/>
<polygon fill="grey" stroke="grey" stroke-width="2" points="931.4,-471.53 940.23,-465.68 929.68,-464.75 931.4,-471.53"/>
</g>
<!-- 39 -->
<g id="node40" class="node">
<title>39</title>
<path fill="none" stroke="#d85656" stroke-width="2" d="M1112.33,-468C1112.33,-468 1053.33,-468 1053.33,-468 1047.33,-468 1041.33,-462 1041.33,-456 1041.33,-456 1041.33,-444 1041.33,-444 1041.33,-438 1047.33,-432 1053.33,-432 1053.33,-432 1112.33,-432 1112.33,-432 1118.33,-432 1124.33,-438 1124.33,-444 1124.33,-444 1124.33,-456 1124.33,-456 1124.33,-462 1118.33,-468 1112.33,-468"/>
<text text-anchor="middle" x="1082.83" y="-453" font-family="sans" font-size="10.00">split_subcube</text>
<text text-anchor="middle" x="1082.83" y="-442" font-family="sans" font-size="10.00">idx: 14</text>
</g>
<!-- 6&#45;&gt;39 -->
<g id="edge55" class="edge">
<title>6&#45;&gt;39</title>
<path fill="none" stroke="grey" stroke-width="2" d="M670.89,-518.17C743.68,-512.78 895.65,-498.92 1031.51,-468.07"/>
<polygon fill="grey" stroke="grey" stroke-width="2" points="1032.31,-471.48 1041.26,-465.82 1030.73,-464.66 1032.31,-471.48"/>
</g>
<!-- 42 -->
<g id="node43" class="node">
<title>42</title>
<path fill="none" stroke="#d85656" stroke-width="2" d="M1213.33,-468C1213.33,-468 1154.33,-468 1154.33,-468 1148.33,-468 1142.33,-462 1142.33,-456 1142.33,-456 1142.33,-444 1142.33,-444 1142.33,-438 1148.33,-432 1154.33,-432 1154.33,-432 1213.33,-432 1213.33,-432 1219.33,-432 1225.33,-438 1225.33,-444 1225.33,-444 1225.33,-456 1225.33,-456 1225.33,-462 1219.33,-468 1213.33,-468"/>
<text text-anchor="middle" x="1183.83" y="-453" font-family="sans" font-size="10.00">split_subcube</text>
<text text-anchor="middle" x="1183.83" y="-442" font-family="sans" font-size="10.00">idx: 15</text>
</g>
<!-- 6&#45;&gt;42 -->
<g id="edge58" class="edge">
<title>6&#45;&gt;42</title>
<path fill="none" stroke="grey" stroke-width="2" d="M670.99,-519.72C757.38,-516.47 957.55,-505.44 1132.39,-468.05"/>
<polygon fill="grey" stroke="grey" stroke-width="2" points="1133.25,-471.44 1142.28,-465.9 1131.77,-464.6 1133.25,-471.44"/>
</g>
<!-- 6&#45;&gt;43 -->
<g id="edge61" class="edge">
<title>6&#45;&gt;43</title>
<path fill="none" stroke="grey" stroke-width="2" d="M584.46,-520.14C452.75,-517.12 63.81,-505.11 21.83,-468 -8.48,-441.21 2.83,-419.45 2.83,-379 2.83,-379 2.83,-379 2.83,-233 2.83,-134.66 356.24,-101.8 477.53,-93.42"/>
<polygon fill="grey" stroke="grey" stroke-width="2" points="477.79,-96.91 487.53,-92.75 477.32,-89.93 477.79,-96.91"/>
</g>
<!-- 7 -->
<g id="node8" class="node">
<title>7</title>
<path fill="none" stroke="#56d86b" stroke-width="2" d="M115.33,-324C115.33,-324 78.33,-324 78.33,-324 72.33,-324 66.33,-318 66.33,-312 66.33,-312 66.33,-300 66.33,-300 66.33,-294 72.33,-288 78.33,-288 78.33,-288 115.33,-288 115.33,-288 121.33,-288 127.33,-294 127.33,-300 127.33,-300 127.33,-312 127.33,-312 127.33,-318 121.33,-324 115.33,-324"/>
<text text-anchor="middle" x="96.83" y="-303.5" font-family="sans" font-size="10.00">sofia2cat</text>
</g>
<!-- 7&#45;&gt;2 -->
<g id="edge8" class="edge">
<title>7&#45;&gt;2</title>
<path fill="none" stroke="grey" stroke-width="2" d="M127.55,-293.59C134.16,-291.47 141.17,-289.46 147.83,-288 291.74,-256.49 464.07,-243.31 559.08,-238.11"/>
<polygon fill="grey" stroke="grey" stroke-width="2" points="559.36,-241.6 569.15,-237.57 558.98,-234.61 559.36,-241.6"/>
</g>
<!-- 8 -->
<g id="node9" class="node">
<title>8</title>
<path fill="none" stroke="#56d8c9" stroke-width="2" d="M99.33,-396C99.33,-396 62.33,-396 62.33,-396 56.33,-396 50.33,-390 50.33,-384 50.33,-384 50.33,-372 50.33,-372 50.33,-366 56.33,-360 62.33,-360 62.33,-360 99.33,-360 99.33,-360 105.33,-360 111.33,-366 111.33,-372 111.33,-372 111.33,-384 111.33,-384 111.33,-390 105.33,-396 99.33,-396"/>
<text text-anchor="middle" x="80.83" y="-375.5" font-family="sans" font-size="10.00">run_sofia</text>
</g>
<!-- 8&#45;&gt;7 -->
<g id="edge23" class="edge">
<title>8&#45;&gt;7</title>
<path fill="none" stroke="grey" stroke-width="2" d="M84.78,-359.7C86.54,-351.98 88.66,-342.71 90.63,-334.11"/>
<polygon fill="grey" stroke="grey" stroke-width="2" points="94.1,-334.63 92.92,-324.1 87.28,-333.07 94.1,-334.63"/>
</g>
<!-- 9&#45;&gt;8 -->
<g id="edge24" class="edge">
<title>9&#45;&gt;8</title>
<path fill="none" stroke="grey" stroke-width="2" d="M74.8,-431.7C75.69,-423.98 76.74,-414.71 77.73,-406.11"/>
<polygon fill="grey" stroke="grey" stroke-width="2" points="81.21,-406.44 78.87,-396.1 74.26,-405.64 81.21,-406.44"/>
</g>
<!-- 10 -->
<g id="node11" class="node">
<title>10</title>
<path fill="none" stroke="#56d86b" stroke-width="2" d="M206.33,-324C206.33,-324 169.33,-324 169.33,-324 163.33,-324 157.33,-318 157.33,-312 157.33,-312 157.33,-300 157.33,-300 157.33,-294 163.33,-288 169.33,-288 169.33,-288 206.33,-288 206.33,-288 212.33,-288 218.33,-294 218.33,-300 218.33,-300 218.33,-312 218.33,-312 218.33,-318 212.33,-324 206.33,-324"/>
<text text-anchor="middle" x="187.83" y="-303.5" font-family="sans" font-size="10.00">sofia2cat</text>
</g>
<!-- 10&#45;&gt;2 -->
<g id="edge9" class="edge">
<title>10&#45;&gt;2</title>
<path fill="none" stroke="grey" stroke-width="2" d="M218.49,-298.29C234.12,-294.98 253.44,-291.06 270.83,-288 370.51,-270.47 486.42,-254.12 559.21,-244.34"/>
<polygon fill="grey" stroke="grey" stroke-width="2" points="559.74,-247.8 569.19,-243.01 558.81,-240.87 559.74,-247.8"/>
</g>
<!-- 11 -->
<g id="node12" class="node">
<title>11</title>
<path fill="none" stroke="#56d8c9" stroke-width="2" d="M197.33,-396C197.33,-396 160.33,-396 160.33,-396 154.33,-396 148.33,-390 148.33,-384 148.33,-384 148.33,-372 148.33,-372 148.33,-366 154.33,-360 160.33,-360 160.33,-360 197.33,-360 197.33,-360 203.33,-360 209.33,-366 209.33,-372 209.33,-372 209.33,-384 209.33,-384 209.33,-390 203.33,-396 197.33,-396"/>
<text text-anchor="middle" x="178.83" y="-375.5" font-family="sans" font-size="10.00">run_sofia</text>
</g>
<!-- 11&#45;&gt;10 -->
<g id="edge26" class="edge">
<title>11&#45;&gt;10</title>
<path fill="none" stroke="grey" stroke-width="2" d="M181.05,-359.7C182.04,-351.98 183.23,-342.71 184.34,-334.11"/>
<polygon fill="grey" stroke="grey" stroke-width="2" points="187.82,-334.47 185.63,-324.1 180.88,-333.58 187.82,-334.47"/>
</g>
<!-- 12&#45;&gt;11 -->
<g id="edge27" class="edge">
<title>12&#45;&gt;11</title>
<path fill="none" stroke="grey" stroke-width="2" d="M175.06,-431.7C175.61,-423.98 176.28,-414.71 176.89,-406.11"/>
<polygon fill="grey" stroke="grey" stroke-width="2" points="180.38,-406.33 177.6,-396.1 173.4,-405.83 180.38,-406.33"/>
</g>
<!-- 13 -->
<g id="node14" class="node">
<title>13</title>
<path fill="none" stroke="#56d86b" stroke-width="2" d="M329.33,-324C329.33,-324 292.33,-324 292.33,-324 286.33,-324 280.33,-318 280.33,-312 280.33,-312 280.33,-300 280.33,-300 280.33,-294 286.33,-288 292.33,-288 292.33,-288 329.33,-288 329.33,-288 335.33,-288 341.33,-294 341.33,-300 341.33,-300 341.33,-312 341.33,-312 341.33,-318 335.33,-324 329.33,-324"/>
<text text-anchor="middle" x="310.83" y="-303.5" font-family="sans" font-size="10.00">sofia2cat</text>
</g>
<!-- 13&#45;&gt;2 -->
<g id="edge10" class="edge">
<title>13&#45;&gt;2</title>
<path fill="none" stroke="grey" stroke-width="2" d="M341.44,-296.02C351.12,-293.3 361.89,-290.4 371.83,-288 434.8,-272.8 507.07,-258.25 559.24,-248.25"/>
<polygon fill="grey" stroke="grey" stroke-width="2" points="559.9,-251.69 569.07,-246.38 558.59,-244.81 559.9,-251.69"/>
</g>
<!-- 14 -->
<g id="node15" class="node">
<title>14</title>
<path fill="none" stroke="#56d8c9" stroke-width="2" d="M304.33,-396C304.33,-396 267.33,-396 267.33,-396 261.33,-396 255.33,-390 255.33,-384 255.33,-384 255.33,-372 255.33,-372 255.33,-366 261.33,-360 267.33,-360 267.33,-360 304.33,-360 304.33,-360 310.33,-360 316.33,-366 316.33,-372 316.33,-372 316.33,-384 316.33,-384 316.33,-390 310.33,-396 304.33,-396"/>
<text text-anchor="middle" x="285.83" y="-375.5" font-family="sans" font-size="10.00">run_sofia</text>
</g>
<!-- 14&#45;&gt;13 -->
<g id="edge29" class="edge">
<title>14&#45;&gt;13</title>
<path fill="none" stroke="grey" stroke-width="2" d="M292.01,-359.7C294.82,-351.81 298.22,-342.3 301.35,-333.55"/>
<polygon fill="grey" stroke="grey" stroke-width="2" points="304.65,-334.7 304.72,-324.1 298.06,-332.34 304.65,-334.7"/>
</g>
<!-- 15&#45;&gt;14 -->
<g id="edge30" class="edge">
<title>15&#45;&gt;14</title>
<path fill="none" stroke="grey" stroke-width="2" d="M277.55,-431.7C278.76,-423.98 280.21,-414.71 281.57,-406.11"/>
<polygon fill="grey" stroke="grey" stroke-width="2" points="285.04,-406.53 283.14,-396.1 278.13,-405.44 285.04,-406.53"/>
</g>
<!-- 16 -->
<g id="node17" class="node">
<title>16</title>
<path fill="none" stroke="#56d86b" stroke-width="2" d="M430.33,-324C430.33,-324 393.33,-324 393.33,-324 387.33,-324 381.33,-318 381.33,-312 381.33,-312 381.33,-300 381.33,-300 381.33,-294 387.33,-288 393.33,-288 393.33,-288 430.33,-288 430.33,-288 436.33,-288 442.33,-294 442.33,-300 442.33,-300 442.33,-312 442.33,-312 442.33,-318 436.33,-324 430.33,-324"/>
<text text-anchor="middle" x="411.83" y="-303.5" font-family="sans" font-size="10.00">sofia2cat</text>
</g>
<!-- 16&#45;&gt;2 -->
<g id="edge11" class="edge">
<title>16&#45;&gt;2</title>
<path fill="none" stroke="grey" stroke-width="2" d="M442.46,-294.46C448.85,-292.29 455.55,-290.05 461.83,-288 495.85,-276.88 533.87,-264.92 565.22,-255.17"/>
<polygon fill="grey" stroke="grey" stroke-width="2" points="566.64,-258.4 575.15,-252.09 564.57,-251.71 566.64,-258.4"/>
</g>
<!-- 17 -->
<g id="node18" class="node">
<title>17</title>
<path fill="none" stroke="#56d8c9" stroke-width="2" d="M405.33,-396C405.33,-396 368.33,-396 368.33,-396 362.33,-396 356.33,-390 356.33,-384 356.33,-384 356.33,-372 356.33,-372 356.33,-366 362.33,-360 368.33,-360 368.33,-360 405.33,-360 405.33,-360 411.33,-360 417.33,-366 417.33,-372 417.33,-372 417.33,-384 417.33,-384 417.33,-390 411.33,-396 405.33,-396"/>
<text text-anchor="middle" x="386.83" y="-375.5" font-family="sans" font-size="10.00">run_sofia</text>
</g>
<!-- 17&#45;&gt;16 -->
<g id="edge32" class="edge">
<title>17&#45;&gt;16</title>
<path fill="none" stroke="grey" stroke-width="2" d="M393.01,-359.7C395.82,-351.81 399.22,-342.3 402.35,-333.55"/>
<polygon fill="grey" stroke="grey" stroke-width="2" points="405.65,-334.7 405.72,-324.1 399.06,-332.34 405.65,-334.7"/>
</g>
<!-- 18&#45;&gt;17 -->
<g id="edge33" class="edge">
<title>18&#45;&gt;17</title>
<path fill="none" stroke="grey" stroke-width="2" d="M378.55,-431.7C379.76,-423.98 381.21,-414.71 382.57,-406.11"/>
<polygon fill="grey" stroke="grey" stroke-width="2" points="386.04,-406.53 384.14,-396.1 379.13,-405.44 386.04,-406.53"/>
</g>
<!-- 19 -->
<g id="node20" class="node">
<title>19</title>
<path fill="none" stroke="#56d86b" stroke-width="2" d="M520.33,-324C520.33,-324 483.33,-324 483.33,-324 477.33,-324 471.33,-318 471.33,-312 471.33,-312 471.33,-300 471.33,-300 471.33,-294 477.33,-288 483.33,-288 483.33,-288 520.33,-288 520.33,-288 526.33,-288 532.33,-294 532.33,-300 532.33,-300 532.33,-312 532.33,-312 532.33,-318 526.33,-324 520.33,-324"/>
<text text-anchor="middle" x="501.83" y="-303.5" font-family="sans" font-size="10.00">sofia2cat</text>
</g>
<!-- 19&#45;&gt;2 -->
<g id="edge12" class="edge">
<title>19&#45;&gt;2</title>
<path fill="none" stroke="grey" stroke-width="2" d="M532.4,-288.41C549.69,-279.03 571.52,-267.18 590.23,-257.03"/>
<polygon fill="grey" stroke="grey" stroke-width="2" points="592.01,-260.05 599.13,-252.2 588.67,-253.89 592.01,-260.05"/>
</g>
<!-- 20 -->
<g id="node21" class="node">
<title>20</title>
<path fill="none" stroke="#56d8c9" stroke-width="2" d="M506.33,-396C506.33,-396 469.33,-396 469.33,-396 463.33,-396 457.33,-390 457.33,-384 457.33,-384 457.33,-372 457.33,-372 457.33,-366 463.33,-360 469.33,-360 469.33,-360 506.33,-360 506.33,-360 512.33,-360 518.33,-366 518.33,-372 518.33,-372 518.33,-384 518.33,-384 518.33,-390 512.33,-396 506.33,-396"/>
<text text-anchor="middle" x="487.83" y="-375.5" font-family="sans" font-size="10.00">run_sofia</text>
</g>
<!-- 20&#45;&gt;19 -->
<g id="edge35" class="edge">
<title>20&#45;&gt;19</title>
<path fill="none" stroke="grey" stroke-width="2" d="M491.29,-359.7C492.83,-351.98 494.68,-342.71 496.4,-334.11"/>
<polygon fill="grey" stroke="grey" stroke-width="2" points="499.88,-334.6 498.41,-324.1 493.01,-333.22 499.88,-334.6"/>
</g>
<!-- 21&#45;&gt;20 -->
<g id="edge36" class="edge">
<title>21&#45;&gt;20</title>
<path fill="none" stroke="grey" stroke-width="2" d="M479.55,-431.7C480.76,-423.98 482.21,-414.71 483.57,-406.11"/>
<polygon fill="grey" stroke="grey" stroke-width="2" points="487.04,-406.53 485.14,-396.1 480.13,-405.44 487.04,-406.53"/>
</g>
<!-- 22 -->
<g id="node23" class="node">
<title>22</title>
<path fill="none" stroke="#56d86b" stroke-width="2" d="M604.33,-324C604.33,-324 567.33,-324 567.33,-324 561.33,-324 555.33,-318 555.33,-312 555.33,-312 555.33,-300 555.33,-300 555.33,-294 561.33,-288 567.33,-288 567.33,-288 604.33,-288 604.33,-288 610.33,-288 616.33,-294 616.33,-300 616.33,-300 616.33,-312 616.33,-312 616.33,-318 610.33,-324 604.33,-324"/>
<text text-anchor="middle" x="585.83" y="-303.5" font-family="sans" font-size="10.00">sofia2cat</text>
</g>
<!-- 22&#45;&gt;2 -->
<g id="edge13" class="edge">
<title>22&#45;&gt;2</title>
<path fill="none" stroke="grey" stroke-width="2" d="M596.95,-287.7C602.18,-279.56 608.53,-269.69 614.3,-260.7"/>
<polygon fill="grey" stroke="grey" stroke-width="2" points="617.37,-262.41 619.83,-252.1 611.48,-258.62 617.37,-262.41"/>
</g>
<!-- 23 -->
<g id="node24" class="node">
<title>23</title>
<path fill="none" stroke="#56d8c9" stroke-width="2" d="M599.33,-396C599.33,-396 562.33,-396 562.33,-396 556.33,-396 550.33,-390 550.33,-384 550.33,-384 550.33,-372 550.33,-372 550.33,-366 556.33,-360 562.33,-360 562.33,-360 599.33,-360 599.33,-360 605.33,-360 611.33,-366 611.33,-372 611.33,-372 611.33,-384 611.33,-384 611.33,-390 605.33,-396 599.33,-396"/>
<text text-anchor="middle" x="580.83" y="-375.5" font-family="sans" font-size="10.00">run_sofia</text>
</g>
<!-- 23&#45;&gt;22 -->
<g id="edge38" class="edge">
<title>23&#45;&gt;22</title>
<path fill="none" stroke="grey" stroke-width="2" d="M582.06,-359.7C582.61,-351.98 583.28,-342.71 583.89,-334.11"/>
<polygon fill="grey" stroke="grey" stroke-width="2" points="587.38,-334.33 584.6,-324.1 580.4,-333.83 587.38,-334.33"/>
</g>
<!-- 24&#45;&gt;23 -->
<g id="edge39" class="edge">
<title>24&#45;&gt;23</title>
<path fill="none" stroke="grey" stroke-width="2" d="M578.57,-431.7C578.9,-423.98 579.3,-414.71 579.66,-406.11"/>
<polygon fill="grey" stroke="grey" stroke-width="2" points="583.16,-406.25 580.09,-396.1 576.17,-405.95 583.16,-406.25"/>
</g>
<!-- 25 -->
<g id="node26" class="node">
<title>25</title>
<path fill="none" stroke="#56d86b" stroke-width="2" d="M694.33,-324C694.33,-324 657.33,-324 657.33,-324 651.33,-324 645.33,-318 645.33,-312 645.33,-312 645.33,-300 645.33,-300 645.33,-294 651.33,-288 657.33,-288 657.33,-288 694.33,-288 694.33,-288 700.33,-288 706.33,-294 706.33,-300 706.33,-300 706.33,-312 706.33,-312 706.33,-318 700.33,-324 694.33,-324"/>
<text text-anchor="middle" x="675.83" y="-303.5" font-family="sans" font-size="10.00">sofia2cat</text>
</g>
<!-- 25&#45;&gt;2 -->
<g id="edge14" class="edge">
<title>25&#45;&gt;2</title>
<path fill="none" stroke="grey" stroke-width="2" d="M664.7,-287.7C659.47,-279.56 653.13,-269.69 647.35,-260.7"/>
<polygon fill="grey" stroke="grey" stroke-width="2" points="650.17,-258.62 641.82,-252.1 644.29,-262.41 650.17,-258.62"/>
</g>
<!-- 26 -->
<g id="node27" class="node">
<title>26</title>
<path fill="none" stroke="#56d8c9" stroke-width="2" d="M695.33,-396C695.33,-396 658.33,-396 658.33,-396 652.33,-396 646.33,-390 646.33,-384 646.33,-384 646.33,-372 646.33,-372 646.33,-366 652.33,-360 658.33,-360 658.33,-360 695.33,-360 695.33,-360 701.33,-360 707.33,-366 707.33,-372 707.33,-372 707.33,-384 707.33,-384 707.33,-390 701.33,-396 695.33,-396"/>
<text text-anchor="middle" x="676.83" y="-375.5" font-family="sans" font-size="10.00">run_sofia</text>
</g>
<!-- 26&#45;&gt;25 -->
<g id="edge41" class="edge">
<title>26&#45;&gt;25</title>
<path fill="none" stroke="grey" stroke-width="2" d="M676.58,-359.7C676.47,-351.98 676.34,-342.71 676.21,-334.11"/>
<polygon fill="grey" stroke="grey" stroke-width="2" points="679.71,-334.05 676.07,-324.1 672.71,-334.15 679.71,-334.05"/>
</g>
<!-- 27&#45;&gt;26 -->
<g id="edge42" class="edge">
<title>27&#45;&gt;26</title>
<path fill="none" stroke="grey" stroke-width="2" d="M678.33,-431.7C678.11,-423.98 677.85,-414.71 677.6,-406.11"/>
<polygon fill="grey" stroke="grey" stroke-width="2" points="681.1,-406 677.31,-396.1 674.1,-406.2 681.1,-406"/>
</g>
<!-- 28 -->
<g id="node29" class="node">
<title>28</title>
<path fill="none" stroke="#56d86b" stroke-width="2" d="M785.33,-324C785.33,-324 748.33,-324 748.33,-324 742.33,-324 736.33,-318 736.33,-312 736.33,-312 736.33,-300 736.33,-300 736.33,-294 742.33,-288 748.33,-288 748.33,-288 785.33,-288 785.33,-288 791.33,-288 797.33,-294 797.33,-300 797.33,-300 797.33,-312 797.33,-312 797.33,-318 791.33,-324 785.33,-324"/>
<text text-anchor="middle" x="766.83" y="-303.5" font-family="sans" font-size="10.00">sofia2cat</text>
</g>
<!-- 28&#45;&gt;2 -->
<g id="edge15" class="edge">
<title>28&#45;&gt;2</title>
<path fill="none" stroke="grey" stroke-width="2" d="M736.31,-289.29C717.7,-279.71 693.64,-267.33 673.21,-256.81"/>
<polygon fill="grey" stroke="grey" stroke-width="2" points="674.6,-253.59 664.1,-252.13 671.39,-259.82 674.6,-253.59"/>
</g>
<!-- 29 -->
<g id="node30" class="node">
<title>29</title>
<path fill="none" stroke="#56d8c9" stroke-width="2" d="M796.33,-396C796.33,-396 759.33,-396 759.33,-396 753.33,-396 747.33,-390 747.33,-384 747.33,-384 747.33,-372 747.33,-372 747.33,-366 753.33,-360 759.33,-360 759.33,-360 796.33,-360 796.33,-360 802.33,-360 808.33,-366 808.33,-372 808.33,-372 808.33,-384 808.33,-384 808.33,-390 802.33,-396 796.33,-396"/>
<text text-anchor="middle" x="777.83" y="-375.5" font-family="sans" font-size="10.00">run_sofia</text>
</g>
<!-- 29&#45;&gt;28 -->
<g id="edge44" class="edge">
<title>29&#45;&gt;28</title>
<path fill="none" stroke="grey" stroke-width="2" d="M775.11,-359.7C773.9,-351.98 772.44,-342.71 771.09,-334.11"/>
<polygon fill="grey" stroke="grey" stroke-width="2" points="774.52,-333.44 769.51,-324.1 767.61,-334.53 774.52,-333.44"/>
</g>
<!-- 30&#45;&gt;29 -->
<g id="edge45" class="edge">
<title>30&#45;&gt;29</title>
<path fill="none" stroke="grey" stroke-width="2" d="M779.33,-431.7C779.11,-423.98 778.85,-414.71 778.6,-406.11"/>
<polygon fill="grey" stroke="grey" stroke-width="2" points="782.1,-406 778.31,-396.1 775.1,-406.2 782.1,-406"/>
</g>
<!-- 31 -->
<g id="node32" class="node">
<title>31</title>
<path fill="none" stroke="#56d86b" stroke-width="2" d="M881.33,-324C881.33,-324 844.33,-324 844.33,-324 838.33,-324 832.33,-318 832.33,-312 832.33,-312 832.33,-300 832.33,-300 832.33,-294 838.33,-288 844.33,-288 844.33,-288 881.33,-288 881.33,-288 887.33,-288 893.33,-294 893.33,-300 893.33,-300 893.33,-312 893.33,-312 893.33,-318 887.33,-324 881.33,-324"/>
<text text-anchor="middle" x="862.83" y="-303.5" font-family="sans" font-size="10.00">sofia2cat</text>
</g>
<!-- 31&#45;&gt;2 -->
<g id="edge16" class="edge">
<title>31&#45;&gt;2</title>
<path fill="none" stroke="grey" stroke-width="2" d="M832.31,-295.72C824.04,-293.21 815.09,-290.5 806.83,-288 770.7,-277.08 730.39,-264.94 697.47,-255.03"/>
<polygon fill="grey" stroke="grey" stroke-width="2" points="698.09,-251.56 687.51,-252.03 696.08,-258.27 698.09,-251.56"/>
</g>
<!-- 32 -->
<g id="node33" class="node">
<title>32</title>
<path fill="none" stroke="#56d8c9" stroke-width="2" d="M897.33,-396C897.33,-396 860.33,-396 860.33,-396 854.33,-396 848.33,-390 848.33,-384 848.33,-384 848.33,-372 848.33,-372 848.33,-366 854.33,-360 860.33,-360 860.33,-360 897.33,-360 897.33,-360 903.33,-360 909.33,-366 909.33,-372 909.33,-372 909.33,-384 909.33,-384 909.33,-390 903.33,-396 897.33,-396"/>
<text text-anchor="middle" x="878.83" y="-375.5" font-family="sans" font-size="10.00">run_sofia</text>
</g>
<!-- 32&#45;&gt;31 -->
<g id="edge47" class="edge">
<title>32&#45;&gt;31</title>
<path fill="none" stroke="grey" stroke-width="2" d="M874.87,-359.7C873.11,-351.98 870.99,-342.71 869.02,-334.11"/>
<polygon fill="grey" stroke="grey" stroke-width="2" points="872.38,-333.07 866.74,-324.1 865.55,-334.63 872.38,-333.07"/>
</g>
<!-- 33&#45;&gt;32 -->
<g id="edge48" class="edge">
<title>33&#45;&gt;32</title>
<path fill="none" stroke="grey" stroke-width="2" d="M880.33,-431.7C880.11,-423.98 879.85,-414.71 879.6,-406.11"/>
<polygon fill="grey" stroke="grey" stroke-width="2" points="883.1,-406 879.31,-396.1 876.1,-406.2 883.1,-406"/>
</g>
<!-- 34 -->
<g id="node35" class="node">
<title>34</title>
<path fill="none" stroke="#56d86b" stroke-width="2" d="M979.33,-324C979.33,-324 942.33,-324 942.33,-324 936.33,-324 930.33,-318 930.33,-312 930.33,-312 930.33,-300 930.33,-300 930.33,-294 936.33,-288 942.33,-288 942.33,-288 979.33,-288 979.33,-288 985.33,-288 991.33,-294 991.33,-300 991.33,-300 991.33,-312 991.33,-312 991.33,-318 985.33,-324 979.33,-324"/>
<text text-anchor="middle" x="960.83" y="-303.5" font-family="sans" font-size="10.00">sofia2cat</text>
</g>
<!-- 34&#45;&gt;2 -->
<g id="edge17" class="edge">
<title>34&#45;&gt;2</title>
<path fill="none" stroke="grey" stroke-width="2" d="M930.27,-295.47C921.46,-292.88 911.8,-290.18 902.83,-288 835.39,-271.58 757.57,-256.84 702.5,-247.09"/>
<polygon fill="grey" stroke="grey" stroke-width="2" points="702.94,-243.62 692.48,-245.33 701.73,-250.51 702.94,-243.62"/>
</g>
<!-- 35 -->
<g id="node36" class="node">
<title>35</title>
<path fill="none" stroke="#56d8c9" stroke-width="2" d="M998.33,-396C998.33,-396 961.33,-396 961.33,-396 955.33,-396 949.33,-390 949.33,-384 949.33,-384 949.33,-372 949.33,-372 949.33,-366 955.33,-360 961.33,-360 961.33,-360 998.33,-360 998.33,-360 1004.33,-360 1010.33,-366 1010.33,-372 1010.33,-372 1010.33,-384 1010.33,-384 1010.33,-390 1004.33,-396 998.33,-396"/>
<text text-anchor="middle" x="979.83" y="-375.5" font-family="sans" font-size="10.00">run_sofia</text>
</g>
<!-- 35&#45;&gt;34 -->
<g id="edge50" class="edge">
<title>35&#45;&gt;34</title>
<path fill="none" stroke="grey" stroke-width="2" d="M975.13,-359.7C973.01,-351.9 970.46,-342.51 968.11,-333.83"/>
<polygon fill="grey" stroke="grey" stroke-width="2" points="971.47,-332.84 965.47,-324.1 964.71,-334.67 971.47,-332.84"/>
</g>
<!-- 36&#45;&gt;35 -->
<g id="edge51" class="edge">
<title>36&#45;&gt;35</title>
<path fill="none" stroke="grey" stroke-width="2" d="M981.33,-431.7C981.11,-423.98 980.85,-414.71 980.6,-406.11"/>
<polygon fill="grey" stroke="grey" stroke-width="2" points="984.1,-406 980.31,-396.1 977.1,-406.2 984.1,-406"/>
</g>
<!-- 37 -->
<g id="node38" class="node">
<title>37</title>
<path fill="none" stroke="#56d86b" stroke-width="2" d="M1079.33,-324C1079.33,-324 1042.33,-324 1042.33,-324 1036.33,-324 1030.33,-318 1030.33,-312 1030.33,-312 1030.33,-300 1030.33,-300 1030.33,-294 1036.33,-288 1042.33,-288 1042.33,-288 1079.33,-288 1079.33,-288 1085.33,-288 1091.33,-294 1091.33,-300 1091.33,-300 1091.33,-312 1091.33,-312 1091.33,-318 1085.33,-324 1079.33,-324"/>
<text text-anchor="middle" x="1060.83" y="-303.5" font-family="sans" font-size="10.00">sofia2cat</text>
</g>
<!-- 37&#45;&gt;2 -->
<g id="edge18" class="edge">
<title>37&#45;&gt;2</title>
<path fill="none" stroke="grey" stroke-width="2" d="M1030.19,-295.47C1020.83,-292.79 1010.46,-290.05 1000.83,-288 898.22,-266.22 777.67,-250.81 702.75,-242.41"/>
<polygon fill="grey" stroke="grey" stroke-width="2" points="702.81,-238.9 692.48,-241.28 702.04,-245.86 702.81,-238.9"/>
</g>
<!-- 38 -->
<g id="node39" class="node">
<title>38</title>
<path fill="none" stroke="#56d8c9" stroke-width="2" d="M1099.33,-396C1099.33,-396 1062.33,-396 1062.33,-396 1056.33,-396 1050.33,-390 1050.33,-384 1050.33,-384 1050.33,-372 1050.33,-372 1050.33,-366 1056.33,-360 1062.33,-360 1062.33,-360 1099.33,-360 1099.33,-360 1105.33,-360 1111.33,-366 1111.33,-372 1111.33,-372 1111.33,-384 1111.33,-384 1111.33,-390 1105.33,-396 1099.33,-396"/>
<text text-anchor="middle" x="1080.83" y="-375.5" font-family="sans" font-size="10.00">run_sofia</text>
</g>
<!-- 38&#45;&gt;37 -->
<g id="edge53" class="edge">
<title>38&#45;&gt;37</title>
<path fill="none" stroke="grey" stroke-width="2" d="M1075.88,-359.7C1073.65,-351.9 1070.97,-342.51 1068.49,-333.83"/>
<polygon fill="grey" stroke="grey" stroke-width="2" points="1071.83,-332.76 1065.71,-324.1 1065.1,-334.68 1071.83,-332.76"/>
</g>
<!-- 39&#45;&gt;38 -->
<g id="edge54" class="edge">
<title>39&#45;&gt;38</title>
<path fill="none" stroke="grey" stroke-width="2" d="M1082.33,-431.7C1082.11,-423.98 1081.85,-414.71 1081.6,-406.11"/>
<polygon fill="grey" stroke="grey" stroke-width="2" points="1085.1,-406 1081.31,-396.1 1078.1,-406.2 1085.1,-406"/>
</g>
<!-- 40 -->
<g id="node41" class="node">
<title>40</title>
<path fill="none" stroke="#56d86b" stroke-width="2" d="M1179.33,-324C1179.33,-324 1142.33,-324 1142.33,-324 1136.33,-324 1130.33,-318 1130.33,-312 1130.33,-312 1130.33,-300 1130.33,-300 1130.33,-294 1136.33,-288 1142.33,-288 1142.33,-288 1179.33,-288 1179.33,-288 1185.33,-288 1191.33,-294 1191.33,-300 1191.33,-300 1191.33,-312 1191.33,-312 1191.33,-318 1185.33,-324 1179.33,-324"/>
<text text-anchor="middle" x="1160.83" y="-303.5" font-family="sans" font-size="10.00">sofia2cat</text>
</g>
<!-- 40&#45;&gt;2 -->
<g id="edge19" class="edge">
<title>40&#45;&gt;2</title>
<path fill="none" stroke="grey" stroke-width="2" d="M1130.23,-295.29C1120.87,-292.6 1110.49,-289.9 1100.83,-288 961.23,-260.55 795.31,-245.98 702.64,-239.43"/>
<polygon fill="grey" stroke="grey" stroke-width="2" points="702.75,-235.93 692.53,-238.72 702.26,-242.91 702.75,-235.93"/>
</g>
<!-- 41 -->
<g id="node42" class="node">
<title>41</title>
<path fill="none" stroke="#56d8c9" stroke-width="2" d="M1200.33,-396C1200.33,-396 1163.33,-396 1163.33,-396 1157.33,-396 1151.33,-390 1151.33,-384 1151.33,-384 1151.33,-372 1151.33,-372 1151.33,-366 1157.33,-360 1163.33,-360 1163.33,-360 1200.33,-360 1200.33,-360 1206.33,-360 1212.33,-366 1212.33,-372 1212.33,-372 1212.33,-384 1212.33,-384 1212.33,-390 1206.33,-396 1200.33,-396"/>
<text text-anchor="middle" x="1181.83" y="-375.5" font-family="sans" font-size="10.00">run_sofia</text>
</g>
<!-- 41&#45;&gt;40 -->
<g id="edge56" class="edge">
<title>41&#45;&gt;40</title>
<path fill="none" stroke="grey" stroke-width="2" d="M1176.64,-359.7C1174.3,-351.9 1171.48,-342.51 1168.88,-333.83"/>
<polygon fill="grey" stroke="grey" stroke-width="2" points="1172.18,-332.68 1165.96,-324.1 1165.48,-334.69 1172.18,-332.68"/>
</g>
<!-- 42&#45;&gt;41 -->
<g id="edge57" class="edge">
<title>42&#45;&gt;41</title>
<path fill="none" stroke="grey" stroke-width="2" d="M1183.33,-431.7C1183.11,-423.98 1182.85,-414.71 1182.6,-406.11"/>
<polygon fill="grey" stroke="grey" stroke-width="2" points="1186.1,-406 1182.31,-396.1 1179.1,-406.2 1186.1,-406"/>
</g>
<!-- 43&#45;&gt;0 -->
<g id="edge2" class="edge">
<title>43&#45;&gt;0</title>
<path fill="none" stroke="grey" stroke-width="2" d="M545.47,-71.88C560.35,-62.66 578.89,-51.17 594.88,-41.26"/>
<polygon fill="grey" stroke="grey" stroke-width="2" points="596.81,-44.19 603.47,-35.95 593.12,-38.24 596.81,-44.19"/>
</g>
<!-- 44&#45;&gt;0 -->
<g id="edge3" class="edge">
<title>44&#45;&gt;0</title>
<path fill="none" stroke="grey" stroke-width="2" d="M630.83,-71.7C630.83,-63.98 630.83,-54.71 630.83,-46.11"/>
<polygon fill="grey" stroke="grey" stroke-width="2" points="634.33,-46.1 630.83,-36.1 627.33,-46.1 634.33,-46.1"/>
</g>
<!-- 45&#45;&gt;0 -->
<g id="edge4" class="edge">
<title>45&#45;&gt;0</title>
<path fill="none" stroke="grey" stroke-width="2" d="M688.79,-71.7C679.28,-63.05 667.62,-52.45 657.26,-43.03"/>
<polygon fill="grey" stroke="grey" stroke-width="2" points="659.39,-40.24 649.64,-36.1 654.69,-45.42 659.39,-40.24"/>
</g>
<!-- 46&#45;&gt;0 -->
<g id="edge5" class="edge">
<title>46&#45;&gt;0</title>
<path fill="none" stroke="grey" stroke-width="2" d="M757.12,-75.67C731.57,-64.21 694.64,-47.64 667.31,-35.37"/>
<polygon fill="grey" stroke="grey" stroke-width="2" points="668.63,-32.13 658.08,-31.23 665.77,-38.51 668.63,-32.13"/>
</g>
</g>
</svg>
