<?xml version="1.0" encoding="UTF-8" standalone="no"?>
<!DOCTYPE svg PUBLIC "-//W3C//DTD SVG 1.1//EN"
 "http://www.w3.org/Graphics/SVG/1.1/DTD/svg11.dtd">
<!-- Generated by graphviz version 2.48.0 (20210717.2242)
 -->
<!-- Title: snakemake_dag Pages: 1 -->
<svg width="1637pt" height="548pt"
 viewBox="0.00 0.00 1637.38 548.00" xmlns="http://www.w3.org/2000/svg" xmlns:xlink="http://www.w3.org/1999/xlink">
<g id="graph0" class="graph" transform="scale(1 1) rotate(0) translate(4 544)">
<title>snakemake_dag</title>
<polygon fill="white" stroke="transparent" points="-4,4 -4,-544 1633.38,-544 1633.38,4 -4,4"/>
<!-- 0 -->
<g id="node1" class="node">
<title>0</title>
<path fill="none" stroke="#ced856" stroke-width="2" d="M898.5,-36C898.5,-36 868.5,-36 868.5,-36 862.5,-36 856.5,-30 856.5,-24 856.5,-24 856.5,-12 856.5,-12 856.5,-6 862.5,0 868.5,0 868.5,0 898.5,0 898.5,0 904.5,0 910.5,-6 910.5,-12 910.5,-12 910.5,-24 910.5,-24 910.5,-30 904.5,-36 898.5,-36"/>
<text text-anchor="middle" x="883.5" y="-15.5" font-family="sans" font-size="10.00">all</text>
</g>
<!-- 1 -->
<g id="node2" class="node">
<title>1</title>
<path fill="none" stroke="#9fd856" stroke-width="2" d="M877,-180C877,-180 822,-180 822,-180 816,-180 810,-174 810,-168 810,-168 810,-156 810,-156 810,-150 816,-144 822,-144 822,-144 877,-144 877,-144 883,-144 889,-150 889,-156 889,-156 889,-168 889,-168 889,-174 883,-180 877,-180"/>
<text text-anchor="middle" x="849.5" y="-159.5" font-family="sans" font-size="10.00">final_catalog</text>
</g>
<!-- 1&#45;&gt;0 -->
<g id="edge1" class="edge">
<title>1&#45;&gt;0</title>
<path fill="none" stroke="grey" stroke-width="2" d="M853.6,-143.87C859.42,-119.56 870.13,-74.82 877.03,-46.01"/>
<polygon fill="grey" stroke="grey" stroke-width="2" points="880.46,-46.73 879.38,-36.19 873.65,-45.1 880.46,-46.73"/>
</g>
<!-- 52 -->
<g id="node53" class="node">
<title>52</title>
<path fill="none" stroke="#d85656" stroke-width="2" d="M932.5,-108C932.5,-108 896.5,-108 896.5,-108 890.5,-108 884.5,-102 884.5,-96 884.5,-96 884.5,-84 884.5,-84 884.5,-78 890.5,-72 896.5,-72 896.5,-72 932.5,-72 932.5,-72 938.5,-72 944.5,-78 944.5,-84 944.5,-84 944.5,-96 944.5,-96 944.5,-102 938.5,-108 932.5,-108"/>
<text text-anchor="middle" x="914.5" y="-87.5" font-family="sans" font-size="10.00">visualize</text>
</g>
<!-- 1&#45;&gt;52 -->
<g id="edge68" class="edge">
<title>1&#45;&gt;52</title>
<path fill="none" stroke="grey" stroke-width="2" d="M865.57,-143.7C873.44,-135.22 883.06,-124.86 891.67,-115.58"/>
<polygon fill="grey" stroke="grey" stroke-width="2" points="894.38,-117.81 898.62,-108.1 889.25,-113.05 894.38,-117.81"/>
</g>
<!-- 2 -->
<g id="node3" class="node">
<title>2</title>
<path fill="none" stroke="#56b1d8" stroke-width="2" d="M899,-252C899,-252 800,-252 800,-252 794,-252 788,-246 788,-240 788,-240 788,-228 788,-228 788,-222 794,-216 800,-216 800,-216 899,-216 899,-216 905,-216 911,-222 911,-228 911,-228 911,-240 911,-240 911,-246 905,-252 899,-252"/>
<text text-anchor="middle" x="849.5" y="-231.5" font-family="sans" font-size="10.00">concatenate_catalogs</text>
</g>
<!-- 2&#45;&gt;1 -->
<g id="edge3" class="edge">
<title>2&#45;&gt;1</title>
<path fill="none" stroke="grey" stroke-width="2" d="M849.5,-215.7C849.5,-207.98 849.5,-198.71 849.5,-190.11"/>
<polygon fill="grey" stroke="grey" stroke-width="2" points="853,-190.1 849.5,-180.1 846,-190.1 853,-190.1"/>
</g>
<!-- 2&#45;&gt;52 -->
<g id="edge69" class="edge">
<title>2&#45;&gt;52</title>
<path fill="none" stroke="grey" stroke-width="2" d="M869.63,-215.78C879.53,-206.23 890.74,-193.56 897.5,-180 907.12,-160.7 911.31,-136.55 913.13,-118.27"/>
<polygon fill="grey" stroke="grey" stroke-width="2" points="916.62,-118.53 913.95,-108.28 909.64,-117.96 916.62,-118.53"/>
</g>
<!-- 3 -->
<g id="node4" class="node">
<title>3</title>
<path fill="none" stroke="#56d8c9" stroke-width="2" d="M72,-324C72,-324 35,-324 35,-324 29,-324 23,-318 23,-312 23,-312 23,-300 23,-300 23,-294 29,-288 35,-288 35,-288 72,-288 72,-288 78,-288 84,-294 84,-300 84,-300 84,-312 84,-312 84,-318 78,-324 72,-324"/>
<text text-anchor="middle" x="53.5" y="-303.5" font-family="sans" font-size="10.00">sofia2cat</text>
</g>
<!-- 3&#45;&gt;2 -->
<g id="edge4" class="edge">
<title>3&#45;&gt;2</title>
<path fill="none" stroke="grey" stroke-width="2" d="M84.02,-300.19C108.45,-296.46 143.61,-291.38 174.5,-288 393.86,-264 654.47,-246.7 777.88,-239.18"/>
<polygon fill="grey" stroke="grey" stroke-width="2" points="778.19,-242.67 787.96,-238.57 777.76,-235.68 778.19,-242.67"/>
</g>
<!-- 4 -->
<g id="node5" class="node">
<title>4</title>
<path fill="none" stroke="#d88556" stroke-width="2" d="M71,-396C71,-396 34,-396 34,-396 28,-396 22,-390 22,-384 22,-384 22,-372 22,-372 22,-366 28,-360 34,-360 34,-360 71,-360 71,-360 77,-360 83,-366 83,-372 83,-372 83,-384 83,-384 83,-390 77,-396 71,-396"/>
<text text-anchor="middle" x="52.5" y="-375.5" font-family="sans" font-size="10.00">run_sofia</text>
</g>
<!-- 4&#45;&gt;3 -->
<g id="edge20" class="edge">
<title>4&#45;&gt;3</title>
<path fill="none" stroke="grey" stroke-width="2" d="M52.75,-359.7C52.86,-351.98 52.99,-342.71 53.11,-334.11"/>
<polygon fill="grey" stroke="grey" stroke-width="2" points="56.61,-334.15 53.26,-324.1 49.61,-334.05 56.61,-334.15"/>
</g>
<!-- 5 -->
<g id="node6" class="node">
<title>5</title>
<path fill="none" stroke="#56d86b" stroke-width="2" d="M71,-468C71,-468 12,-468 12,-468 6,-468 0,-462 0,-456 0,-456 0,-444 0,-444 0,-438 6,-432 12,-432 12,-432 71,-432 71,-432 77,-432 83,-438 83,-444 83,-444 83,-456 83,-456 83,-462 77,-468 71,-468"/>
<text text-anchor="middle" x="41.5" y="-453" font-family="sans" font-size="10.00">split_subcube</text>
<text text-anchor="middle" x="41.5" y="-442" font-family="sans" font-size="10.00">idx: 0</text>
</g>
<!-- 5&#45;&gt;4 -->
<g id="edge21" class="edge">
<title>5&#45;&gt;4</title>
<path fill="none" stroke="grey" stroke-width="2" d="M44.22,-431.7C45.43,-423.98 46.89,-414.71 48.24,-406.11"/>
<polygon fill="grey" stroke="grey" stroke-width="2" points="51.72,-406.53 49.81,-396.1 44.8,-405.44 51.72,-406.53"/>
</g>
<!-- 6 -->
<g id="node7" class="node">
<title>6</title>
<path fill="none" stroke="#56d89a" stroke-width="2" d="M880.5,-540C880.5,-540 818.5,-540 818.5,-540 812.5,-540 806.5,-534 806.5,-528 806.5,-528 806.5,-516 806.5,-516 806.5,-510 812.5,-504 818.5,-504 818.5,-504 880.5,-504 880.5,-504 886.5,-504 892.5,-510 892.5,-516 892.5,-516 892.5,-528 892.5,-528 892.5,-534 886.5,-540 880.5,-540"/>
<text text-anchor="middle" x="849.5" y="-519.5" font-family="sans" font-size="10.00">define_chunks</text>
</g>
<!-- 6&#45;&gt;5 -->
<g id="edge22" class="edge">
<title>6&#45;&gt;5</title>
<path fill="none" stroke="grey" stroke-width="2" d="M806.16,-519.44C669.59,-514.29 248.5,-496.65 92.88,-467.92"/>
<polygon fill="grey" stroke="grey" stroke-width="2" points="93.5,-464.48 83.02,-466.01 92.17,-471.35 93.5,-464.48"/>
</g>
<!-- 9 -->
<g id="node10" class="node">
<title>9</title>
<path fill="none" stroke="#56d86b" stroke-width="2" d="M172,-468C172,-468 113,-468 113,-468 107,-468 101,-462 101,-456 101,-456 101,-444 101,-444 101,-438 107,-432 113,-432 113,-432 172,-432 172,-432 178,-432 184,-438 184,-444 184,-444 184,-456 184,-456 184,-462 178,-468 172,-468"/>
<text text-anchor="middle" x="142.5" y="-453" font-family="sans" font-size="10.00">split_subcube</text>
<text text-anchor="middle" x="142.5" y="-442" font-family="sans" font-size="10.00">idx: 1</text>
</g>
<!-- 6&#45;&gt;9 -->
<g id="edge25" class="edge">
<title>6&#45;&gt;9</title>
<path fill="none" stroke="grey" stroke-width="2" d="M806.32,-521.18C702,-520.84 428.16,-515.31 194.09,-468.04"/>
<polygon fill="grey" stroke="grey" stroke-width="2" points="194.53,-464.56 184.03,-465.98 193.12,-471.41 194.53,-464.56"/>
</g>
<!-- 12 -->
<g id="node13" class="node">
<title>12</title>
<path fill="none" stroke="#56d86b" stroke-width="2" d="M273,-468C273,-468 214,-468 214,-468 208,-468 202,-462 202,-456 202,-456 202,-444 202,-444 202,-438 208,-432 214,-432 214,-432 273,-432 273,-432 279,-432 285,-438 285,-444 285,-444 285,-456 285,-456 285,-462 279,-468 273,-468"/>
<text text-anchor="middle" x="243.5" y="-453" font-family="sans" font-size="10.00">split_subcube</text>
<text text-anchor="middle" x="243.5" y="-442" font-family="sans" font-size="10.00">idx: 2</text>
</g>
<!-- 6&#45;&gt;12 -->
<g id="edge28" class="edge">
<title>6&#45;&gt;12</title>
<path fill="none" stroke="grey" stroke-width="2" d="M806.43,-520.29C713.89,-518.04 489.31,-508.7 294.86,-468.02"/>
<polygon fill="grey" stroke="grey" stroke-width="2" points="295.55,-464.59 285.04,-465.93 294.09,-471.43 295.55,-464.59"/>
</g>
<!-- 15 -->
<g id="node16" class="node">
<title>15</title>
<path fill="none" stroke="#56d86b" stroke-width="2" d="M374,-468C374,-468 315,-468 315,-468 309,-468 303,-462 303,-456 303,-456 303,-444 303,-444 303,-438 309,-432 315,-432 315,-432 374,-432 374,-432 380,-432 386,-438 386,-444 386,-444 386,-456 386,-456 386,-462 380,-468 374,-468"/>
<text text-anchor="middle" x="344.5" y="-453" font-family="sans" font-size="10.00">split_subcube</text>
<text text-anchor="middle" x="344.5" y="-442" font-family="sans" font-size="10.00">idx: 3</text>
</g>
<!-- 6&#45;&gt;15 -->
<g id="edge31" class="edge">
<title>6&#45;&gt;15</title>
<path fill="none" stroke="grey" stroke-width="2" d="M806.33,-519.02C726.66,-514.71 551.2,-502.15 396.23,-468.14"/>
<polygon fill="grey" stroke="grey" stroke-width="2" points="396.58,-464.63 386.05,-465.86 395.05,-471.46 396.58,-464.63"/>
</g>
<!-- 18 -->
<g id="node19" class="node">
<title>18</title>
<path fill="none" stroke="#56d86b" stroke-width="2" d="M475,-468C475,-468 416,-468 416,-468 410,-468 404,-462 404,-456 404,-456 404,-444 404,-444 404,-438 410,-432 416,-432 416,-432 475,-432 475,-432 481,-432 487,-438 487,-444 487,-444 487,-456 487,-456 487,-462 481,-468 475,-468"/>
<text text-anchor="middle" x="445.5" y="-453" font-family="sans" font-size="10.00">split_subcube</text>
<text text-anchor="middle" x="445.5" y="-442" font-family="sans" font-size="10.00">idx: 4</text>
</g>
<!-- 6&#45;&gt;18 -->
<g id="edge34" class="edge">
<title>6&#45;&gt;18</title>
<path fill="none" stroke="grey" stroke-width="2" d="M806.24,-517.05C740.89,-510.53 613.1,-495.64 496.85,-468.11"/>
<polygon fill="grey" stroke="grey" stroke-width="2" points="497.62,-464.69 487.08,-465.76 495.98,-471.5 497.62,-464.69"/>
</g>
<!-- 21 -->
<g id="node22" class="node">
<title>21</title>
<path fill="none" stroke="#56d86b" stroke-width="2" d="M576,-468C576,-468 517,-468 517,-468 511,-468 505,-462 505,-456 505,-456 505,-444 505,-444 505,-438 511,-432 517,-432 517,-432 576,-432 576,-432 582,-432 588,-438 588,-444 588,-444 588,-456 588,-456 588,-462 582,-468 576,-468"/>
<text text-anchor="middle" x="546.5" y="-453" font-family="sans" font-size="10.00">split_subcube</text>
<text text-anchor="middle" x="546.5" y="-442" font-family="sans" font-size="10.00">idx: 5</text>
</g>
<!-- 6&#45;&gt;21 -->
<g id="edge37" class="edge">
<title>6&#45;&gt;21</title>
<path fill="none" stroke="grey" stroke-width="2" d="M806.15,-513.57C757.53,-504.88 676.23,-489.25 598.13,-468.29"/>
<polygon fill="grey" stroke="grey" stroke-width="2" points="598.69,-464.82 588.12,-465.57 596.86,-471.57 598.69,-464.82"/>
</g>
<!-- 24 -->
<g id="node25" class="node">
<title>24</title>
<path fill="none" stroke="#56d86b" stroke-width="2" d="M677,-468C677,-468 618,-468 618,-468 612,-468 606,-462 606,-456 606,-456 606,-444 606,-444 606,-438 612,-432 618,-432 618,-432 677,-432 677,-432 683,-432 689,-438 689,-444 689,-444 689,-456 689,-456 689,-462 683,-468 677,-468"/>
<text text-anchor="middle" x="647.5" y="-453" font-family="sans" font-size="10.00">split_subcube</text>
<text text-anchor="middle" x="647.5" y="-442" font-family="sans" font-size="10.00">idx: 6</text>
</g>
<!-- 6&#45;&gt;24 -->
<g id="edge40" class="edge">
<title>6&#45;&gt;24</title>
<path fill="none" stroke="grey" stroke-width="2" d="M806.17,-505.98C774.62,-495.05 731.78,-480.21 698.57,-468.7"/>
<polygon fill="grey" stroke="grey" stroke-width="2" points="699.63,-465.36 689.04,-465.39 697.34,-471.98 699.63,-465.36"/>
</g>
<!-- 27 -->
<g id="node28" class="node">
<title>27</title>
<path fill="none" stroke="#56d86b" stroke-width="2" d="M778,-468C778,-468 719,-468 719,-468 713,-468 707,-462 707,-456 707,-456 707,-444 707,-444 707,-438 713,-432 719,-432 719,-432 778,-432 778,-432 784,-432 790,-438 790,-444 790,-444 790,-456 790,-456 790,-462 784,-468 778,-468"/>
<text text-anchor="middle" x="748.5" y="-453" font-family="sans" font-size="10.00">split_subcube</text>
<text text-anchor="middle" x="748.5" y="-442" font-family="sans" font-size="10.00">idx: 7</text>
</g>
<!-- 6&#45;&gt;27 -->
<g id="edge43" class="edge">
<title>6&#45;&gt;27</title>
<path fill="none" stroke="grey" stroke-width="2" d="M824.79,-503.88C811.83,-494.89 795.77,-483.76 781.73,-474.03"/>
<polygon fill="grey" stroke="grey" stroke-width="2" points="783.52,-471.01 773.3,-468.19 779.53,-476.76 783.52,-471.01"/>
</g>
<!-- 30 -->
<g id="node31" class="node">
<title>30</title>
<path fill="none" stroke="#56d86b" stroke-width="2" d="M879,-468C879,-468 820,-468 820,-468 814,-468 808,-462 808,-456 808,-456 808,-444 808,-444 808,-438 814,-432 820,-432 820,-432 879,-432 879,-432 885,-432 891,-438 891,-444 891,-444 891,-456 891,-456 891,-462 885,-468 879,-468"/>
<text text-anchor="middle" x="849.5" y="-453" font-family="sans" font-size="10.00">split_subcube</text>
<text text-anchor="middle" x="849.5" y="-442" font-family="sans" font-size="10.00">idx: 8</text>
</g>
<!-- 6&#45;&gt;30 -->
<g id="edge46" class="edge">
<title>6&#45;&gt;30</title>
<path fill="none" stroke="grey" stroke-width="2" d="M849.5,-503.7C849.5,-495.98 849.5,-486.71 849.5,-478.11"/>
<polygon fill="grey" stroke="grey" stroke-width="2" points="853,-478.1 849.5,-468.1 846,-478.1 853,-478.1"/>
</g>
<!-- 33 -->
<g id="node34" class="node">
<title>33</title>
<path fill="none" stroke="#56d86b" stroke-width="2" d="M980,-468C980,-468 921,-468 921,-468 915,-468 909,-462 909,-456 909,-456 909,-444 909,-444 909,-438 915,-432 921,-432 921,-432 980,-432 980,-432 986,-432 992,-438 992,-444 992,-444 992,-456 992,-456 992,-462 986,-468 980,-468"/>
<text text-anchor="middle" x="950.5" y="-453" font-family="sans" font-size="10.00">split_subcube</text>
<text text-anchor="middle" x="950.5" y="-442" font-family="sans" font-size="10.00">idx: 9</text>
</g>
<!-- 6&#45;&gt;33 -->
<g id="edge49" class="edge">
<title>6&#45;&gt;33</title>
<path fill="none" stroke="grey" stroke-width="2" d="M874.21,-503.88C887.17,-494.89 903.23,-483.76 917.27,-474.03"/>
<polygon fill="grey" stroke="grey" stroke-width="2" points="919.47,-476.76 925.7,-468.19 915.48,-471.01 919.47,-476.76"/>
</g>
<!-- 36 -->
<g id="node37" class="node">
<title>36</title>
<path fill="none" stroke="#56d86b" stroke-width="2" d="M1081,-468C1081,-468 1022,-468 1022,-468 1016,-468 1010,-462 1010,-456 1010,-456 1010,-444 1010,-444 1010,-438 1016,-432 1022,-432 1022,-432 1081,-432 1081,-432 1087,-432 1093,-438 1093,-444 1093,-444 1093,-456 1093,-456 1093,-462 1087,-468 1081,-468"/>
<text text-anchor="middle" x="1051.5" y="-453" font-family="sans" font-size="10.00">split_subcube</text>
<text text-anchor="middle" x="1051.5" y="-442" font-family="sans" font-size="10.00">idx: 10</text>
</g>
<!-- 6&#45;&gt;36 -->
<g id="edge52" class="edge">
<title>6&#45;&gt;36</title>
<path fill="none" stroke="grey" stroke-width="2" d="M892.83,-505.98C924.38,-495.05 967.22,-480.21 1000.43,-468.7"/>
<polygon fill="grey" stroke="grey" stroke-width="2" points="1001.66,-471.98 1009.96,-465.39 999.37,-465.36 1001.66,-471.98"/>
</g>
<!-- 39 -->
<g id="node40" class="node">
<title>39</title>
<path fill="none" stroke="#56d86b" stroke-width="2" d="M1182,-468C1182,-468 1123,-468 1123,-468 1117,-468 1111,-462 1111,-456 1111,-456 1111,-444 1111,-444 1111,-438 1117,-432 1123,-432 1123,-432 1182,-432 1182,-432 1188,-432 1194,-438 1194,-444 1194,-444 1194,-456 1194,-456 1194,-462 1188,-468 1182,-468"/>
<text text-anchor="middle" x="1152.5" y="-453" font-family="sans" font-size="10.00">split_subcube</text>
<text text-anchor="middle" x="1152.5" y="-442" font-family="sans" font-size="10.00">idx: 11</text>
</g>
<!-- 6&#45;&gt;39 -->
<g id="edge55" class="edge">
<title>6&#45;&gt;39</title>
<path fill="none" stroke="grey" stroke-width="2" d="M892.85,-513.57C941.47,-504.88 1022.77,-489.25 1100.87,-468.29"/>
<polygon fill="grey" stroke="grey" stroke-width="2" points="1102.14,-471.57 1110.88,-465.57 1100.31,-464.82 1102.14,-471.57"/>
</g>
<!-- 42 -->
<g id="node43" class="node">
<title>42</title>
<path fill="none" stroke="#56d86b" stroke-width="2" d="M1283,-468C1283,-468 1224,-468 1224,-468 1218,-468 1212,-462 1212,-456 1212,-456 1212,-444 1212,-444 1212,-438 1218,-432 1224,-432 1224,-432 1283,-432 1283,-432 1289,-432 1295,-438 1295,-444 1295,-444 1295,-456 1295,-456 1295,-462 1289,-468 1283,-468"/>
<text text-anchor="middle" x="1253.5" y="-453" font-family="sans" font-size="10.00">split_subcube</text>
<text text-anchor="middle" x="1253.5" y="-442" font-family="sans" font-size="10.00">idx: 12</text>
</g>
<!-- 6&#45;&gt;42 -->
<g id="edge58" class="edge">
<title>6&#45;&gt;42</title>
<path fill="none" stroke="grey" stroke-width="2" d="M892.76,-517.05C958.11,-510.53 1085.9,-495.64 1202.15,-468.11"/>
<polygon fill="grey" stroke="grey" stroke-width="2" points="1203.02,-471.5 1211.92,-465.76 1201.38,-464.69 1203.02,-471.5"/>
</g>
<!-- 45 -->
<g id="node46" class="node">
<title>45</title>
<path fill="none" stroke="#56d86b" stroke-width="2" d="M1384,-468C1384,-468 1325,-468 1325,-468 1319,-468 1313,-462 1313,-456 1313,-456 1313,-444 1313,-444 1313,-438 1319,-432 1325,-432 1325,-432 1384,-432 1384,-432 1390,-432 1396,-438 1396,-444 1396,-444 1396,-456 1396,-456 1396,-462 1390,-468 1384,-468"/>
<text text-anchor="middle" x="1354.5" y="-453" font-family="sans" font-size="10.00">split_subcube</text>
<text text-anchor="middle" x="1354.5" y="-442" font-family="sans" font-size="10.00">idx: 13</text>
</g>
<!-- 6&#45;&gt;45 -->
<g id="edge61" class="edge">
<title>6&#45;&gt;45</title>
<path fill="none" stroke="grey" stroke-width="2" d="M892.67,-519.02C972.34,-514.71 1147.8,-502.15 1302.77,-468.14"/>
<polygon fill="grey" stroke="grey" stroke-width="2" points="1303.95,-471.46 1312.95,-465.86 1302.42,-464.63 1303.95,-471.46"/>
</g>
<!-- 48 -->
<g id="node49" class="node">
<title>48</title>
<path fill="none" stroke="#56d86b" stroke-width="2" d="M1485,-468C1485,-468 1426,-468 1426,-468 1420,-468 1414,-462 1414,-456 1414,-456 1414,-444 1414,-444 1414,-438 1420,-432 1426,-432 1426,-432 1485,-432 1485,-432 1491,-432 1497,-438 1497,-444 1497,-444 1497,-456 1497,-456 1497,-462 1491,-468 1485,-468"/>
<text text-anchor="middle" x="1455.5" y="-453" font-family="sans" font-size="10.00">split_subcube</text>
<text text-anchor="middle" x="1455.5" y="-442" font-family="sans" font-size="10.00">idx: 14</text>
</g>
<!-- 6&#45;&gt;48 -->
<g id="edge64" class="edge">
<title>6&#45;&gt;48</title>
<path fill="none" stroke="grey" stroke-width="2" d="M892.57,-520.29C985.11,-518.04 1209.69,-508.7 1404.14,-468.02"/>
<polygon fill="grey" stroke="grey" stroke-width="2" points="1404.91,-471.43 1413.96,-465.93 1403.45,-464.59 1404.91,-471.43"/>
</g>
<!-- 51 -->
<g id="node52" class="node">
<title>51</title>
<path fill="none" stroke="#56d86b" stroke-width="2" d="M1586,-468C1586,-468 1527,-468 1527,-468 1521,-468 1515,-462 1515,-456 1515,-456 1515,-444 1515,-444 1515,-438 1521,-432 1527,-432 1527,-432 1586,-432 1586,-432 1592,-432 1598,-438 1598,-444 1598,-444 1598,-456 1598,-456 1598,-462 1592,-468 1586,-468"/>
<text text-anchor="middle" x="1556.5" y="-453" font-family="sans" font-size="10.00">split_subcube</text>
<text text-anchor="middle" x="1556.5" y="-442" font-family="sans" font-size="10.00">idx: 15</text>
</g>
<!-- 6&#45;&gt;51 -->
<g id="edge67" class="edge">
<title>6&#45;&gt;51</title>
<path fill="none" stroke="grey" stroke-width="2" d="M892.68,-521.18C997,-520.84 1270.84,-515.31 1504.91,-468.04"/>
<polygon fill="grey" stroke="grey" stroke-width="2" points="1505.88,-471.41 1514.97,-465.98 1504.47,-464.56 1505.88,-471.41"/>
</g>
<!-- 6&#45;&gt;52 -->
<g id="edge70" class="edge">
<title>6&#45;&gt;52</title>
<path fill="none" stroke="grey" stroke-width="2" d="M892.63,-520.95C1045.23,-520.39 1553.41,-514.98 1607.5,-468 1638.04,-441.48 1626.5,-419.45 1626.5,-379 1626.5,-379 1626.5,-379 1626.5,-233 1626.5,-94.98 1105.47,-89.18 954.83,-90.39"/>
<polygon fill="grey" stroke="grey" stroke-width="2" points="954.61,-86.89 944.64,-90.49 954.67,-93.89 954.61,-86.89"/>
</g>
<!-- 7 -->
<g id="node8" class="node">
<title>7</title>
<path fill="none" stroke="#56d8c9" stroke-width="2" d="M233,-324C233,-324 196,-324 196,-324 190,-324 184,-318 184,-312 184,-312 184,-300 184,-300 184,-294 190,-288 196,-288 196,-288 233,-288 233,-288 239,-288 245,-294 245,-300 245,-300 245,-312 245,-312 245,-318 239,-324 233,-324"/>
<text text-anchor="middle" x="214.5" y="-303.5" font-family="sans" font-size="10.00">sofia2cat</text>
</g>
<!-- 7&#45;&gt;2 -->
<g id="edge5" class="edge">
<title>7&#45;&gt;2</title>
<path fill="none" stroke="grey" stroke-width="2" d="M245.12,-297.64C259.96,-294.29 278.08,-290.52 294.5,-288 466.72,-261.57 671.15,-246.1 777.34,-239.25"/>
<polygon fill="grey" stroke="grey" stroke-width="2" points="777.86,-242.72 787.62,-238.59 777.42,-235.74 777.86,-242.72"/>
</g>
<!-- 8 -->
<g id="node9" class="node">
<title>8</title>
<path fill="none" stroke="#d88556" stroke-width="2" d="M172,-396C172,-396 135,-396 135,-396 129,-396 123,-390 123,-384 123,-384 123,-372 123,-372 123,-366 129,-360 135,-360 135,-360 172,-360 172,-360 178,-360 184,-366 184,-372 184,-372 184,-384 184,-384 184,-390 178,-396 172,-396"/>
<text text-anchor="middle" x="153.5" y="-375.5" font-family="sans" font-size="10.00">run_sofia</text>
</g>
<!-- 8&#45;&gt;7 -->
<g id="edge23" class="edge">
<title>8&#45;&gt;7</title>
<path fill="none" stroke="grey" stroke-width="2" d="M168.58,-359.7C175.89,-351.3 184.81,-341.07 192.84,-331.86"/>
<polygon fill="grey" stroke="grey" stroke-width="2" points="195.66,-333.94 199.59,-324.1 190.39,-329.34 195.66,-333.94"/>
</g>
<!-- 9&#45;&gt;8 -->
<g id="edge24" class="edge">
<title>9&#45;&gt;8</title>
<path fill="none" stroke="grey" stroke-width="2" d="M145.22,-431.7C146.43,-423.98 147.89,-414.71 149.24,-406.11"/>
<polygon fill="grey" stroke="grey" stroke-width="2" points="152.72,-406.53 150.81,-396.1 145.8,-405.44 152.72,-406.53"/>
</g>
<!-- 10 -->
<g id="node11" class="node">
<title>10</title>
<path fill="none" stroke="#56d8c9" stroke-width="2" d="M353,-324C353,-324 316,-324 316,-324 310,-324 304,-318 304,-312 304,-312 304,-300 304,-300 304,-294 310,-288 316,-288 316,-288 353,-288 353,-288 359,-288 365,-294 365,-300 365,-300 365,-312 365,-312 365,-318 359,-324 353,-324"/>
<text text-anchor="middle" x="334.5" y="-303.5" font-family="sans" font-size="10.00">sofia2cat</text>
</g>
<!-- 10&#45;&gt;2 -->
<g id="edge6" class="edge">
<title>10&#45;&gt;2</title>
<path fill="none" stroke="grey" stroke-width="2" d="M365.1,-295.31C374.46,-292.62 384.84,-289.92 394.5,-288 528.57,-261.38 687.71,-246.61 777.82,-239.78"/>
<polygon fill="grey" stroke="grey" stroke-width="2" points="778.22,-243.26 787.93,-239.03 777.7,-236.28 778.22,-243.26"/>
</g>
<!-- 11 -->
<g id="node12" class="node">
<title>11</title>
<path fill="none" stroke="#d88556" stroke-width="2" d="M273,-396C273,-396 236,-396 236,-396 230,-396 224,-390 224,-384 224,-384 224,-372 224,-372 224,-366 230,-360 236,-360 236,-360 273,-360 273,-360 279,-360 285,-366 285,-372 285,-372 285,-384 285,-384 285,-390 279,-396 273,-396"/>
<text text-anchor="middle" x="254.5" y="-375.5" font-family="sans" font-size="10.00">run_sofia</text>
</g>
<!-- 11&#45;&gt;10 -->
<g id="edge26" class="edge">
<title>11&#45;&gt;10</title>
<path fill="none" stroke="grey" stroke-width="2" d="M274.28,-359.7C284.25,-350.97 296.51,-340.24 307.36,-330.75"/>
<polygon fill="grey" stroke="grey" stroke-width="2" points="309.73,-333.32 314.95,-324.1 305.12,-328.06 309.73,-333.32"/>
</g>
<!-- 12&#45;&gt;11 -->
<g id="edge27" class="edge">
<title>12&#45;&gt;11</title>
<path fill="none" stroke="grey" stroke-width="2" d="M246.22,-431.7C247.43,-423.98 248.89,-414.71 250.24,-406.11"/>
<polygon fill="grey" stroke="grey" stroke-width="2" points="253.72,-406.53 251.81,-396.1 246.8,-405.44 253.72,-406.53"/>
</g>
<!-- 13 -->
<g id="node14" class="node">
<title>13</title>
<path fill="none" stroke="#56d8c9" stroke-width="2" d="M453,-324C453,-324 416,-324 416,-324 410,-324 404,-318 404,-312 404,-312 404,-300 404,-300 404,-294 410,-288 416,-288 416,-288 453,-288 453,-288 459,-288 465,-294 465,-300 465,-300 465,-312 465,-312 465,-318 459,-324 453,-324"/>
<text text-anchor="middle" x="434.5" y="-303.5" font-family="sans" font-size="10.00">sofia2cat</text>
</g>
<!-- 13&#45;&gt;2 -->
<g id="edge7" class="edge">
<title>13&#45;&gt;2</title>
<path fill="none" stroke="grey" stroke-width="2" d="M465.08,-293.39C471.12,-291.38 477.46,-289.47 483.5,-288 584.19,-263.48 703.41,-248.81 777.76,-241.32"/>
<polygon fill="grey" stroke="grey" stroke-width="2" points="778.34,-244.78 787.95,-240.31 777.65,-237.81 778.34,-244.78"/>
</g>
<!-- 14 -->
<g id="node15" class="node">
<title>14</title>
<path fill="none" stroke="#d88556" stroke-width="2" d="M374,-396C374,-396 337,-396 337,-396 331,-396 325,-390 325,-384 325,-384 325,-372 325,-372 325,-366 331,-360 337,-360 337,-360 374,-360 374,-360 380,-360 386,-366 386,-372 386,-372 386,-384 386,-384 386,-390 380,-396 374,-396"/>
<text text-anchor="middle" x="355.5" y="-375.5" font-family="sans" font-size="10.00">run_sofia</text>
</g>
<!-- 14&#45;&gt;13 -->
<g id="edge29" class="edge">
<title>14&#45;&gt;13</title>
<path fill="none" stroke="grey" stroke-width="2" d="M375.03,-359.7C384.88,-350.97 396.99,-340.24 407.7,-330.75"/>
<polygon fill="grey" stroke="grey" stroke-width="2" points="410.03,-333.36 415.2,-324.1 405.39,-328.12 410.03,-333.36"/>
</g>
<!-- 15&#45;&gt;14 -->
<g id="edge30" class="edge">
<title>15&#45;&gt;14</title>
<path fill="none" stroke="grey" stroke-width="2" d="M347.22,-431.7C348.43,-423.98 349.89,-414.71 351.24,-406.11"/>
<polygon fill="grey" stroke="grey" stroke-width="2" points="354.72,-406.53 352.81,-396.1 347.8,-405.44 354.72,-406.53"/>
</g>
<!-- 16 -->
<g id="node17" class="node">
<title>16</title>
<path fill="none" stroke="#56d8c9" stroke-width="2" d="M542,-324C542,-324 505,-324 505,-324 499,-324 493,-318 493,-312 493,-312 493,-300 493,-300 493,-294 499,-288 505,-288 505,-288 542,-288 542,-288 548,-288 554,-294 554,-300 554,-300 554,-312 554,-312 554,-318 548,-324 542,-324"/>
<text text-anchor="middle" x="523.5" y="-303.5" font-family="sans" font-size="10.00">sofia2cat</text>
</g>
<!-- 16&#45;&gt;2 -->
<g id="edge8" class="edge">
<title>16&#45;&gt;2</title>
<path fill="none" stroke="grey" stroke-width="2" d="M554.03,-292.38C558.5,-290.77 563.09,-289.26 567.5,-288 637.9,-267.97 720.38,-253.47 777.89,-244.76"/>
<polygon fill="grey" stroke="grey" stroke-width="2" points="778.59,-248.19 787.97,-243.25 777.56,-241.27 778.59,-248.19"/>
</g>
<!-- 17 -->
<g id="node18" class="node">
<title>17</title>
<path fill="none" stroke="#d88556" stroke-width="2" d="M475,-396C475,-396 438,-396 438,-396 432,-396 426,-390 426,-384 426,-384 426,-372 426,-372 426,-366 432,-360 438,-360 438,-360 475,-360 475,-360 481,-360 487,-366 487,-372 487,-372 487,-384 487,-384 487,-390 481,-396 475,-396"/>
<text text-anchor="middle" x="456.5" y="-375.5" font-family="sans" font-size="10.00">run_sofia</text>
</g>
<!-- 17&#45;&gt;16 -->
<g id="edge32" class="edge">
<title>17&#45;&gt;16</title>
<path fill="none" stroke="grey" stroke-width="2" d="M473.06,-359.7C481.18,-351.22 491.09,-340.86 499.97,-331.58"/>
<polygon fill="grey" stroke="grey" stroke-width="2" points="502.74,-333.75 507.13,-324.1 497.69,-328.91 502.74,-333.75"/>
</g>
<!-- 18&#45;&gt;17 -->
<g id="edge33" class="edge">
<title>18&#45;&gt;17</title>
<path fill="none" stroke="grey" stroke-width="2" d="M448.22,-431.7C449.43,-423.98 450.89,-414.71 452.24,-406.11"/>
<polygon fill="grey" stroke="grey" stroke-width="2" points="455.72,-406.53 453.81,-396.1 448.8,-405.44 455.72,-406.53"/>
</g>
<!-- 19 -->
<g id="node20" class="node">
<title>19</title>
<path fill="none" stroke="#56d8c9" stroke-width="2" d="M626,-324C626,-324 589,-324 589,-324 583,-324 577,-318 577,-312 577,-312 577,-300 577,-300 577,-294 583,-288 589,-288 589,-288 626,-288 626,-288 632,-288 638,-294 638,-300 638,-300 638,-312 638,-312 638,-318 632,-324 626,-324"/>
<text text-anchor="middle" x="607.5" y="-303.5" font-family="sans" font-size="10.00">sofia2cat</text>
</g>
<!-- 19&#45;&gt;2 -->
<g id="edge9" class="edge">
<title>19&#45;&gt;2</title>
<path fill="none" stroke="grey" stroke-width="2" d="M638.07,-292.11C641.89,-290.65 645.77,-289.24 649.5,-288 691.42,-274.02 739.23,-261.24 777.59,-251.73"/>
<polygon fill="grey" stroke="grey" stroke-width="2" points="778.76,-255.05 787.64,-249.26 777.09,-248.25 778.76,-255.05"/>
</g>
<!-- 20 -->
<g id="node21" class="node">
<title>20</title>
<path fill="none" stroke="#d88556" stroke-width="2" d="M576,-396C576,-396 539,-396 539,-396 533,-396 527,-390 527,-384 527,-384 527,-372 527,-372 527,-366 533,-360 539,-360 539,-360 576,-360 576,-360 582,-360 588,-366 588,-372 588,-372 588,-384 588,-384 588,-390 582,-396 576,-396"/>
<text text-anchor="middle" x="557.5" y="-375.5" font-family="sans" font-size="10.00">run_sofia</text>
</g>
<!-- 20&#45;&gt;19 -->
<g id="edge35" class="edge">
<title>20&#45;&gt;19</title>
<path fill="none" stroke="grey" stroke-width="2" d="M569.86,-359.7C575.73,-351.47 582.87,-341.48 589.34,-332.42"/>
<polygon fill="grey" stroke="grey" stroke-width="2" points="592.32,-334.28 595.28,-324.1 586.62,-330.21 592.32,-334.28"/>
</g>
<!-- 21&#45;&gt;20 -->
<g id="edge36" class="edge">
<title>21&#45;&gt;20</title>
<path fill="none" stroke="grey" stroke-width="2" d="M549.22,-431.7C550.43,-423.98 551.89,-414.71 553.24,-406.11"/>
<polygon fill="grey" stroke="grey" stroke-width="2" points="556.72,-406.53 554.81,-396.1 549.8,-405.44 556.72,-406.53"/>
</g>
<!-- 22 -->
<g id="node23" class="node">
<title>22</title>
<path fill="none" stroke="#56d8c9" stroke-width="2" d="M708,-324C708,-324 671,-324 671,-324 665,-324 659,-318 659,-312 659,-312 659,-300 659,-300 659,-294 665,-288 671,-288 671,-288 708,-288 708,-288 714,-288 720,-294 720,-300 720,-300 720,-312 720,-312 720,-318 714,-324 708,-324"/>
<text text-anchor="middle" x="689.5" y="-303.5" font-family="sans" font-size="10.00">sofia2cat</text>
</g>
<!-- 22&#45;&gt;2 -->
<g id="edge10" class="edge">
<title>22&#45;&gt;2</title>
<path fill="none" stroke="grey" stroke-width="2" d="M720.35,-291.5C743.24,-281.49 774.89,-267.64 801.13,-256.16"/>
<polygon fill="grey" stroke="grey" stroke-width="2" points="802.77,-259.27 810.53,-252.05 799.96,-252.85 802.77,-259.27"/>
</g>
<!-- 23 -->
<g id="node24" class="node">
<title>23</title>
<path fill="none" stroke="#d88556" stroke-width="2" d="M677,-396C677,-396 640,-396 640,-396 634,-396 628,-390 628,-384 628,-384 628,-372 628,-372 628,-366 634,-360 640,-360 640,-360 677,-360 677,-360 683,-360 689,-366 689,-372 689,-372 689,-384 689,-384 689,-390 683,-396 677,-396"/>
<text text-anchor="middle" x="658.5" y="-375.5" font-family="sans" font-size="10.00">run_sofia</text>
</g>
<!-- 23&#45;&gt;22 -->
<g id="edge38" class="edge">
<title>23&#45;&gt;22</title>
<path fill="none" stroke="grey" stroke-width="2" d="M666.16,-359.7C669.69,-351.73 673.96,-342.1 677.87,-333.26"/>
<polygon fill="grey" stroke="grey" stroke-width="2" points="681.08,-334.67 681.93,-324.1 674.68,-331.83 681.08,-334.67"/>
</g>
<!-- 24&#45;&gt;23 -->
<g id="edge39" class="edge">
<title>24&#45;&gt;23</title>
<path fill="none" stroke="grey" stroke-width="2" d="M650.22,-431.7C651.43,-423.98 652.89,-414.71 654.24,-406.11"/>
<polygon fill="grey" stroke="grey" stroke-width="2" points="657.72,-406.53 655.81,-396.1 650.8,-405.44 657.72,-406.53"/>
</g>
<!-- 25 -->
<g id="node26" class="node">
<title>25</title>
<path fill="none" stroke="#56d8c9" stroke-width="2" d="M788,-324C788,-324 751,-324 751,-324 745,-324 739,-318 739,-312 739,-312 739,-300 739,-300 739,-294 745,-288 751,-288 751,-288 788,-288 788,-288 794,-288 800,-294 800,-300 800,-300 800,-312 800,-312 800,-318 794,-324 788,-324"/>
<text text-anchor="middle" x="769.5" y="-303.5" font-family="sans" font-size="10.00">sofia2cat</text>
</g>
<!-- 25&#45;&gt;2 -->
<g id="edge11" class="edge">
<title>25&#45;&gt;2</title>
<path fill="none" stroke="grey" stroke-width="2" d="M789.28,-287.7C799.25,-278.97 811.51,-268.24 822.36,-258.75"/>
<polygon fill="grey" stroke="grey" stroke-width="2" points="824.73,-261.32 829.95,-252.1 820.12,-256.06 824.73,-261.32"/>
</g>
<!-- 26 -->
<g id="node27" class="node">
<title>26</title>
<path fill="none" stroke="#d88556" stroke-width="2" d="M777,-396C777,-396 740,-396 740,-396 734,-396 728,-390 728,-384 728,-384 728,-372 728,-372 728,-366 734,-360 740,-360 740,-360 777,-360 777,-360 783,-360 789,-366 789,-372 789,-372 789,-384 789,-384 789,-390 783,-396 777,-396"/>
<text text-anchor="middle" x="758.5" y="-375.5" font-family="sans" font-size="10.00">run_sofia</text>
</g>
<!-- 26&#45;&gt;25 -->
<g id="edge41" class="edge">
<title>26&#45;&gt;25</title>
<path fill="none" stroke="grey" stroke-width="2" d="M761.22,-359.7C762.43,-351.98 763.89,-342.71 765.24,-334.11"/>
<polygon fill="grey" stroke="grey" stroke-width="2" points="768.72,-334.53 766.81,-324.1 761.8,-333.44 768.72,-334.53"/>
</g>
<!-- 27&#45;&gt;26 -->
<g id="edge42" class="edge">
<title>27&#45;&gt;26</title>
<path fill="none" stroke="grey" stroke-width="2" d="M750.97,-431.7C752.07,-423.98 753.4,-414.71 754.63,-406.11"/>
<polygon fill="grey" stroke="grey" stroke-width="2" points="758.11,-406.5 756.06,-396.1 751.18,-405.51 758.11,-406.5"/>
</g>
<!-- 28 -->
<g id="node29" class="node">
<title>28</title>
<path fill="none" stroke="#56d8c9" stroke-width="2" d="M868,-324C868,-324 831,-324 831,-324 825,-324 819,-318 819,-312 819,-312 819,-300 819,-300 819,-294 825,-288 831,-288 831,-288 868,-288 868,-288 874,-288 880,-294 880,-300 880,-300 880,-312 880,-312 880,-318 874,-324 868,-324"/>
<text text-anchor="middle" x="849.5" y="-303.5" font-family="sans" font-size="10.00">sofia2cat</text>
</g>
<!-- 28&#45;&gt;2 -->
<g id="edge12" class="edge">
<title>28&#45;&gt;2</title>
<path fill="none" stroke="grey" stroke-width="2" d="M849.5,-287.7C849.5,-279.98 849.5,-270.71 849.5,-262.11"/>
<polygon fill="grey" stroke="grey" stroke-width="2" points="853,-262.1 849.5,-252.1 846,-262.1 853,-262.1"/>
</g>
<!-- 29 -->
<g id="node30" class="node">
<title>29</title>
<path fill="none" stroke="#d88556" stroke-width="2" d="M868,-396C868,-396 831,-396 831,-396 825,-396 819,-390 819,-384 819,-384 819,-372 819,-372 819,-366 825,-360 831,-360 831,-360 868,-360 868,-360 874,-360 880,-366 880,-372 880,-372 880,-384 880,-384 880,-390 874,-396 868,-396"/>
<text text-anchor="middle" x="849.5" y="-375.5" font-family="sans" font-size="10.00">run_sofia</text>
</g>
<!-- 29&#45;&gt;28 -->
<g id="edge44" class="edge">
<title>29&#45;&gt;28</title>
<path fill="none" stroke="grey" stroke-width="2" d="M849.5,-359.7C849.5,-351.98 849.5,-342.71 849.5,-334.11"/>
<polygon fill="grey" stroke="grey" stroke-width="2" points="853,-334.1 849.5,-324.1 846,-334.1 853,-334.1"/>
</g>
<!-- 30&#45;&gt;29 -->
<g id="edge45" class="edge">
<title>30&#45;&gt;29</title>
<path fill="none" stroke="grey" stroke-width="2" d="M849.5,-431.7C849.5,-423.98 849.5,-414.71 849.5,-406.11"/>
<polygon fill="grey" stroke="grey" stroke-width="2" points="853,-406.1 849.5,-396.1 846,-406.1 853,-406.1"/>
</g>
<!-- 31 -->
<g id="node32" class="node">
<title>31</title>
<path fill="none" stroke="#56d8c9" stroke-width="2" d="M953,-324C953,-324 916,-324 916,-324 910,-324 904,-318 904,-312 904,-312 904,-300 904,-300 904,-294 910,-288 916,-288 916,-288 953,-288 953,-288 959,-288 965,-294 965,-300 965,-300 965,-312 965,-312 965,-318 959,-324 953,-324"/>
<text text-anchor="middle" x="934.5" y="-303.5" font-family="sans" font-size="10.00">sofia2cat</text>
</g>
<!-- 31&#45;&gt;2 -->
<g id="edge13" class="edge">
<title>31&#45;&gt;2</title>
<path fill="none" stroke="grey" stroke-width="2" d="M913.49,-287.7C902.78,-278.88 889.61,-268.03 878,-258.47"/>
<polygon fill="grey" stroke="grey" stroke-width="2" points="880.21,-255.76 870.27,-252.1 875.76,-261.16 880.21,-255.76"/>
</g>
<!-- 32 -->
<g id="node33" class="node">
<title>32</title>
<path fill="none" stroke="#d88556" stroke-width="2" d="M958,-396C958,-396 921,-396 921,-396 915,-396 909,-390 909,-384 909,-384 909,-372 909,-372 909,-366 915,-360 921,-360 921,-360 958,-360 958,-360 964,-360 970,-366 970,-372 970,-372 970,-384 970,-384 970,-390 964,-396 958,-396"/>
<text text-anchor="middle" x="939.5" y="-375.5" font-family="sans" font-size="10.00">run_sofia</text>
</g>
<!-- 32&#45;&gt;31 -->
<g id="edge47" class="edge">
<title>32&#45;&gt;31</title>
<path fill="none" stroke="grey" stroke-width="2" d="M938.26,-359.7C937.71,-351.98 937.05,-342.71 936.44,-334.11"/>
<polygon fill="grey" stroke="grey" stroke-width="2" points="939.93,-333.83 935.72,-324.1 932.94,-334.33 939.93,-333.83"/>
</g>
<!-- 33&#45;&gt;32 -->
<g id="edge48" class="edge">
<title>33&#45;&gt;32</title>
<path fill="none" stroke="grey" stroke-width="2" d="M947.78,-431.7C946.57,-423.98 945.11,-414.71 943.76,-406.11"/>
<polygon fill="grey" stroke="grey" stroke-width="2" points="947.2,-405.44 942.19,-396.1 940.28,-406.53 947.2,-405.44"/>
</g>
<!-- 34 -->
<g id="node35" class="node">
<title>34</title>
<path fill="none" stroke="#56d8c9" stroke-width="2" d="M1043,-324C1043,-324 1006,-324 1006,-324 1000,-324 994,-318 994,-312 994,-312 994,-300 994,-300 994,-294 1000,-288 1006,-288 1006,-288 1043,-288 1043,-288 1049,-288 1055,-294 1055,-300 1055,-300 1055,-312 1055,-312 1055,-318 1049,-324 1043,-324"/>
<text text-anchor="middle" x="1024.5" y="-303.5" font-family="sans" font-size="10.00">sofia2cat</text>
</g>
<!-- 34&#45;&gt;2 -->
<g id="edge14" class="edge">
<title>34&#45;&gt;2</title>
<path fill="none" stroke="grey" stroke-width="2" d="M993.62,-292.65C968.21,-282.48 931.63,-267.85 901.68,-255.87"/>
<polygon fill="grey" stroke="grey" stroke-width="2" points="902.8,-252.55 892.22,-252.09 900.2,-259.05 902.8,-252.55"/>
</g>
<!-- 35 -->
<g id="node36" class="node">
<title>35</title>
<path fill="none" stroke="#d88556" stroke-width="2" d="M1054,-396C1054,-396 1017,-396 1017,-396 1011,-396 1005,-390 1005,-384 1005,-384 1005,-372 1005,-372 1005,-366 1011,-360 1017,-360 1017,-360 1054,-360 1054,-360 1060,-360 1066,-366 1066,-372 1066,-372 1066,-384 1066,-384 1066,-390 1060,-396 1054,-396"/>
<text text-anchor="middle" x="1035.5" y="-375.5" font-family="sans" font-size="10.00">run_sofia</text>
</g>
<!-- 35&#45;&gt;34 -->
<g id="edge50" class="edge">
<title>35&#45;&gt;34</title>
<path fill="none" stroke="grey" stroke-width="2" d="M1032.78,-359.7C1031.57,-351.98 1030.11,-342.71 1028.76,-334.11"/>
<polygon fill="grey" stroke="grey" stroke-width="2" points="1032.2,-333.44 1027.19,-324.1 1025.28,-334.53 1032.2,-333.44"/>
</g>
<!-- 36&#45;&gt;35 -->
<g id="edge51" class="edge">
<title>36&#45;&gt;35</title>
<path fill="none" stroke="grey" stroke-width="2" d="M1047.54,-431.7C1045.78,-423.98 1043.66,-414.71 1041.7,-406.11"/>
<polygon fill="grey" stroke="grey" stroke-width="2" points="1045.05,-405.07 1039.41,-396.1 1038.23,-406.63 1045.05,-405.07"/>
</g>
<!-- 37 -->
<g id="node38" class="node">
<title>37</title>
<path fill="none" stroke="#56d8c9" stroke-width="2" d="M1137,-324C1137,-324 1100,-324 1100,-324 1094,-324 1088,-318 1088,-312 1088,-312 1088,-300 1088,-300 1088,-294 1094,-288 1100,-288 1100,-288 1137,-288 1137,-288 1143,-288 1149,-294 1149,-300 1149,-300 1149,-312 1149,-312 1149,-318 1143,-324 1137,-324"/>
<text text-anchor="middle" x="1118.5" y="-303.5" font-family="sans" font-size="10.00">sofia2cat</text>
</g>
<!-- 37&#45;&gt;2 -->
<g id="edge15" class="edge">
<title>37&#45;&gt;2</title>
<path fill="none" stroke="grey" stroke-width="2" d="M1087.76,-294.95C1080.18,-292.58 1072.07,-290.12 1064.5,-288 1017.04,-274.69 963.18,-261.42 921.25,-251.49"/>
<polygon fill="grey" stroke="grey" stroke-width="2" points="921.94,-248.05 911.4,-249.16 920.33,-254.87 921.94,-248.05"/>
</g>
<!-- 38 -->
<g id="node39" class="node">
<title>38</title>
<path fill="none" stroke="#d88556" stroke-width="2" d="M1152,-396C1152,-396 1115,-396 1115,-396 1109,-396 1103,-390 1103,-384 1103,-384 1103,-372 1103,-372 1103,-366 1109,-360 1115,-360 1115,-360 1152,-360 1152,-360 1158,-360 1164,-366 1164,-372 1164,-372 1164,-384 1164,-384 1164,-390 1158,-396 1152,-396"/>
<text text-anchor="middle" x="1133.5" y="-375.5" font-family="sans" font-size="10.00">run_sofia</text>
</g>
<!-- 38&#45;&gt;37 -->
<g id="edge53" class="edge">
<title>38&#45;&gt;37</title>
<path fill="none" stroke="grey" stroke-width="2" d="M1129.79,-359.7C1128.14,-351.98 1126.15,-342.71 1124.31,-334.11"/>
<polygon fill="grey" stroke="grey" stroke-width="2" points="1127.68,-333.15 1122.17,-324.1 1120.84,-334.62 1127.68,-333.15"/>
</g>
<!-- 39&#45;&gt;38 -->
<g id="edge54" class="edge">
<title>39&#45;&gt;38</title>
<path fill="none" stroke="grey" stroke-width="2" d="M1147.8,-431.7C1145.69,-423.9 1143.14,-414.51 1140.78,-405.83"/>
<polygon fill="grey" stroke="grey" stroke-width="2" points="1144.14,-404.84 1138.14,-396.1 1137.38,-406.67 1144.14,-404.84"/>
</g>
<!-- 40 -->
<g id="node41" class="node">
<title>40</title>
<path fill="none" stroke="#56d8c9" stroke-width="2" d="M1234,-324C1234,-324 1197,-324 1197,-324 1191,-324 1185,-318 1185,-312 1185,-312 1185,-300 1185,-300 1185,-294 1191,-288 1197,-288 1197,-288 1234,-288 1234,-288 1240,-288 1246,-294 1246,-300 1246,-300 1246,-312 1246,-312 1246,-318 1240,-324 1234,-324"/>
<text text-anchor="middle" x="1215.5" y="-303.5" font-family="sans" font-size="10.00">sofia2cat</text>
</g>
<!-- 40&#45;&gt;2 -->
<g id="edge16" class="edge">
<title>40&#45;&gt;2</title>
<path fill="none" stroke="grey" stroke-width="2" d="M1184.92,-295.14C1176.42,-292.61 1167.15,-290.02 1158.5,-288 1078.05,-269.18 984.36,-254.04 921.42,-244.84"/>
<polygon fill="grey" stroke="grey" stroke-width="2" points="921.6,-241.33 911.2,-243.36 920.6,-248.26 921.6,-241.33"/>
</g>
<!-- 41 -->
<g id="node42" class="node">
<title>41</title>
<path fill="none" stroke="#d88556" stroke-width="2" d="M1252,-396C1252,-396 1215,-396 1215,-396 1209,-396 1203,-390 1203,-384 1203,-384 1203,-372 1203,-372 1203,-366 1209,-360 1215,-360 1215,-360 1252,-360 1252,-360 1258,-360 1264,-366 1264,-372 1264,-372 1264,-384 1264,-384 1264,-390 1258,-396 1252,-396"/>
<text text-anchor="middle" x="1233.5" y="-375.5" font-family="sans" font-size="10.00">run_sofia</text>
</g>
<!-- 41&#45;&gt;40 -->
<g id="edge56" class="edge">
<title>41&#45;&gt;40</title>
<path fill="none" stroke="grey" stroke-width="2" d="M1229.05,-359.7C1227.05,-351.9 1224.63,-342.51 1222.4,-333.83"/>
<polygon fill="grey" stroke="grey" stroke-width="2" points="1225.78,-332.92 1219.9,-324.1 1219,-334.66 1225.78,-332.92"/>
</g>
<!-- 42&#45;&gt;41 -->
<g id="edge57" class="edge">
<title>42&#45;&gt;41</title>
<path fill="none" stroke="grey" stroke-width="2" d="M1248.56,-431.7C1246.33,-423.9 1243.65,-414.51 1241.17,-405.83"/>
<polygon fill="grey" stroke="grey" stroke-width="2" points="1244.5,-404.76 1238.39,-396.1 1237.77,-406.68 1244.5,-404.76"/>
</g>
<!-- 43 -->
<g id="node44" class="node">
<title>43</title>
<path fill="none" stroke="#56d8c9" stroke-width="2" d="M1333,-324C1333,-324 1296,-324 1296,-324 1290,-324 1284,-318 1284,-312 1284,-312 1284,-300 1284,-300 1284,-294 1290,-288 1296,-288 1296,-288 1333,-288 1333,-288 1339,-288 1345,-294 1345,-300 1345,-300 1345,-312 1345,-312 1345,-318 1339,-324 1333,-324"/>
<text text-anchor="middle" x="1314.5" y="-303.5" font-family="sans" font-size="10.00">sofia2cat</text>
</g>
<!-- 43&#45;&gt;2 -->
<g id="edge17" class="edge">
<title>43&#45;&gt;2</title>
<path fill="none" stroke="grey" stroke-width="2" d="M1283.79,-295.2C1274.75,-292.58 1264.79,-289.93 1255.5,-288 1139.71,-263.9 1002.93,-248.74 921.36,-241.08"/>
<polygon fill="grey" stroke="grey" stroke-width="2" points="921.48,-237.58 911.2,-240.14 920.83,-244.55 921.48,-237.58"/>
</g>
<!-- 44 -->
<g id="node45" class="node">
<title>44</title>
<path fill="none" stroke="#d88556" stroke-width="2" d="M1352,-396C1352,-396 1315,-396 1315,-396 1309,-396 1303,-390 1303,-384 1303,-384 1303,-372 1303,-372 1303,-366 1309,-360 1315,-360 1315,-360 1352,-360 1352,-360 1358,-360 1364,-366 1364,-372 1364,-372 1364,-384 1364,-384 1364,-390 1358,-396 1352,-396"/>
<text text-anchor="middle" x="1333.5" y="-375.5" font-family="sans" font-size="10.00">run_sofia</text>
</g>
<!-- 44&#45;&gt;43 -->
<g id="edge59" class="edge">
<title>44&#45;&gt;43</title>
<path fill="none" stroke="grey" stroke-width="2" d="M1328.8,-359.7C1326.69,-351.9 1324.14,-342.51 1321.78,-333.83"/>
<polygon fill="grey" stroke="grey" stroke-width="2" points="1325.14,-332.84 1319.14,-324.1 1318.38,-334.67 1325.14,-332.84"/>
</g>
<!-- 45&#45;&gt;44 -->
<g id="edge60" class="edge">
<title>45&#45;&gt;44</title>
<path fill="none" stroke="grey" stroke-width="2" d="M1349.31,-431.7C1346.97,-423.9 1344.15,-414.51 1341.55,-405.83"/>
<polygon fill="grey" stroke="grey" stroke-width="2" points="1344.86,-404.68 1338.63,-396.1 1338.15,-406.69 1344.86,-404.68"/>
</g>
<!-- 46 -->
<g id="node47" class="node">
<title>46</title>
<path fill="none" stroke="#56d8c9" stroke-width="2" d="M1433,-324C1433,-324 1396,-324 1396,-324 1390,-324 1384,-318 1384,-312 1384,-312 1384,-300 1384,-300 1384,-294 1390,-288 1396,-288 1396,-288 1433,-288 1433,-288 1439,-288 1445,-294 1445,-300 1445,-300 1445,-312 1445,-312 1445,-318 1439,-324 1433,-324"/>
<text text-anchor="middle" x="1414.5" y="-303.5" font-family="sans" font-size="10.00">sofia2cat</text>
</g>
<!-- 46&#45;&gt;2 -->
<g id="edge18" class="edge">
<title>46&#45;&gt;2</title>
<path fill="none" stroke="grey" stroke-width="2" d="M1383.91,-295.24C1374.55,-292.55 1364.17,-289.86 1354.5,-288 1201.71,-258.56 1019.55,-244.52 921.15,-238.64"/>
<polygon fill="grey" stroke="grey" stroke-width="2" points="921.21,-235.14 911.02,-238.05 920.8,-242.13 921.21,-235.14"/>
</g>
<!-- 47 -->
<g id="node48" class="node">
<title>47</title>
<path fill="none" stroke="#d88556" stroke-width="2" d="M1453,-396C1453,-396 1416,-396 1416,-396 1410,-396 1404,-390 1404,-384 1404,-384 1404,-372 1404,-372 1404,-366 1410,-360 1416,-360 1416,-360 1453,-360 1453,-360 1459,-360 1465,-366 1465,-372 1465,-372 1465,-384 1465,-384 1465,-390 1459,-396 1453,-396"/>
<text text-anchor="middle" x="1434.5" y="-375.5" font-family="sans" font-size="10.00">run_sofia</text>
</g>
<!-- 47&#45;&gt;46 -->
<g id="edge62" class="edge">
<title>47&#45;&gt;46</title>
<path fill="none" stroke="grey" stroke-width="2" d="M1429.56,-359.7C1427.33,-351.9 1424.65,-342.51 1422.17,-333.83"/>
<polygon fill="grey" stroke="grey" stroke-width="2" points="1425.5,-332.76 1419.39,-324.1 1418.77,-334.68 1425.5,-332.76"/>
</g>
<!-- 48&#45;&gt;47 -->
<g id="edge63" class="edge">
<title>48&#45;&gt;47</title>
<path fill="none" stroke="grey" stroke-width="2" d="M1450.31,-431.7C1447.97,-423.9 1445.15,-414.51 1442.55,-405.83"/>
<polygon fill="grey" stroke="grey" stroke-width="2" points="1445.86,-404.68 1439.63,-396.1 1439.15,-406.69 1445.86,-404.68"/>
</g>
<!-- 49 -->
<g id="node50" class="node">
<title>49</title>
<path fill="none" stroke="#56d8c9" stroke-width="2" d="M1533,-324C1533,-324 1496,-324 1496,-324 1490,-324 1484,-318 1484,-312 1484,-312 1484,-300 1484,-300 1484,-294 1490,-288 1496,-288 1496,-288 1533,-288 1533,-288 1539,-288 1545,-294 1545,-300 1545,-300 1545,-312 1545,-312 1545,-318 1539,-324 1533,-324"/>
<text text-anchor="middle" x="1514.5" y="-303.5" font-family="sans" font-size="10.00">sofia2cat</text>
</g>
<!-- 49&#45;&gt;2 -->
<g id="edge19" class="edge">
<title>49&#45;&gt;2</title>
<path fill="none" stroke="grey" stroke-width="2" d="M1483.93,-295.14C1474.57,-292.44 1464.19,-289.78 1454.5,-288 1264,-252.99 1035.36,-240.94 921.42,-236.92"/>
<polygon fill="grey" stroke="grey" stroke-width="2" points="921.53,-233.42 911.42,-236.58 921.29,-240.42 921.53,-233.42"/>
</g>
<!-- 50 -->
<g id="node51" class="node">
<title>50</title>
<path fill="none" stroke="#d88556" stroke-width="2" d="M1554,-396C1554,-396 1517,-396 1517,-396 1511,-396 1505,-390 1505,-384 1505,-384 1505,-372 1505,-372 1505,-366 1511,-360 1517,-360 1517,-360 1554,-360 1554,-360 1560,-360 1566,-366 1566,-372 1566,-372 1566,-384 1566,-384 1566,-390 1560,-396 1554,-396"/>
<text text-anchor="middle" x="1535.5" y="-375.5" font-family="sans" font-size="10.00">run_sofia</text>
</g>
<!-- 50&#45;&gt;49 -->
<g id="edge65" class="edge">
<title>50&#45;&gt;49</title>
<path fill="none" stroke="grey" stroke-width="2" d="M1530.31,-359.7C1527.97,-351.9 1525.15,-342.51 1522.55,-333.83"/>
<polygon fill="grey" stroke="grey" stroke-width="2" points="1525.86,-332.68 1519.63,-324.1 1519.15,-334.69 1525.86,-332.68"/>
</g>
<!-- 51&#45;&gt;50 -->
<g id="edge66" class="edge">
<title>51&#45;&gt;50</title>
<path fill="none" stroke="grey" stroke-width="2" d="M1551.31,-431.7C1548.97,-423.9 1546.15,-414.51 1543.55,-405.83"/>
<polygon fill="grey" stroke="grey" stroke-width="2" points="1546.86,-404.68 1540.63,-396.1 1540.15,-406.69 1546.86,-404.68"/>
</g>
<!-- 52&#45;&gt;0 -->
<g id="edge2" class="edge">
<title>52&#45;&gt;0</title>
<path fill="none" stroke="grey" stroke-width="2" d="M906.84,-71.7C903.31,-63.73 899.04,-54.1 895.13,-45.26"/>
<polygon fill="grey" stroke="grey" stroke-width="2" points="898.32,-43.83 891.07,-36.1 891.92,-46.67 898.32,-43.83"/>
</g>
</g>
</svg>
