<?xml version="1.0" encoding="UTF-8" standalone="no"?>
<!DOCTYPE svg PUBLIC "-//W3C//DTD SVG 1.1//EN"
 "http://www.w3.org/Graphics/SVG/1.1/DTD/svg11.dtd">
<!-- Generated by graphviz version 2.47.3 (20210619.2315)
 -->
<!-- Title: snakemake_dag Pages: 1 -->
<svg width="424pt" height="548pt"
 viewBox="0.00 0.00 424.44 548.00" xmlns="http://www.w3.org/2000/svg" xmlns:xlink="http://www.w3.org/1999/xlink">
<g id="graph0" class="graph" transform="scale(1 1) rotate(0) translate(4 544)">
<title>snakemake_dag</title>
<polygon fill="white" stroke="transparent" points="-4,4 -4,-544 420.44,-544 420.44,4 -4,4"/>
<!-- 0 -->
<g id="node1" class="node">
<title>0</title>
<path fill="none" stroke="#70d856" stroke-width="2" d="M187.94,-36C187.94,-36 157.94,-36 157.94,-36 151.94,-36 145.94,-30 145.94,-24 145.94,-24 145.94,-12 145.94,-12 145.94,-6 151.94,0 157.94,0 157.94,0 187.94,0 187.94,0 193.94,0 199.94,-6 199.94,-12 199.94,-12 199.94,-24 199.94,-24 199.94,-30 193.94,-36 187.94,-36"/>
<text text-anchor="middle" x="172.94" y="-15.5" font-family="sans" font-size="10.00">all</text>
</g>
<!-- 1 -->
<g id="node2" class="node">
<title>1</title>
<path fill="none" stroke="#56d8c9" stroke-width="2" d="M200.44,-180C200.44,-180 145.44,-180 145.44,-180 139.44,-180 133.44,-174 133.44,-168 133.44,-168 133.44,-156 133.44,-156 133.44,-150 139.44,-144 145.44,-144 145.44,-144 200.44,-144 200.44,-144 206.44,-144 212.44,-150 212.44,-156 212.44,-156 212.44,-168 212.44,-168 212.44,-174 206.44,-180 200.44,-180"/>
<text text-anchor="middle" x="172.94" y="-159.5" font-family="sans" font-size="10.00">final_catalog</text>
</g>
<!-- 1&#45;&gt;0 -->
<g id="edge1" class="edge">
<title>1&#45;&gt;0</title>
<path fill="none" stroke="grey" stroke-width="2" d="M157.33,-143.77C149.57,-134.03 140.99,-121.18 136.94,-108 132.24,-92.71 132.24,-87.29 136.94,-72 139.95,-62.22 145.45,-52.62 151.25,-44.33"/>
<polygon fill="grey" stroke="grey" stroke-width="2" points="154.13,-46.33 157.33,-36.23 148.53,-42.13 154.13,-46.33"/>
</g>
<!-- 16 -->
<g id="node17" class="node">
<title>16</title>
<path fill="none" stroke="#56b1d8" stroke-width="2" d="M77.94,-108C77.94,-108 41.94,-108 41.94,-108 35.94,-108 29.94,-102 29.94,-96 29.94,-96 29.94,-84 29.94,-84 29.94,-78 35.94,-72 41.94,-72 41.94,-72 77.94,-72 77.94,-72 83.94,-72 89.94,-78 89.94,-84 89.94,-84 89.94,-96 89.94,-96 89.94,-102 83.94,-108 77.94,-108"/>
<text text-anchor="middle" x="59.94" y="-87.5" font-family="sans" font-size="10.00">visualize</text>
</g>
<!-- 1&#45;&gt;16 -->
<g id="edge23" class="edge">
<title>1&#45;&gt;16</title>
<path fill="none" stroke="grey" stroke-width="2" d="M145.3,-143.88C130.52,-134.72 112.15,-123.34 96.24,-113.48"/>
<polygon fill="grey" stroke="grey" stroke-width="2" points="98.03,-110.48 87.69,-108.19 94.35,-116.43 98.03,-110.48"/>
</g>
<!-- 17 -->
<g id="node18" class="node">
<title>17</title>
<path fill="none" stroke="#56d86b" stroke-width="2" d="M187.94,-108C187.94,-108 157.94,-108 157.94,-108 151.94,-108 145.94,-102 145.94,-96 145.94,-96 145.94,-84 145.94,-84 145.94,-78 151.94,-72 157.94,-72 157.94,-72 187.94,-72 187.94,-72 193.94,-72 199.94,-78 199.94,-84 199.94,-84 199.94,-96 199.94,-96 199.94,-102 193.94,-108 187.94,-108"/>
<text text-anchor="middle" x="172.94" y="-87.5" font-family="sans" font-size="10.00">dag</text>
</g>
<!-- 1&#45;&gt;17 -->
<g id="edge26" class="edge">
<title>1&#45;&gt;17</title>
<path fill="none" stroke="grey" stroke-width="2" d="M172.94,-143.7C172.94,-135.98 172.94,-126.71 172.94,-118.11"/>
<polygon fill="grey" stroke="grey" stroke-width="2" points="176.44,-118.1 172.94,-108.1 169.44,-118.1 176.44,-118.1"/>
</g>
<!-- 18 -->
<g id="node19" class="node">
<title>18</title>
<path fill="none" stroke="#56d89a" stroke-width="2" d="M269.44,-108C269.44,-108 230.44,-108 230.44,-108 224.44,-108 218.44,-102 218.44,-96 218.44,-96 218.44,-84 218.44,-84 218.44,-78 224.44,-72 230.44,-72 230.44,-72 269.44,-72 269.44,-72 275.44,-72 281.44,-78 281.44,-84 281.44,-84 281.44,-96 281.44,-96 281.44,-102 275.44,-108 269.44,-108"/>
<text text-anchor="middle" x="249.94" y="-87.5" font-family="sans" font-size="10.00">rulegraph</text>
</g>
<!-- 1&#45;&gt;18 -->
<g id="edge27" class="edge">
<title>1&#45;&gt;18</title>
<path fill="none" stroke="grey" stroke-width="2" d="M191.97,-143.7C201.48,-135.05 213.15,-124.45 223.51,-115.03"/>
<polygon fill="grey" stroke="grey" stroke-width="2" points="226.08,-117.42 231.12,-108.1 221.37,-112.24 226.08,-117.42"/>
</g>
<!-- 19 -->
<g id="node20" class="node">
<title>19</title>
<path fill="none" stroke="#d85656" stroke-width="2" d="M346.44,-108C346.44,-108 311.44,-108 311.44,-108 305.44,-108 299.44,-102 299.44,-96 299.44,-96 299.44,-84 299.44,-84 299.44,-78 305.44,-72 311.44,-72 311.44,-72 346.44,-72 346.44,-72 352.44,-72 358.44,-78 358.44,-84 358.44,-84 358.44,-96 358.44,-96 358.44,-102 352.44,-108 346.44,-108"/>
<text text-anchor="middle" x="328.94" y="-87.5" font-family="sans" font-size="10.00">filegraph</text>
</g>
<!-- 1&#45;&gt;19 -->
<g id="edge28" class="edge">
<title>1&#45;&gt;19</title>
<path fill="none" stroke="grey" stroke-width="2" d="M211.1,-143.88C234.99,-133.16 265.7,-119.38 289.77,-108.57"/>
<polygon fill="grey" stroke="grey" stroke-width="2" points="291.29,-111.73 298.98,-104.44 288.42,-105.34 291.29,-111.73"/>
</g>
<!-- 2 -->
<g id="node3" class="node">
<title>2</title>
<path fill="none" stroke="#ced856" stroke-width="2" d="M222.44,-252C222.44,-252 123.44,-252 123.44,-252 117.44,-252 111.44,-246 111.44,-240 111.44,-240 111.44,-228 111.44,-228 111.44,-222 117.44,-216 123.44,-216 123.44,-216 222.44,-216 222.44,-216 228.44,-216 234.44,-222 234.44,-228 234.44,-228 234.44,-240 234.44,-240 234.44,-246 228.44,-252 222.44,-252"/>
<text text-anchor="middle" x="172.94" y="-231.5" font-family="sans" font-size="10.00">concatenate_catalogs</text>
</g>
<!-- 2&#45;&gt;1 -->
<g id="edge6" class="edge">
<title>2&#45;&gt;1</title>
<path fill="none" stroke="grey" stroke-width="2" d="M172.94,-215.7C172.94,-207.98 172.94,-198.71 172.94,-190.11"/>
<polygon fill="grey" stroke="grey" stroke-width="2" points="176.44,-190.1 172.94,-180.1 169.44,-190.1 176.44,-190.1"/>
</g>
<!-- 2&#45;&gt;16 -->
<g id="edge24" class="edge">
<title>2&#45;&gt;16</title>
<path fill="none" stroke="grey" stroke-width="2" d="M156.05,-215.82C146.33,-205.67 134.08,-192.42 123.94,-180 107.08,-159.35 89.51,-134.65 77.05,-116.52"/>
<polygon fill="grey" stroke="grey" stroke-width="2" points="79.9,-114.48 71.37,-108.19 74.11,-118.42 79.9,-114.48"/>
</g>
<!-- 3 -->
<g id="node4" class="node">
<title>3</title>
<path fill="none" stroke="#d8b456" stroke-width="2" d="M376.44,-324C376.44,-324 339.44,-324 339.44,-324 333.44,-324 327.44,-318 327.44,-312 327.44,-312 327.44,-300 327.44,-300 327.44,-294 333.44,-288 339.44,-288 339.44,-288 376.44,-288 376.44,-288 382.44,-288 388.44,-294 388.44,-300 388.44,-300 388.44,-312 388.44,-312 388.44,-318 382.44,-324 376.44,-324"/>
<text text-anchor="middle" x="357.94" y="-303.5" font-family="sans" font-size="10.00">sofia2cat</text>
</g>
<!-- 3&#45;&gt;2 -->
<g id="edge7" class="edge">
<title>3&#45;&gt;2</title>
<path fill="none" stroke="grey" stroke-width="2" d="M327.39,-293.44C300.3,-283.19 260.1,-267.98 227.5,-255.64"/>
<polygon fill="grey" stroke="grey" stroke-width="2" points="228.68,-252.35 218.08,-252.08 226.2,-258.89 228.68,-252.35"/>
</g>
<!-- 4 -->
<g id="node5" class="node">
<title>4</title>
<path fill="none" stroke="#5682d8" stroke-width="2" d="M387.44,-396C387.44,-396 350.44,-396 350.44,-396 344.44,-396 338.44,-390 338.44,-384 338.44,-384 338.44,-372 338.44,-372 338.44,-366 344.44,-360 350.44,-360 350.44,-360 387.44,-360 387.44,-360 393.44,-360 399.44,-366 399.44,-372 399.44,-372 399.44,-384 399.44,-384 399.44,-390 393.44,-396 387.44,-396"/>
<text text-anchor="middle" x="368.94" y="-375.5" font-family="sans" font-size="10.00">run_sofia</text>
</g>
<!-- 4&#45;&gt;3 -->
<g id="edge11" class="edge">
<title>4&#45;&gt;3</title>
<path fill="none" stroke="grey" stroke-width="2" d="M366.22,-359.7C365.01,-351.98 363.55,-342.71 362.2,-334.11"/>
<polygon fill="grey" stroke="grey" stroke-width="2" points="365.64,-333.44 360.63,-324.1 358.72,-334.53 365.64,-333.44"/>
</g>
<!-- 5 -->
<g id="node6" class="node">
<title>5</title>
<path fill="none" stroke="#d88556" stroke-width="2" d="M404.44,-468C404.44,-468 345.44,-468 345.44,-468 339.44,-468 333.44,-462 333.44,-456 333.44,-456 333.44,-444 333.44,-444 333.44,-438 339.44,-432 345.44,-432 345.44,-432 404.44,-432 404.44,-432 410.44,-432 416.44,-438 416.44,-444 416.44,-444 416.44,-456 416.44,-456 416.44,-462 410.44,-468 404.44,-468"/>
<text text-anchor="middle" x="374.94" y="-453" font-family="sans" font-size="10.00">split_subcube</text>
<text text-anchor="middle" x="374.94" y="-442" font-family="sans" font-size="10.00">idx: 0</text>
</g>
<!-- 5&#45;&gt;4 -->
<g id="edge12" class="edge">
<title>5&#45;&gt;4</title>
<path fill="none" stroke="grey" stroke-width="2" d="M373.46,-431.7C372.79,-423.98 372,-414.71 371.26,-406.11"/>
<polygon fill="grey" stroke="grey" stroke-width="2" points="374.75,-405.77 370.4,-396.1 367.77,-406.37 374.75,-405.77"/>
</g>
<!-- 6 -->
<g id="node7" class="node">
<title>6</title>
<path fill="none" stroke="#9fd856" stroke-width="2" d="M203.94,-540C203.94,-540 141.94,-540 141.94,-540 135.94,-540 129.94,-534 129.94,-528 129.94,-528 129.94,-516 129.94,-516 129.94,-510 135.94,-504 141.94,-504 141.94,-504 203.94,-504 203.94,-504 209.94,-504 215.94,-510 215.94,-516 215.94,-516 215.94,-528 215.94,-528 215.94,-534 209.94,-540 203.94,-540"/>
<text text-anchor="middle" x="172.94" y="-519.5" font-family="sans" font-size="10.00">define_chunks</text>
</g>
<!-- 6&#45;&gt;5 -->
<g id="edge13" class="edge">
<title>6&#45;&gt;5</title>
<path fill="none" stroke="grey" stroke-width="2" d="M216.27,-505.98C247.82,-495.05 290.66,-480.21 323.87,-468.7"/>
<polygon fill="grey" stroke="grey" stroke-width="2" points="325.1,-471.98 333.4,-465.39 322.81,-465.36 325.1,-471.98"/>
</g>
<!-- 9 -->
<g id="node10" class="node">
<title>9</title>
<path fill="none" stroke="#d88556" stroke-width="2" d="M101.44,-468C101.44,-468 42.44,-468 42.44,-468 36.44,-468 30.44,-462 30.44,-456 30.44,-456 30.44,-444 30.44,-444 30.44,-438 36.44,-432 42.44,-432 42.44,-432 101.44,-432 101.44,-432 107.44,-432 113.44,-438 113.44,-444 113.44,-444 113.44,-456 113.44,-456 113.44,-462 107.44,-468 101.44,-468"/>
<text text-anchor="middle" x="71.94" y="-453" font-family="sans" font-size="10.00">split_subcube</text>
<text text-anchor="middle" x="71.94" y="-442" font-family="sans" font-size="10.00">idx: 1</text>
</g>
<!-- 6&#45;&gt;9 -->
<g id="edge16" class="edge">
<title>6&#45;&gt;9</title>
<path fill="none" stroke="grey" stroke-width="2" d="M148.23,-503.88C135.27,-494.89 119.21,-483.76 105.17,-474.03"/>
<polygon fill="grey" stroke="grey" stroke-width="2" points="106.95,-471.01 96.74,-468.19 102.97,-476.76 106.95,-471.01"/>
</g>
<!-- 12 -->
<g id="node13" class="node">
<title>12</title>
<path fill="none" stroke="#d88556" stroke-width="2" d="M202.44,-468C202.44,-468 143.44,-468 143.44,-468 137.44,-468 131.44,-462 131.44,-456 131.44,-456 131.44,-444 131.44,-444 131.44,-438 137.44,-432 143.44,-432 143.44,-432 202.44,-432 202.44,-432 208.44,-432 214.44,-438 214.44,-444 214.44,-444 214.44,-456 214.44,-456 214.44,-462 208.44,-468 202.44,-468"/>
<text text-anchor="middle" x="172.94" y="-453" font-family="sans" font-size="10.00">split_subcube</text>
<text text-anchor="middle" x="172.94" y="-442" font-family="sans" font-size="10.00">idx: 2</text>
</g>
<!-- 6&#45;&gt;12 -->
<g id="edge19" class="edge">
<title>6&#45;&gt;12</title>
<path fill="none" stroke="grey" stroke-width="2" d="M172.94,-503.7C172.94,-495.98 172.94,-486.71 172.94,-478.11"/>
<polygon fill="grey" stroke="grey" stroke-width="2" points="176.44,-478.1 172.94,-468.1 169.44,-478.1 176.44,-478.1"/>
</g>
<!-- 15 -->
<g id="node16" class="node">
<title>15</title>
<path fill="none" stroke="#d88556" stroke-width="2" d="M303.44,-468C303.44,-468 244.44,-468 244.44,-468 238.44,-468 232.44,-462 232.44,-456 232.44,-456 232.44,-444 232.44,-444 232.44,-438 238.44,-432 244.44,-432 244.44,-432 303.44,-432 303.44,-432 309.44,-432 315.44,-438 315.44,-444 315.44,-444 315.44,-456 315.44,-456 315.44,-462 309.44,-468 303.44,-468"/>
<text text-anchor="middle" x="273.94" y="-453" font-family="sans" font-size="10.00">split_subcube</text>
<text text-anchor="middle" x="273.94" y="-442" font-family="sans" font-size="10.00">idx: 3</text>
</g>
<!-- 6&#45;&gt;15 -->
<g id="edge22" class="edge">
<title>6&#45;&gt;15</title>
<path fill="none" stroke="grey" stroke-width="2" d="M197.65,-503.88C210.61,-494.89 226.67,-483.76 240.7,-474.03"/>
<polygon fill="grey" stroke="grey" stroke-width="2" points="242.91,-476.76 249.14,-468.19 238.92,-471.01 242.91,-476.76"/>
</g>
<!-- 6&#45;&gt;16 -->
<g id="edge25" class="edge">
<title>6&#45;&gt;16</title>
<path fill="none" stroke="grey" stroke-width="2" d="M129.91,-517.33C95.46,-512.06 48.48,-499.23 20.94,-468 -5.82,-437.67 1.94,-419.45 1.94,-379 1.94,-379 1.94,-379 1.94,-233 1.94,-189.7 25.34,-144.11 42.42,-116.61"/>
<polygon fill="grey" stroke="grey" stroke-width="2" points="45.48,-118.32 47.92,-108.01 39.58,-114.55 45.48,-118.32"/>
</g>
<!-- 7 -->
<g id="node8" class="node">
<title>7</title>
<path fill="none" stroke="#d8b456" stroke-width="2" d="M106.44,-324C106.44,-324 69.44,-324 69.44,-324 63.44,-324 57.44,-318 57.44,-312 57.44,-312 57.44,-300 57.44,-300 57.44,-294 63.44,-288 69.44,-288 69.44,-288 106.44,-288 106.44,-288 112.44,-288 118.44,-294 118.44,-300 118.44,-300 118.44,-312 118.44,-312 118.44,-318 112.44,-324 106.44,-324"/>
<text text-anchor="middle" x="87.94" y="-303.5" font-family="sans" font-size="10.00">sofia2cat</text>
</g>
<!-- 7&#45;&gt;2 -->
<g id="edge8" class="edge">
<title>7&#45;&gt;2</title>
<path fill="none" stroke="grey" stroke-width="2" d="M108.95,-287.7C119.66,-278.88 132.83,-268.03 144.43,-258.47"/>
<polygon fill="grey" stroke="grey" stroke-width="2" points="146.67,-261.16 152.17,-252.1 142.22,-255.76 146.67,-261.16"/>
</g>
<!-- 8 -->
<g id="node9" class="node">
<title>8</title>
<path fill="none" stroke="#5682d8" stroke-width="2" d="M95.44,-396C95.44,-396 58.44,-396 58.44,-396 52.44,-396 46.44,-390 46.44,-384 46.44,-384 46.44,-372 46.44,-372 46.44,-366 52.44,-360 58.44,-360 58.44,-360 95.44,-360 95.44,-360 101.44,-360 107.44,-366 107.44,-372 107.44,-372 107.44,-384 107.44,-384 107.44,-390 101.44,-396 95.44,-396"/>
<text text-anchor="middle" x="76.94" y="-375.5" font-family="sans" font-size="10.00">run_sofia</text>
</g>
<!-- 8&#45;&gt;7 -->
<g id="edge14" class="edge">
<title>8&#45;&gt;7</title>
<path fill="none" stroke="grey" stroke-width="2" d="M79.66,-359.7C80.87,-351.98 82.33,-342.71 83.68,-334.11"/>
<polygon fill="grey" stroke="grey" stroke-width="2" points="87.16,-334.53 85.25,-324.1 80.24,-333.44 87.16,-334.53"/>
</g>
<!-- 9&#45;&gt;8 -->
<g id="edge15" class="edge">
<title>9&#45;&gt;8</title>
<path fill="none" stroke="grey" stroke-width="2" d="M73.17,-431.7C73.73,-423.98 74.39,-414.71 75,-406.11"/>
<polygon fill="grey" stroke="grey" stroke-width="2" points="78.5,-406.33 75.72,-396.1 71.51,-405.83 78.5,-406.33"/>
</g>
<!-- 10 -->
<g id="node11" class="node">
<title>10</title>
<path fill="none" stroke="#d8b456" stroke-width="2" d="M191.44,-324C191.44,-324 154.44,-324 154.44,-324 148.44,-324 142.44,-318 142.44,-312 142.44,-312 142.44,-300 142.44,-300 142.44,-294 148.44,-288 154.44,-288 154.44,-288 191.44,-288 191.44,-288 197.44,-288 203.44,-294 203.44,-300 203.44,-300 203.44,-312 203.44,-312 203.44,-318 197.44,-324 191.44,-324"/>
<text text-anchor="middle" x="172.94" y="-303.5" font-family="sans" font-size="10.00">sofia2cat</text>
</g>
<!-- 10&#45;&gt;2 -->
<g id="edge9" class="edge">
<title>10&#45;&gt;2</title>
<path fill="none" stroke="grey" stroke-width="2" d="M172.94,-287.7C172.94,-279.98 172.94,-270.71 172.94,-262.11"/>
<polygon fill="grey" stroke="grey" stroke-width="2" points="176.44,-262.1 172.94,-252.1 169.44,-262.1 176.44,-262.1"/>
</g>
<!-- 11 -->
<g id="node12" class="node">
<title>11</title>
<path fill="none" stroke="#5682d8" stroke-width="2" d="M191.44,-396C191.44,-396 154.44,-396 154.44,-396 148.44,-396 142.44,-390 142.44,-384 142.44,-384 142.44,-372 142.44,-372 142.44,-366 148.44,-360 154.44,-360 154.44,-360 191.44,-360 191.44,-360 197.44,-360 203.44,-366 203.44,-372 203.44,-372 203.44,-384 203.44,-384 203.44,-390 197.44,-396 191.44,-396"/>
<text text-anchor="middle" x="172.94" y="-375.5" font-family="sans" font-size="10.00">run_sofia</text>
</g>
<!-- 11&#45;&gt;10 -->
<g id="edge17" class="edge">
<title>11&#45;&gt;10</title>
<path fill="none" stroke="grey" stroke-width="2" d="M172.94,-359.7C172.94,-351.98 172.94,-342.71 172.94,-334.11"/>
<polygon fill="grey" stroke="grey" stroke-width="2" points="176.44,-334.1 172.94,-324.1 169.44,-334.1 176.44,-334.1"/>
</g>
<!-- 12&#45;&gt;11 -->
<g id="edge18" class="edge">
<title>12&#45;&gt;11</title>
<path fill="none" stroke="grey" stroke-width="2" d="M172.94,-431.7C172.94,-423.98 172.94,-414.71 172.94,-406.11"/>
<polygon fill="grey" stroke="grey" stroke-width="2" points="176.44,-406.1 172.94,-396.1 169.44,-406.1 176.44,-406.1"/>
</g>
<!-- 13 -->
<g id="node14" class="node">
<title>13</title>
<path fill="none" stroke="#d8b456" stroke-width="2" d="M281.44,-324C281.44,-324 244.44,-324 244.44,-324 238.44,-324 232.44,-318 232.44,-312 232.44,-312 232.44,-300 232.44,-300 232.44,-294 238.44,-288 244.44,-288 244.44,-288 281.44,-288 281.44,-288 287.44,-288 293.44,-294 293.44,-300 293.44,-300 293.44,-312 293.44,-312 293.44,-318 287.44,-324 281.44,-324"/>
<text text-anchor="middle" x="262.94" y="-303.5" font-family="sans" font-size="10.00">sofia2cat</text>
</g>
<!-- 13&#45;&gt;2 -->
<g id="edge10" class="edge">
<title>13&#45;&gt;2</title>
<path fill="none" stroke="grey" stroke-width="2" d="M240.69,-287.7C229.36,-278.88 215.41,-268.03 203.12,-258.47"/>
<polygon fill="grey" stroke="grey" stroke-width="2" points="204.97,-255.48 194.93,-252.1 200.67,-261.01 204.97,-255.48"/>
</g>
<!-- 14 -->
<g id="node15" class="node">
<title>14</title>
<path fill="none" stroke="#5682d8" stroke-width="2" d="M286.44,-396C286.44,-396 249.44,-396 249.44,-396 243.44,-396 237.44,-390 237.44,-384 237.44,-384 237.44,-372 237.44,-372 237.44,-366 243.44,-360 249.44,-360 249.44,-360 286.44,-360 286.44,-360 292.44,-360 298.44,-366 298.44,-372 298.44,-372 298.44,-384 298.44,-384 298.44,-390 292.44,-396 286.44,-396"/>
<text text-anchor="middle" x="267.94" y="-375.5" font-family="sans" font-size="10.00">run_sofia</text>
</g>
<!-- 14&#45;&gt;13 -->
<g id="edge20" class="edge">
<title>14&#45;&gt;13</title>
<path fill="none" stroke="grey" stroke-width="2" d="M266.7,-359.7C266.15,-351.98 265.49,-342.71 264.88,-334.11"/>
<polygon fill="grey" stroke="grey" stroke-width="2" points="268.36,-333.83 264.16,-324.1 261.38,-334.33 268.36,-333.83"/>
</g>
<!-- 15&#45;&gt;14 -->
<g id="edge21" class="edge">
<title>15&#45;&gt;14</title>
<path fill="none" stroke="grey" stroke-width="2" d="M272.46,-431.7C271.79,-423.98 271,-414.71 270.26,-406.11"/>
<polygon fill="grey" stroke="grey" stroke-width="2" points="273.75,-405.77 269.4,-396.1 266.77,-406.37 273.75,-405.77"/>
</g>
<!-- 16&#45;&gt;0 -->
<g id="edge2" class="edge">
<title>16&#45;&gt;0</title>
<path fill="none" stroke="grey" stroke-width="2" d="M87.58,-71.88C102.47,-62.66 121,-51.17 137,-41.26"/>
<polygon fill="grey" stroke="grey" stroke-width="2" points="138.92,-44.19 145.58,-35.95 135.24,-38.24 138.92,-44.19"/>
</g>
<!-- 17&#45;&gt;0 -->
<g id="edge3" class="edge">
<title>17&#45;&gt;0</title>
<path fill="none" stroke="grey" stroke-width="2" d="M172.94,-71.7C172.94,-63.98 172.94,-54.71 172.94,-46.11"/>
<polygon fill="grey" stroke="grey" stroke-width="2" points="176.44,-46.1 172.94,-36.1 169.44,-46.1 176.44,-46.1"/>
</g>
<!-- 18&#45;&gt;0 -->
<g id="edge4" class="edge">
<title>18&#45;&gt;0</title>
<path fill="none" stroke="grey" stroke-width="2" d="M230.91,-71.7C221.39,-63.05 209.73,-52.45 199.37,-43.03"/>
<polygon fill="grey" stroke="grey" stroke-width="2" points="201.51,-40.24 191.75,-36.1 196.8,-45.42 201.51,-40.24"/>
</g>
<!-- 19&#45;&gt;0 -->
<g id="edge5" class="edge">
<title>19&#45;&gt;0</title>
<path fill="none" stroke="grey" stroke-width="2" d="M299.23,-75.67C273.69,-64.21 236.75,-47.64 209.42,-35.37"/>
<polygon fill="grey" stroke="grey" stroke-width="2" points="210.74,-32.13 200.19,-31.23 207.88,-38.51 210.74,-32.13"/>
</g>
</g>
</svg>
