<?xml version="1.0" encoding="UTF-8" standalone="no"?>
<!DOCTYPE svg PUBLIC "-//W3C//DTD SVG 1.1//EN"
 "http://www.w3.org/Graphics/SVG/1.1/DTD/svg11.dtd">
<!-- Generated by graphviz version 2.47.3 (20210619.2315)
 -->
<!-- Title: snakemake_dag Pages: 1 -->
<svg width="1037pt" height="1488pt"
 viewBox="0.00 0.00 1037.00 1488.00" xmlns="http://www.w3.org/2000/svg" xmlns:xlink="http://www.w3.org/1999/xlink">
<g id="graph0" class="graph" transform="scale(1 1) rotate(0) translate(4 1484)">
<title>snakemake_dag</title>
<polygon fill="white" stroke="transparent" points="-4,4 -4,-1484 1033,-1484 1033,4 -4,4"/>
<!-- 0 -->
<g id="node1" class="node">
<title>0</title>
<text text-anchor="start" x="433.5" y="-161.6" font-family="sans" font-weight="bold" font-size="18.00">all</text>
<text text-anchor="start" x="313.5" y="-137.8" font-family="sans" font-size="10.00"> </text>
<text text-anchor="start" x="317.5" y="-137.8" font-family="sans" font-weight="bold" font-size="14.00">↪ input</text>
<text text-anchor="start" x="375.5" y="-137.8" font-family="sans" font-size="10.00"> </text>
<text text-anchor="start" x="313.5" y="-118" font-family="monospace" font-size="10.00">results/catalogs/final_catalog.csv</text>
<text text-anchor="start" x="313.5" y="-100" font-family="monospace" font-size="10.00">results/notebooks/sdc2_hi&#45;friends.ipynb</text>
<text text-anchor="start" x="313.5" y="-82" font-family="monospace" font-size="10.00">results/plots/output_params_distribution.png</text>
<text text-anchor="start" x="313.5" y="-64" font-family="monospace" font-size="10.00">summary/dag.svg</text>
<text text-anchor="start" x="313.5" y="-46" font-family="monospace" font-size="10.00">summary/filegraph.svg</text>
<text text-anchor="start" x="313.5" y="-28" font-family="monospace" font-size="10.00">summary/rulegraph.svg</text>
<text text-anchor="start" x="571.5" y="-10" font-family="sans" font-size="10.00"> &#160;</text>
<polygon fill="#d9b557" stroke="#d9b557" points="307.5,-152 307.5,-152 585.5,-152 585.5,-152 307.5,-152"/>
<polygon fill="#d9b557" stroke="#d9b557" points="307.5,-22 307.5,-22 585.5,-22 585.5,-22 307.5,-22"/>
<polygon fill="none" stroke="#d9b557" stroke-width="2" points="307,-1 307,-181 584,-181 584,-1 307,-1"/>
</g>
<!-- 1 -->
<g id="node2" class="node">
<title>1</title>
<text text-anchor="start" x="354.5" y="-497.6" font-family="sans" font-weight="bold" font-size="18.00">final_catalog</text>
<text text-anchor="start" x="294.5" y="-473.8" font-family="sans" font-size="10.00"> </text>
<text text-anchor="start" x="298.5" y="-473.8" font-family="sans" font-weight="bold" font-size="14.00">↪ input</text>
<text text-anchor="start" x="356.5" y="-473.8" font-family="sans" font-size="10.00"> </text>
<text text-anchor="start" x="294.5" y="-454" font-family="monospace" font-size="10.00">results/catalogs/catalog_w_duplicates.csv</text>
<text text-anchor="start" x="463.5" y="-433.8" font-family="sans" font-size="10.00"> </text>
<text text-anchor="start" x="467.5" y="-433.8" font-family="sans" font-weight="bold" font-size="14.00">output →</text>
<text text-anchor="start" x="537.5" y="-433.8" font-family="sans" font-size="10.00"> </text>
<text text-anchor="start" x="294.5" y="-414" font-family="monospace" font-size="10.00">results/catalogs/final_catalog.csv</text>
<polygon fill="#5786d9" stroke="#5786d9" points="288.5,-488 288.5,-488 548.5,-488 548.5,-488 288.5,-488"/>
<polygon fill="#5786d9" stroke="#5786d9" points="288.5,-448 288.5,-448 548.5,-448 548.5,-448 288.5,-448"/>
<polygon fill="none" stroke="#5786d9" stroke-width="2" points="288,-405 288,-517 547,-517 547,-405 288,-405"/>
</g>
<!-- 1&#45;&gt;0 -->
<g id="edge5" class="edge">
<title>1&#45;&gt;0</title>
<path fill="none" stroke="grey" stroke-width="2" d="M349.05,-403.77C339.86,-392.92 331.8,-380.88 326.5,-368 301.16,-306.34 301.87,-279.95 326.5,-218 330.29,-208.47 335.18,-199.23 340.82,-190.4"/>
<polygon fill="grey" stroke="grey" stroke-width="2" points="343.76,-192.3 346.43,-182.05 337.95,-188.39 343.76,-192.3"/>
</g>
<!-- 7 -->
<g id="node8" class="node">
<title>7</title>
<text text-anchor="start" x="96" y="-347.6" font-family="sans" font-weight="bold" font-size="18.00">visualize</text>
<text text-anchor="start" x="7.5" y="-323.8" font-family="sans" font-size="10.00"> </text>
<text text-anchor="start" x="11.5" y="-323.8" font-family="sans" font-weight="bold" font-size="14.00">↪ input</text>
<text text-anchor="start" x="69.5" y="-323.8" font-family="sans" font-size="10.00"> </text>
<text text-anchor="start" x="7.5" y="-304" font-family="monospace" font-size="10.00">results/catalogs/catalog_w_duplicates.csv</text>
<text text-anchor="start" x="7.5" y="-286" font-family="monospace" font-size="10.00">results/catalogs/coord_subcubes.csv</text>
<text text-anchor="start" x="7.5" y="-268" font-family="monospace" font-size="10.00">results/catalogs/final_catalog.csv</text>
<text text-anchor="start" x="194.5" y="-247.8" font-family="sans" font-size="10.00"> </text>
<text text-anchor="start" x="198.5" y="-247.8" font-family="sans" font-weight="bold" font-size="14.00">output →</text>
<text text-anchor="start" x="268.5" y="-247.8" font-family="sans" font-size="10.00"> </text>
<text text-anchor="start" x="7.5" y="-228" font-family="monospace" font-size="10.00">results/plots/output_params_distribution.png</text>
<polygon fill="#57d99e" stroke="#57d99e" points="1.5,-338 1.5,-338 279.5,-338 279.5,-338 1.5,-338"/>
<polygon fill="#57d99e" stroke="#57d99e" points="1.5,-262 1.5,-262 279.5,-262 279.5,-262 1.5,-262"/>
<polygon fill="none" stroke="#57d99e" stroke-width="2" points="1,-219 1,-367 278,-367 278,-219 1,-219"/>
</g>
<!-- 1&#45;&gt;7 -->
<g id="edge13" class="edge">
<title>1&#45;&gt;7</title>
<path fill="none" stroke="grey" stroke-width="2" d="M323.38,-403.8C307.02,-394.03 289.72,-383.7 272.55,-373.45"/>
<polygon fill="grey" stroke="grey" stroke-width="2" points="273.97,-370.22 263.59,-368.09 270.38,-376.23 273.97,-370.22"/>
</g>
<!-- 8 -->
<g id="node9" class="node">
<title>8</title>
<text text-anchor="start" x="427" y="-329.6" font-family="sans" font-weight="bold" font-size="18.00">dag</text>
<text text-anchor="start" x="343.5" y="-305.8" font-family="sans" font-size="10.00"> </text>
<text text-anchor="start" x="347.5" y="-305.8" font-family="sans" font-weight="bold" font-size="14.00">↪ input</text>
<text text-anchor="start" x="405.5" y="-305.8" font-family="sans" font-size="10.00"> </text>
<text text-anchor="start" x="343.5" y="-286" font-family="monospace" font-size="10.00">results/catalogs/final_catalog.csv</text>
<text text-anchor="start" x="470.5" y="-265.8" font-family="sans" font-size="10.00"> </text>
<text text-anchor="start" x="474.5" y="-265.8" font-family="sans" font-weight="bold" font-size="14.00">output →</text>
<text text-anchor="start" x="544.5" y="-265.8" font-family="sans" font-size="10.00"> </text>
<text text-anchor="start" x="343.5" y="-246" font-family="monospace" font-size="10.00">summary/dag.svg</text>
<polygon fill="#9ed957" stroke="#9ed957" points="337.5,-320 337.5,-320 555.5,-320 555.5,-320 337.5,-320"/>
<polygon fill="#9ed957" stroke="#9ed957" points="337.5,-280 337.5,-280 555.5,-280 555.5,-280 337.5,-280"/>
<polygon fill="none" stroke="#9ed957" stroke-width="2" points="337,-237 337,-349 554,-349 554,-237 337,-237"/>
</g>
<!-- 1&#45;&gt;8 -->
<g id="edge14" class="edge">
<title>1&#45;&gt;8</title>
<path fill="none" stroke="grey" stroke-width="2" d="M426.98,-403.8C429.35,-389.74 431.92,-374.53 434.36,-360.04"/>
<polygon fill="grey" stroke="grey" stroke-width="2" points="437.82,-360.59 436.03,-350.14 430.92,-359.42 437.82,-360.59"/>
</g>
<!-- 9 -->
<g id="node10" class="node">
<title>9</title>
<text text-anchor="start" x="633" y="-329.6" font-family="sans" font-weight="bold" font-size="18.00">rulegraph</text>
<text text-anchor="start" x="580.5" y="-305.8" font-family="sans" font-size="10.00"> </text>
<text text-anchor="start" x="584.5" y="-305.8" font-family="sans" font-weight="bold" font-size="14.00">↪ input</text>
<text text-anchor="start" x="642.5" y="-305.8" font-family="sans" font-size="10.00"> </text>
<text text-anchor="start" x="580.5" y="-286" font-family="monospace" font-size="10.00">results/catalogs/final_catalog.csv</text>
<text text-anchor="start" x="707.5" y="-265.8" font-family="sans" font-size="10.00"> </text>
<text text-anchor="start" x="711.5" y="-265.8" font-family="sans" font-weight="bold" font-size="14.00">output →</text>
<text text-anchor="start" x="781.5" y="-265.8" font-family="sans" font-size="10.00"> </text>
<text text-anchor="start" x="580.5" y="-246" font-family="monospace" font-size="10.00">summary/rulegraph.svg</text>
<polygon fill="#6ed957" stroke="#6ed957" points="574.5,-320 574.5,-320 792.5,-320 792.5,-320 574.5,-320"/>
<polygon fill="#6ed957" stroke="#6ed957" points="574.5,-280 574.5,-280 792.5,-280 792.5,-280 574.5,-280"/>
<polygon fill="none" stroke="#6ed957" stroke-width="2" points="574,-237 574,-349 791,-349 791,-237 574,-237"/>
</g>
<!-- 1&#45;&gt;9 -->
<g id="edge15" class="edge">
<title>1&#45;&gt;9</title>
<path fill="none" stroke="grey" stroke-width="2" d="M507.22,-403.8C532.04,-388.25 559.11,-371.3 584.38,-355.46"/>
<polygon fill="grey" stroke="grey" stroke-width="2" points="586.26,-358.42 592.88,-350.14 582.54,-352.48 586.26,-358.42"/>
</g>
<!-- 10 -->
<g id="node11" class="node">
<title>10</title>
<text text-anchor="start" x="874.5" y="-329.6" font-family="sans" font-weight="bold" font-size="18.00">filegraph</text>
<text text-anchor="start" x="817.5" y="-305.8" font-family="sans" font-size="10.00"> </text>
<text text-anchor="start" x="821.5" y="-305.8" font-family="sans" font-weight="bold" font-size="14.00">↪ input</text>
<text text-anchor="start" x="879.5" y="-305.8" font-family="sans" font-size="10.00"> </text>
<text text-anchor="start" x="817.5" y="-286" font-family="monospace" font-size="10.00">results/catalogs/final_catalog.csv</text>
<text text-anchor="start" x="944.5" y="-265.8" font-family="sans" font-size="10.00"> </text>
<text text-anchor="start" x="948.5" y="-265.8" font-family="sans" font-weight="bold" font-size="14.00">output →</text>
<text text-anchor="start" x="1018.5" y="-265.8" font-family="sans" font-size="10.00"> </text>
<text text-anchor="start" x="817.5" y="-246" font-family="monospace" font-size="10.00">summary/filegraph.svg</text>
<polygon fill="#d95757" stroke="#d95757" points="811.5,-320 811.5,-320 1029.5,-320 1029.5,-320 811.5,-320"/>
<polygon fill="#d95757" stroke="#d95757" points="811.5,-280 811.5,-280 1029.5,-280 1029.5,-280 811.5,-280"/>
<polygon fill="none" stroke="#d95757" stroke-width="2" points="811,-237 811,-349 1028,-349 1028,-237 811,-237"/>
</g>
<!-- 1&#45;&gt;10 -->
<g id="edge16" class="edge">
<title>1&#45;&gt;10</title>
<path fill="none" stroke="grey" stroke-width="2" d="M548.38,-439.57C624.22,-425.07 720.44,-402.05 801.5,-368 810.53,-364.21 819.66,-359.76 828.62,-354.97"/>
<polygon fill="grey" stroke="grey" stroke-width="2" points="830.45,-357.96 837.52,-350.07 827.08,-351.82 830.45,-357.96"/>
</g>
<!-- 2 -->
<g id="node3" class="node">
<title>2</title>
<text text-anchor="start" x="220.5" y="-863.6" font-family="sans" font-weight="bold" font-size="18.00">concatenate_catalogs</text>
<text text-anchor="start" x="193.5" y="-839.8" font-family="sans" font-size="10.00"> </text>
<text text-anchor="start" x="197.5" y="-839.8" font-family="sans" font-weight="bold" font-size="14.00">↪ input</text>
<text text-anchor="start" x="255.5" y="-839.8" font-family="sans" font-size="10.00"> </text>
<text text-anchor="start" x="193.5" y="-820" font-family="monospace" font-size="10.00">results/sofia/0/subcube_0_final_catalog.csv</text>
<text text-anchor="start" x="193.5" y="-802" font-family="monospace" font-size="10.00">results/sofia/1/subcube_1_final_catalog.csv</text>
<text text-anchor="start" x="193.5" y="-784" font-family="monospace" font-size="10.00">results/sofia/10/subcube_10_final_catalog.csv</text>
<text text-anchor="start" x="193.5" y="-766" font-family="monospace" font-size="10.00">results/sofia/11/subcube_11_final_catalog.csv</text>
<text text-anchor="start" x="193.5" y="-748" font-family="monospace" font-size="10.00">results/sofia/12/subcube_12_final_catalog.csv</text>
<text text-anchor="start" x="193.5" y="-730" font-family="monospace" font-size="10.00">results/sofia/13/subcube_13_final_catalog.csv</text>
<text text-anchor="start" x="193.5" y="-712" font-family="monospace" font-size="10.00">results/sofia/14/subcube_14_final_catalog.csv</text>
<text text-anchor="start" x="193.5" y="-694" font-family="monospace" font-size="10.00">results/sofia/15/subcube_15_final_catalog.csv</text>
<text text-anchor="start" x="193.5" y="-676" font-family="monospace" font-size="10.00">results/sofia/2/subcube_2_final_catalog.csv</text>
<text text-anchor="start" x="193.5" y="-658" font-family="monospace" font-size="10.00">results/sofia/3/subcube_3_final_catalog.csv</text>
<text text-anchor="start" x="193.5" y="-640" font-family="monospace" font-size="10.00">results/sofia/7/subcube_7_final_catalog.csv</text>
<text text-anchor="start" x="193.5" y="-622" font-family="monospace" font-size="10.00">results/sofia/8/subcube_8_final_catalog.csv</text>
<text text-anchor="start" x="193.5" y="-604" font-family="monospace" font-size="10.00">results/sofia/9/subcube_9_final_catalog.csv</text>
<text text-anchor="start" x="386.5" y="-583.8" font-family="sans" font-size="10.00"> </text>
<text text-anchor="start" x="390.5" y="-583.8" font-family="sans" font-weight="bold" font-size="14.00">output →</text>
<text text-anchor="start" x="460.5" y="-583.8" font-family="sans" font-size="10.00"> </text>
<text text-anchor="start" x="193.5" y="-564" font-family="monospace" font-size="10.00">results/catalogs/catalog_w_duplicates.csv</text>
<polygon fill="#57d9cd" stroke="#57d9cd" points="187.5,-854 187.5,-854 471.5,-854 471.5,-854 187.5,-854"/>
<polygon fill="#57d9cd" stroke="#57d9cd" points="187.5,-598 187.5,-598 471.5,-598 471.5,-598 187.5,-598"/>
<polygon fill="none" stroke="#57d9cd" stroke-width="2" points="187,-555 187,-883 470,-883 470,-555 187,-555"/>
</g>
<!-- 2&#45;&gt;1 -->
<g id="edge6" class="edge">
<title>2&#45;&gt;1</title>
<path fill="none" stroke="grey" stroke-width="2" d="M385.62,-553.7C388.76,-544.67 391.81,-535.91 394.69,-527.6"/>
<polygon fill="grey" stroke="grey" stroke-width="2" points="398.02,-528.68 398,-518.08 391.41,-526.38 398.02,-528.68"/>
</g>
<!-- 2&#45;&gt;7 -->
<g id="edge11" class="edge">
<title>2&#45;&gt;7</title>
<path fill="none" stroke="grey" stroke-width="2" d="M255.29,-553.77C228.41,-493.47 199.11,-427.74 176.71,-377.48"/>
<polygon fill="grey" stroke="grey" stroke-width="2" points="179.88,-375.99 172.61,-368.28 173.48,-378.84 179.88,-375.99"/>
</g>
<!-- 3 -->
<g id="node4" class="node">
<title>3</title>
<text text-anchor="start" x="283" y="-1013.6" font-family="sans" font-weight="bold" font-size="18.00">sofia2cat</text>
<text text-anchor="start" x="175.5" y="-989.8" font-family="sans" font-size="10.00"> </text>
<text text-anchor="start" x="179.5" y="-989.8" font-family="sans" font-weight="bold" font-size="14.00">↪ input</text>
<text text-anchor="start" x="237.5" y="-989.8" font-family="sans" font-size="10.00"> </text>
<text text-anchor="start" x="175.5" y="-970" font-family="monospace" font-size="10.00">results/sofia/{idx}/subcube_{idx}_cat.txt</text>
<text text-anchor="start" x="404.5" y="-949.8" font-family="sans" font-size="10.00"> </text>
<text text-anchor="start" x="408.5" y="-949.8" font-family="sans" font-weight="bold" font-size="14.00">output →</text>
<text text-anchor="start" x="478.5" y="-949.8" font-family="sans" font-size="10.00"> </text>
<text text-anchor="start" x="175.5" y="-930" font-family="monospace" font-size="10.00">results/sofia/{idx}/subcube_{idx}_final_catalog.csv</text>
<polygon fill="#57d96e" stroke="#57d96e" points="169.5,-1004 169.5,-1004 489.5,-1004 489.5,-1004 169.5,-1004"/>
<polygon fill="#57d96e" stroke="#57d96e" points="169.5,-964 169.5,-964 489.5,-964 489.5,-964 169.5,-964"/>
<polygon fill="none" stroke="#57d96e" stroke-width="2" points="169,-921 169,-1033 488,-1033 488,-921 169,-921"/>
</g>
<!-- 3&#45;&gt;2 -->
<g id="edge7" class="edge">
<title>3&#45;&gt;2</title>
<path fill="none" stroke="grey" stroke-width="2" d="M328.5,-919.82C328.5,-911.8 328.5,-903.22 328.5,-894.3"/>
<polygon fill="grey" stroke="grey" stroke-width="2" points="332,-894.09 328.5,-884.09 325,-894.09 332,-894.09"/>
</g>
<!-- 4 -->
<g id="node5" class="node">
<title>4</title>
<text text-anchor="start" x="268" y="-1163.6" font-family="sans" font-weight="bold" font-size="18.00">run_sofia</text>
<text text-anchor="start" x="190.5" y="-1139.8" font-family="sans" font-size="10.00"> </text>
<text text-anchor="start" x="194.5" y="-1139.8" font-family="sans" font-weight="bold" font-size="14.00">↪ input</text>
<text text-anchor="start" x="252.5" y="-1139.8" font-family="sans" font-size="10.00"> </text>
<text text-anchor="start" x="190.5" y="-1120" font-family="monospace" font-size="10.00">interim/subcubes/subcube_{idx}.fits</text>
<text text-anchor="start" x="359.5" y="-1099.8" font-family="sans" font-size="10.00"> </text>
<text text-anchor="start" x="363.5" y="-1099.8" font-family="sans" font-weight="bold" font-size="14.00">output →</text>
<text text-anchor="start" x="433.5" y="-1099.8" font-family="sans" font-size="10.00"> </text>
<text text-anchor="start" x="190.5" y="-1080" font-family="monospace" font-size="10.00">results/sofia/{idx}/subcube_{idx}_cat.txt</text>
<polygon fill="#57b5d9" stroke="#57b5d9" points="184.5,-1154 184.5,-1154 444.5,-1154 444.5,-1154 184.5,-1154"/>
<polygon fill="#57b5d9" stroke="#57b5d9" points="184.5,-1114 184.5,-1114 444.5,-1114 444.5,-1114 184.5,-1114"/>
<polygon fill="none" stroke="#57b5d9" stroke-width="2" points="184,-1071 184,-1183 443,-1183 443,-1071 184,-1071"/>
</g>
<!-- 4&#45;&gt;3 -->
<g id="edge8" class="edge">
<title>4&#45;&gt;3</title>
<path fill="none" stroke="grey" stroke-width="2" d="M319.21,-1069.63C320.05,-1061.38 320.92,-1052.82 321.77,-1044.4"/>
<polygon fill="grey" stroke="grey" stroke-width="2" points="325.28,-1044.52 322.8,-1034.22 318.31,-1043.81 325.28,-1044.52"/>
</g>
<!-- 5 -->
<g id="node6" class="node">
<title>5</title>
<text text-anchor="start" x="221.5" y="-1313.6" font-family="sans" font-weight="bold" font-size="18.00">split_subcube</text>
<text text-anchor="start" x="184.5" y="-1289.8" font-family="sans" font-size="10.00"> </text>
<text text-anchor="start" x="188.5" y="-1289.8" font-family="sans" font-weight="bold" font-size="14.00">↪ input</text>
<text text-anchor="start" x="246.5" y="-1289.8" font-family="sans" font-size="10.00"> </text>
<text text-anchor="start" x="184.5" y="-1270" font-family="monospace" font-size="10.00">results/catalogs/coord_subcubes.csv</text>
<text text-anchor="start" x="317.5" y="-1249.8" font-family="sans" font-size="10.00"> </text>
<text text-anchor="start" x="321.5" y="-1249.8" font-family="sans" font-weight="bold" font-size="14.00">output →</text>
<text text-anchor="start" x="391.5" y="-1249.8" font-family="sans" font-size="10.00"> </text>
<text text-anchor="start" x="184.5" y="-1230" font-family="monospace" font-size="10.00">interim/subcubes/subcube_{idx}.fits</text>
<polygon fill="#d98657" stroke="#d98657" points="178.5,-1304 178.5,-1304 402.5,-1304 402.5,-1304 178.5,-1304"/>
<polygon fill="#d98657" stroke="#d98657" points="178.5,-1264 178.5,-1264 402.5,-1264 402.5,-1264 178.5,-1264"/>
<polygon fill="none" stroke="#d98657" stroke-width="2" points="178,-1221 178,-1333 401,-1333 401,-1221 178,-1221"/>
</g>
<!-- 5&#45;&gt;4 -->
<g id="edge9" class="edge">
<title>5&#45;&gt;4</title>
<path fill="none" stroke="grey" stroke-width="2" d="M298.64,-1219.63C299.99,-1211.29 301.4,-1202.63 302.78,-1194.12"/>
<polygon fill="grey" stroke="grey" stroke-width="2" points="306.24,-1194.65 304.38,-1184.22 299.33,-1193.53 306.24,-1194.65"/>
</g>
<!-- 6 -->
<g id="node7" class="node">
<title>6</title>
<text text-anchor="start" x="138" y="-1459.6" font-family="sans" font-weight="bold" font-size="18.00">define_chunks</text>
<text text-anchor="start" x="104.5" y="-1438" font-family="sans" font-size="10.00"> &#160;</text>
<text text-anchor="start" x="237.5" y="-1417.8" font-family="sans" font-size="10.00"> </text>
<text text-anchor="start" x="241.5" y="-1417.8" font-family="sans" font-weight="bold" font-size="14.00">output →</text>
<text text-anchor="start" x="311.5" y="-1417.8" font-family="sans" font-size="10.00"> </text>
<text text-anchor="start" x="104.5" y="-1398" font-family="monospace" font-size="10.00">results/catalogs/coord_subcubes.csv</text>
<text text-anchor="start" x="104.5" y="-1380" font-family="monospace" font-size="10.00">results/plots/subcube_grid.png</text>
<polygon fill="#cdd957" stroke="#cdd957" points="98.5,-1450 98.5,-1450 322.5,-1450 322.5,-1450 98.5,-1450"/>
<polygon fill="#cdd957" stroke="#cdd957" points="98.5,-1432 98.5,-1432 322.5,-1432 322.5,-1432 98.5,-1432"/>
<polygon fill="none" stroke="#cdd957" stroke-width="2" points="98,-1371 98,-1479 321,-1479 321,-1371 98,-1371"/>
</g>
<!-- 6&#45;&gt;5 -->
<g id="edge10" class="edge">
<title>6&#45;&gt;5</title>
<path fill="none" stroke="grey" stroke-width="2" d="M239.29,-1369.63C244.02,-1361 248.96,-1351.99 253.81,-1343.14"/>
<polygon fill="grey" stroke="grey" stroke-width="2" points="256.88,-1344.81 258.62,-1334.36 250.74,-1341.45 256.88,-1344.81"/>
</g>
<!-- 6&#45;&gt;7 -->
<g id="edge12" class="edge">
<title>6&#45;&gt;7</title>
<path fill="none" stroke="grey" stroke-width="2" d="M181.02,-1369.81C175.85,-1358.24 171,-1345.91 167.5,-1334 141.45,-1245.35 139.5,-1220.4 139.5,-1128 139.5,-1128 139.5,-1128 139.5,-718 139.5,-600.23 139.5,-464.05 139.5,-378.48"/>
<polygon fill="grey" stroke="grey" stroke-width="2" points="143,-378.29 139.5,-368.29 136,-378.29 143,-378.29"/>
</g>
<!-- 7&#45;&gt;0 -->
<g id="edge4" class="edge">
<title>7&#45;&gt;0</title>
<path fill="none" stroke="grey" stroke-width="2" d="M253.01,-217.81C268.01,-208.01 283.55,-197.85 299,-187.75"/>
<polygon fill="grey" stroke="grey" stroke-width="2" points="301.11,-190.55 307.57,-182.15 297.28,-184.69 301.11,-190.55"/>
</g>
<!-- 8&#45;&gt;0 -->
<g id="edge2" class="edge">
<title>8&#45;&gt;0</title>
<path fill="none" stroke="grey" stroke-width="2" d="M445.5,-235.76C445.5,-222.24 445.5,-207.39 445.5,-192.53"/>
<polygon fill="grey" stroke="grey" stroke-width="2" points="449,-192.25 445.5,-182.25 442,-192.25 449,-192.25"/>
</g>
<!-- 9&#45;&gt;0 -->
<g id="edge3" class="edge">
<title>9&#45;&gt;0</title>
<path fill="none" stroke="grey" stroke-width="2" d="M615.85,-235.76C598.52,-221.13 579.35,-204.96 560.31,-188.89"/>
<polygon fill="grey" stroke="grey" stroke-width="2" points="562.35,-186.03 552.45,-182.25 557.84,-191.38 562.35,-186.03"/>
</g>
<!-- 10&#45;&gt;0 -->
<g id="edge1" class="edge">
<title>10&#45;&gt;0</title>
<path fill="none" stroke="grey" stroke-width="2" d="M835.04,-235.96C823.97,-229.53 812.6,-223.37 801.5,-218 735.81,-186.25 659.95,-158.3 595.19,-136.84"/>
<polygon fill="grey" stroke="grey" stroke-width="2" points="595.9,-133.38 585.3,-133.58 593.71,-140.03 595.9,-133.38"/>
</g>
</g>
</svg>
