<?xml version="1.0" encoding="UTF-8" standalone="no"?>
<!DOCTYPE svg PUBLIC "-//W3C//DTD SVG 1.1//EN"
 "http://www.w3.org/Graphics/SVG/1.1/DTD/svg11.dtd">
<!-- Generated by graphviz version 2.48.0 (20210717.2242)
 -->
<!-- Title: snakemake_dag Pages: 1 -->
<svg width="464pt" height="1488pt"
 viewBox="0.00 0.00 464.00 1488.00" xmlns="http://www.w3.org/2000/svg" xmlns:xlink="http://www.w3.org/1999/xlink">
<g id="graph0" class="graph" transform="scale(1 1) rotate(0) translate(4 1484)">
<title>snakemake_dag</title>
<polygon fill="white" stroke="transparent" points="-4,4 -4,-1484 460,-1484 460,4 -4,4"/>
<!-- 0 -->
<g id="node1" class="node">
<title>0</title>
<text text-anchor="start" x="220.5" y="-107.6" font-family="sans" font-weight="bold" font-size="18.00">all</text>
<text text-anchor="start" x="100.5" y="-83.8" font-family="sans" font-size="10.00"> </text>
<text text-anchor="start" x="104.5" y="-83.8" font-family="sans" font-weight="bold" font-size="14.00">↪ input</text>
<text text-anchor="start" x="162.5" y="-83.8" font-family="sans" font-size="10.00"> </text>
<text text-anchor="start" x="100.5" y="-64" font-family="monospace" font-size="10.00">results/catalogs/final_catalog.csv</text>
<text text-anchor="start" x="100.5" y="-46" font-family="monospace" font-size="10.00">results/notebooks/sdc2_hi&#45;friends.ipynb</text>
<text text-anchor="start" x="100.5" y="-28" font-family="monospace" font-size="10.00">results/plots/output_params_distribution.png</text>
<text text-anchor="start" x="358.5" y="-10" font-family="sans" font-size="10.00"> &#160;</text>
<polygon fill="#6ed957" stroke="#6ed957" points="94.5,-98 94.5,-98 372.5,-98 372.5,-98 94.5,-98"/>
<polygon fill="#6ed957" stroke="#6ed957" points="94.5,-22 94.5,-22 372.5,-22 372.5,-22 94.5,-22"/>
<polygon fill="none" stroke="#6ed957" stroke-width="2" points="94,-1 94,-127 371,-127 371,-1 94,-1"/>
</g>
<!-- 1 -->
<g id="node2" class="node">
<title>1</title>
<text text-anchor="start" x="89.5" y="-443.6" font-family="sans" font-weight="bold" font-size="18.00">final_catalog</text>
<text text-anchor="start" x="29.5" y="-419.8" font-family="sans" font-size="10.00"> </text>
<text text-anchor="start" x="33.5" y="-419.8" font-family="sans" font-weight="bold" font-size="14.00">↪ input</text>
<text text-anchor="start" x="91.5" y="-419.8" font-family="sans" font-size="10.00"> </text>
<text text-anchor="start" x="29.5" y="-400" font-family="monospace" font-size="10.00">results/catalogs/catalog_w_duplicates.csv</text>
<text text-anchor="start" x="198.5" y="-379.8" font-family="sans" font-size="10.00"> </text>
<text text-anchor="start" x="202.5" y="-379.8" font-family="sans" font-weight="bold" font-size="14.00">output →</text>
<text text-anchor="start" x="272.5" y="-379.8" font-family="sans" font-size="10.00"> </text>
<text text-anchor="start" x="29.5" y="-360" font-family="monospace" font-size="10.00">results/catalogs/final_catalog.csv</text>
<polygon fill="#57d99e" stroke="#57d99e" points="23.5,-434 23.5,-434 283.5,-434 283.5,-434 23.5,-434"/>
<polygon fill="#57d99e" stroke="#57d99e" points="23.5,-394 23.5,-394 283.5,-394 283.5,-394 23.5,-394"/>
<polygon fill="none" stroke="#57d99e" stroke-width="2" points="23,-351 23,-463 282,-463 282,-351 23,-351"/>
</g>
<!-- 1&#45;&gt;0 -->
<g id="edge2" class="edge">
<title>1&#45;&gt;0</title>
<path fill="none" stroke="grey" stroke-width="2" d="M147.95,-349.67C145.77,-299.61 147.15,-225.11 167.5,-164 170.57,-154.78 174.72,-145.6 179.45,-136.74"/>
<polygon fill="grey" stroke="grey" stroke-width="2" points="182.51,-138.44 184.35,-128.01 176.4,-135.01 182.51,-138.44"/>
</g>
<!-- 7 -->
<g id="node8" class="node">
<title>7</title>
<text text-anchor="start" x="273" y="-293.6" font-family="sans" font-weight="bold" font-size="18.00">visualize</text>
<text text-anchor="start" x="184.5" y="-269.8" font-family="sans" font-size="10.00"> </text>
<text text-anchor="start" x="188.5" y="-269.8" font-family="sans" font-weight="bold" font-size="14.00">↪ input</text>
<text text-anchor="start" x="246.5" y="-269.8" font-family="sans" font-size="10.00"> </text>
<text text-anchor="start" x="184.5" y="-250" font-family="monospace" font-size="10.00">results/catalogs/catalog_w_duplicates.csv</text>
<text text-anchor="start" x="184.5" y="-232" font-family="monospace" font-size="10.00">results/catalogs/coord_subcubes.csv</text>
<text text-anchor="start" x="184.5" y="-214" font-family="monospace" font-size="10.00">results/catalogs/final_catalog.csv</text>
<text text-anchor="start" x="371.5" y="-193.8" font-family="sans" font-size="10.00"> </text>
<text text-anchor="start" x="375.5" y="-193.8" font-family="sans" font-weight="bold" font-size="14.00">output →</text>
<text text-anchor="start" x="445.5" y="-193.8" font-family="sans" font-size="10.00"> </text>
<text text-anchor="start" x="184.5" y="-174" font-family="monospace" font-size="10.00">results/plots/output_params_distribution.png</text>
<polygon fill="#d98657" stroke="#d98657" points="178.5,-284 178.5,-284 456.5,-284 456.5,-284 178.5,-284"/>
<polygon fill="#d98657" stroke="#d98657" points="178.5,-208 178.5,-208 456.5,-208 456.5,-208 178.5,-208"/>
<polygon fill="none" stroke="#d98657" stroke-width="2" points="178,-165 178,-313 455,-313 455,-165 178,-165"/>
</g>
<!-- 1&#45;&gt;7 -->
<g id="edge8" class="edge">
<title>1&#45;&gt;7</title>
<path fill="none" stroke="grey" stroke-width="2" d="M208.02,-349.8C217.06,-340.66 226.57,-331.03 236.06,-321.42"/>
<polygon fill="grey" stroke="grey" stroke-width="2" points="238.76,-323.67 243.3,-314.09 233.78,-318.75 238.76,-323.67"/>
</g>
<!-- 2 -->
<g id="node3" class="node">
<title>2</title>
<text text-anchor="start" x="52.5" y="-863.6" font-family="sans" font-weight="bold" font-size="18.00">concatenate_catalogs</text>
<text text-anchor="start" x="25.5" y="-839.8" font-family="sans" font-size="10.00"> </text>
<text text-anchor="start" x="29.5" y="-839.8" font-family="sans" font-weight="bold" font-size="14.00">↪ input</text>
<text text-anchor="start" x="87.5" y="-839.8" font-family="sans" font-size="10.00"> </text>
<text text-anchor="start" x="25.5" y="-820" font-family="monospace" font-size="10.00">results/sofia/0/subcube_0_final_catalog.csv</text>
<text text-anchor="start" x="25.5" y="-802" font-family="monospace" font-size="10.00">results/sofia/1/subcube_1_final_catalog.csv</text>
<text text-anchor="start" x="25.5" y="-784" font-family="monospace" font-size="10.00">results/sofia/10/subcube_10_final_catalog.csv</text>
<text text-anchor="start" x="25.5" y="-766" font-family="monospace" font-size="10.00">results/sofia/11/subcube_11_final_catalog.csv</text>
<text text-anchor="start" x="25.5" y="-748" font-family="monospace" font-size="10.00">results/sofia/12/subcube_12_final_catalog.csv</text>
<text text-anchor="start" x="25.5" y="-730" font-family="monospace" font-size="10.00">results/sofia/13/subcube_13_final_catalog.csv</text>
<text text-anchor="start" x="25.5" y="-712" font-family="monospace" font-size="10.00">results/sofia/14/subcube_14_final_catalog.csv</text>
<text text-anchor="start" x="25.5" y="-694" font-family="monospace" font-size="10.00">results/sofia/15/subcube_15_final_catalog.csv</text>
<text text-anchor="start" x="25.5" y="-676" font-family="monospace" font-size="10.00">results/sofia/2/subcube_2_final_catalog.csv</text>
<text text-anchor="start" x="25.5" y="-658" font-family="monospace" font-size="10.00">results/sofia/3/subcube_3_final_catalog.csv</text>
<text text-anchor="start" x="25.5" y="-640" font-family="monospace" font-size="10.00">results/sofia/4/subcube_4_final_catalog.csv</text>
<text text-anchor="start" x="25.5" y="-622" font-family="monospace" font-size="10.00">results/sofia/5/subcube_5_final_catalog.csv</text>
<text text-anchor="start" x="25.5" y="-604" font-family="monospace" font-size="10.00">results/sofia/6/subcube_6_final_catalog.csv</text>
<text text-anchor="start" x="25.5" y="-586" font-family="monospace" font-size="10.00">results/sofia/7/subcube_7_final_catalog.csv</text>
<text text-anchor="start" x="25.5" y="-568" font-family="monospace" font-size="10.00">results/sofia/8/subcube_8_final_catalog.csv</text>
<text text-anchor="start" x="25.5" y="-550" font-family="monospace" font-size="10.00">results/sofia/9/subcube_9_final_catalog.csv</text>
<text text-anchor="start" x="218.5" y="-529.8" font-family="sans" font-size="10.00"> </text>
<text text-anchor="start" x="222.5" y="-529.8" font-family="sans" font-weight="bold" font-size="14.00">output →</text>
<text text-anchor="start" x="292.5" y="-529.8" font-family="sans" font-size="10.00"> </text>
<text text-anchor="start" x="25.5" y="-510" font-family="monospace" font-size="10.00">results/catalogs/catalog_w_duplicates.csv</text>
<polygon fill="#57d9cd" stroke="#57d9cd" points="19.5,-854 19.5,-854 303.5,-854 303.5,-854 19.5,-854"/>
<polygon fill="#57d9cd" stroke="#57d9cd" points="19.5,-544 19.5,-544 303.5,-544 303.5,-544 19.5,-544"/>
<polygon fill="none" stroke="#57d9cd" stroke-width="2" points="19,-501 19,-883 302,-883 302,-501 19,-501"/>
</g>
<!-- 2&#45;&gt;1 -->
<g id="edge3" class="edge">
<title>2&#45;&gt;1</title>
<path fill="none" stroke="grey" stroke-width="2" d="M155.1,-499.88C154.84,-490.95 154.6,-482.31 154.37,-474.15"/>
<polygon fill="grey" stroke="grey" stroke-width="2" points="157.87,-473.98 154.09,-464.08 150.87,-474.18 157.87,-473.98"/>
</g>
<!-- 2&#45;&gt;7 -->
<g id="edge9" class="edge">
<title>2&#45;&gt;7</title>
<path fill="none" stroke="grey" stroke-width="2" d="M277.96,-499.71C283.02,-487.84 287.6,-475.89 291.5,-464 306.19,-419.26 312.6,-367.08 315.26,-324.34"/>
<polygon fill="grey" stroke="grey" stroke-width="2" points="318.76,-324.43 315.83,-314.25 311.77,-324.04 318.76,-324.43"/>
</g>
<!-- 3 -->
<g id="node4" class="node">
<title>3</title>
<text text-anchor="start" x="115" y="-1013.6" font-family="sans" font-weight="bold" font-size="18.00">sofia2cat</text>
<text text-anchor="start" x="7.5" y="-989.8" font-family="sans" font-size="10.00"> </text>
<text text-anchor="start" x="11.5" y="-989.8" font-family="sans" font-weight="bold" font-size="14.00">↪ input</text>
<text text-anchor="start" x="69.5" y="-989.8" font-family="sans" font-size="10.00"> </text>
<text text-anchor="start" x="7.5" y="-970" font-family="monospace" font-size="10.00">results/sofia/{idx}/subcube_{idx}_cat.txt</text>
<text text-anchor="start" x="236.5" y="-949.8" font-family="sans" font-size="10.00"> </text>
<text text-anchor="start" x="240.5" y="-949.8" font-family="sans" font-weight="bold" font-size="14.00">output →</text>
<text text-anchor="start" x="310.5" y="-949.8" font-family="sans" font-size="10.00"> </text>
<text text-anchor="start" x="7.5" y="-930" font-family="monospace" font-size="10.00">results/sofia/{idx}/subcube_{idx}_final_catalog.csv</text>
<polygon fill="#5786d9" stroke="#5786d9" points="1.5,-1004 1.5,-1004 321.5,-1004 321.5,-1004 1.5,-1004"/>
<polygon fill="#5786d9" stroke="#5786d9" points="1.5,-964 1.5,-964 321.5,-964 321.5,-964 1.5,-964"/>
<polygon fill="none" stroke="#5786d9" stroke-width="2" points="1,-921 1,-1033 320,-1033 320,-921 1,-921"/>
</g>
<!-- 3&#45;&gt;2 -->
<g id="edge4" class="edge">
<title>3&#45;&gt;2</title>
<path fill="none" stroke="grey" stroke-width="2" d="M160.5,-919.75C160.5,-911.79 160.5,-903.25 160.5,-894.32"/>
<polygon fill="grey" stroke="grey" stroke-width="2" points="164,-894.08 160.5,-884.08 157,-894.08 164,-894.08"/>
</g>
<!-- 4 -->
<g id="node5" class="node">
<title>4</title>
<text text-anchor="start" x="130" y="-1163.6" font-family="sans" font-weight="bold" font-size="18.00">run_sofia</text>
<text text-anchor="start" x="52.5" y="-1139.8" font-family="sans" font-size="10.00"> </text>
<text text-anchor="start" x="56.5" y="-1139.8" font-family="sans" font-weight="bold" font-size="14.00">↪ input</text>
<text text-anchor="start" x="114.5" y="-1139.8" font-family="sans" font-size="10.00"> </text>
<text text-anchor="start" x="52.5" y="-1120" font-family="monospace" font-size="10.00">interim/subcubes/subcube_{idx}.fits</text>
<text text-anchor="start" x="221.5" y="-1099.8" font-family="sans" font-size="10.00"> </text>
<text text-anchor="start" x="225.5" y="-1099.8" font-family="sans" font-weight="bold" font-size="14.00">output →</text>
<text text-anchor="start" x="295.5" y="-1099.8" font-family="sans" font-size="10.00"> </text>
<text text-anchor="start" x="52.5" y="-1080" font-family="monospace" font-size="10.00">results/sofia/{idx}/subcube_{idx}_cat.txt</text>
<polygon fill="#57d96e" stroke="#57d96e" points="46.5,-1154 46.5,-1154 306.5,-1154 306.5,-1154 46.5,-1154"/>
<polygon fill="#57d96e" stroke="#57d96e" points="46.5,-1114 46.5,-1114 306.5,-1114 306.5,-1114 46.5,-1114"/>
<polygon fill="none" stroke="#57d96e" stroke-width="2" points="46,-1071 46,-1183 305,-1183 305,-1071 46,-1071"/>
</g>
<!-- 4&#45;&gt;3 -->
<g id="edge5" class="edge">
<title>4&#45;&gt;3</title>
<path fill="none" stroke="grey" stroke-width="2" d="M169.79,-1069.63C168.95,-1061.38 168.08,-1052.82 167.23,-1044.4"/>
<polygon fill="grey" stroke="grey" stroke-width="2" points="170.69,-1043.81 166.2,-1034.22 163.72,-1044.52 170.69,-1043.81"/>
</g>
<!-- 5 -->
<g id="node6" class="node">
<title>5</title>
<text text-anchor="start" x="124.5" y="-1313.6" font-family="sans" font-weight="bold" font-size="18.00">split_subcube</text>
<text text-anchor="start" x="87.5" y="-1289.8" font-family="sans" font-size="10.00"> </text>
<text text-anchor="start" x="91.5" y="-1289.8" font-family="sans" font-weight="bold" font-size="14.00">↪ input</text>
<text text-anchor="start" x="149.5" y="-1289.8" font-family="sans" font-size="10.00"> </text>
<text text-anchor="start" x="87.5" y="-1270" font-family="monospace" font-size="10.00">results/catalogs/coord_subcubes.csv</text>
<text text-anchor="start" x="220.5" y="-1249.8" font-family="sans" font-size="10.00"> </text>
<text text-anchor="start" x="224.5" y="-1249.8" font-family="sans" font-weight="bold" font-size="14.00">output →</text>
<text text-anchor="start" x="294.5" y="-1249.8" font-family="sans" font-size="10.00"> </text>
<text text-anchor="start" x="87.5" y="-1230" font-family="monospace" font-size="10.00">interim/subcubes/subcube_{idx}.fits</text>
<polygon fill="#d95757" stroke="#d95757" points="81.5,-1304 81.5,-1304 305.5,-1304 305.5,-1304 81.5,-1304"/>
<polygon fill="#d95757" stroke="#d95757" points="81.5,-1264 81.5,-1264 305.5,-1264 305.5,-1264 81.5,-1264"/>
<polygon fill="none" stroke="#d95757" stroke-width="2" points="81,-1221 81,-1333 304,-1333 304,-1221 81,-1221"/>
</g>
<!-- 5&#45;&gt;4 -->
<g id="edge6" class="edge">
<title>5&#45;&gt;4</title>
<path fill="none" stroke="grey" stroke-width="2" d="M186.02,-1219.63C185.08,-1211.38 184.09,-1202.82 183.13,-1194.4"/>
<polygon fill="grey" stroke="grey" stroke-width="2" points="186.58,-1193.75 181.96,-1184.22 179.62,-1194.55 186.58,-1193.75"/>
</g>
<!-- 6 -->
<g id="node7" class="node">
<title>6</title>
<text text-anchor="start" x="191" y="-1459.6" font-family="sans" font-weight="bold" font-size="18.00">define_chunks</text>
<text text-anchor="start" x="157.5" y="-1438" font-family="sans" font-size="10.00"> &#160;</text>
<text text-anchor="start" x="290.5" y="-1417.8" font-family="sans" font-size="10.00"> </text>
<text text-anchor="start" x="294.5" y="-1417.8" font-family="sans" font-weight="bold" font-size="14.00">output →</text>
<text text-anchor="start" x="364.5" y="-1417.8" font-family="sans" font-size="10.00"> </text>
<text text-anchor="start" x="157.5" y="-1398" font-family="monospace" font-size="10.00">results/catalogs/coord_subcubes.csv</text>
<text text-anchor="start" x="157.5" y="-1380" font-family="monospace" font-size="10.00">results/plots/subcube_grid.png</text>
<polygon fill="#cdd957" stroke="#cdd957" points="151.5,-1450 151.5,-1450 375.5,-1450 375.5,-1450 151.5,-1450"/>
<polygon fill="#cdd957" stroke="#cdd957" points="151.5,-1432 151.5,-1432 375.5,-1432 375.5,-1432 151.5,-1432"/>
<polygon fill="none" stroke="#cdd957" stroke-width="2" points="151,-1371 151,-1479 374,-1479 374,-1371 151,-1371"/>
</g>
<!-- 6&#45;&gt;5 -->
<g id="edge7" class="edge">
<title>6&#45;&gt;5</title>
<path fill="none" stroke="grey" stroke-width="2" d="M236.43,-1369.63C232.34,-1361.09 228.07,-1352.18 223.87,-1343.42"/>
<polygon fill="grey" stroke="grey" stroke-width="2" points="227,-1341.87 219.52,-1334.36 220.69,-1344.89 227,-1341.87"/>
</g>
<!-- 6&#45;&gt;7 -->
<g id="edge10" class="edge">
<title>6&#45;&gt;7</title>
<path fill="none" stroke="grey" stroke-width="2" d="M297.16,-1369.73C303.36,-1358.27 309.2,-1346 313.5,-1334 344.87,-1246.51 349.5,-1220.94 349.5,-1128 349.5,-1128 349.5,-1128 349.5,-691 349.5,-562.87 336.09,-414.8 326.36,-324.3"/>
<polygon fill="grey" stroke="grey" stroke-width="2" points="329.81,-323.66 325.26,-314.1 322.86,-324.42 329.81,-323.66"/>
</g>
<!-- 7&#45;&gt;0 -->
<g id="edge1" class="edge">
<title>7&#45;&gt;0</title>
<path fill="none" stroke="grey" stroke-width="2" d="M280.51,-163.88C276.21,-155.03 271.83,-146.01 267.55,-137.19"/>
<polygon fill="grey" stroke="grey" stroke-width="2" points="270.65,-135.55 263.13,-128.08 264.35,-138.61 270.65,-135.55"/>
</g>
</g>
</svg>
