<?xml version="1.0" encoding="UTF-8" standalone="no"?>
<!DOCTYPE svg PUBLIC "-//W3C//DTD SVG 1.1//EN"
 "http://www.w3.org/Graphics/SVG/1.1/DTD/svg11.dtd">
<!-- Generated by graphviz version 2.47.3 (20210619.2315)
 -->
<!-- Title: snakemake_dag Pages: 1 -->
<svg width="1037pt" height="1326pt"
 viewBox="0.00 0.00 1037.00 1326.00" xmlns="http://www.w3.org/2000/svg" xmlns:xlink="http://www.w3.org/1999/xlink">
<g id="graph0" class="graph" transform="scale(1 1) rotate(0) translate(4 1322)">
<title>snakemake_dag</title>
<polygon fill="white" stroke="transparent" points="-4,4 -4,-1322 1033,-1322 1033,4 -4,4"/>
<!-- 0 -->
<g id="node1" class="node">
<title>0</title>
<text text-anchor="start" x="433.5" y="-161.6" font-family="sans" font-weight="bold" font-size="18.00">all</text>
<text text-anchor="start" x="313.5" y="-137.8" font-family="sans" font-size="10.00"> </text>
<text text-anchor="start" x="317.5" y="-137.8" font-family="sans" font-weight="bold" font-size="14.00">↪ input</text>
<text text-anchor="start" x="375.5" y="-137.8" font-family="sans" font-size="10.00"> </text>
<text text-anchor="start" x="313.5" y="-118" font-family="monospace" font-size="10.00">results/catalogs/final_catalog.csv</text>
<text text-anchor="start" x="313.5" y="-100" font-family="monospace" font-size="10.00">results/notebooks/sdc2_hi&#45;friends.ipynb</text>
<text text-anchor="start" x="313.5" y="-82" font-family="monospace" font-size="10.00">results/plots/output_params_distribution.png</text>
<text text-anchor="start" x="313.5" y="-64" font-family="monospace" font-size="10.00">summary/dag.svg</text>
<text text-anchor="start" x="313.5" y="-46" font-family="monospace" font-size="10.00">summary/filegraph.svg</text>
<text text-anchor="start" x="313.5" y="-28" font-family="monospace" font-size="10.00">summary/rulegraph.svg</text>
<text text-anchor="start" x="571.5" y="-10" font-family="sans" font-size="10.00"> &#160;</text>
<polygon fill="#57d9cd" stroke="#57d9cd" points="307.5,-152 307.5,-152 585.5,-152 585.5,-152 307.5,-152"/>
<polygon fill="#57d9cd" stroke="#57d9cd" points="307.5,-22 307.5,-22 585.5,-22 585.5,-22 307.5,-22"/>
<polygon fill="none" stroke="#57d9cd" stroke-width="2" points="307,-1 307,-181 584,-181 584,-1 307,-1"/>
</g>
<!-- 1 -->
<g id="node2" class="node">
<title>1</title>
<text text-anchor="start" x="354.5" y="-497.6" font-family="sans" font-weight="bold" font-size="18.00">final_catalog</text>
<text text-anchor="start" x="294.5" y="-473.8" font-family="sans" font-size="10.00"> </text>
<text text-anchor="start" x="298.5" y="-473.8" font-family="sans" font-weight="bold" font-size="14.00">↪ input</text>
<text text-anchor="start" x="356.5" y="-473.8" font-family="sans" font-size="10.00"> </text>
<text text-anchor="start" x="294.5" y="-454" font-family="monospace" font-size="10.00">results/catalogs/catalog_w_duplicates.csv</text>
<text text-anchor="start" x="463.5" y="-433.8" font-family="sans" font-size="10.00"> </text>
<text text-anchor="start" x="467.5" y="-433.8" font-family="sans" font-weight="bold" font-size="14.00">output →</text>
<text text-anchor="start" x="537.5" y="-433.8" font-family="sans" font-size="10.00"> </text>
<text text-anchor="start" x="294.5" y="-414" font-family="monospace" font-size="10.00">results/catalogs/final_catalog.csv</text>
<polygon fill="#57b5d9" stroke="#57b5d9" points="288.5,-488 288.5,-488 548.5,-488 548.5,-488 288.5,-488"/>
<polygon fill="#57b5d9" stroke="#57b5d9" points="288.5,-448 288.5,-448 548.5,-448 548.5,-448 288.5,-448"/>
<polygon fill="none" stroke="#57b5d9" stroke-width="2" points="288,-405 288,-517 547,-517 547,-405 288,-405"/>
</g>
<!-- 1&#45;&gt;0 -->
<g id="edge5" class="edge">
<title>1&#45;&gt;0</title>
<path fill="none" stroke="grey" stroke-width="2" d="M349.05,-403.77C339.86,-392.92 331.8,-380.88 326.5,-368 301.16,-306.34 301.87,-279.95 326.5,-218 330.29,-208.47 335.18,-199.23 340.82,-190.4"/>
<polygon fill="grey" stroke="grey" stroke-width="2" points="343.76,-192.3 346.43,-182.05 337.95,-188.39 343.76,-192.3"/>
</g>
<!-- 7 -->
<g id="node8" class="node">
<title>7</title>
<text text-anchor="start" x="96" y="-347.6" font-family="sans" font-weight="bold" font-size="18.00">visualize</text>
<text text-anchor="start" x="7.5" y="-323.8" font-family="sans" font-size="10.00"> </text>
<text text-anchor="start" x="11.5" y="-323.8" font-family="sans" font-weight="bold" font-size="14.00">↪ input</text>
<text text-anchor="start" x="69.5" y="-323.8" font-family="sans" font-size="10.00"> </text>
<text text-anchor="start" x="7.5" y="-304" font-family="monospace" font-size="10.00">results/catalogs/catalog_w_duplicates.csv</text>
<text text-anchor="start" x="7.5" y="-286" font-family="monospace" font-size="10.00">results/catalogs/coord_subcubes.csv</text>
<text text-anchor="start" x="7.5" y="-268" font-family="monospace" font-size="10.00">results/catalogs/final_catalog.csv</text>
<text text-anchor="start" x="194.5" y="-247.8" font-family="sans" font-size="10.00"> </text>
<text text-anchor="start" x="198.5" y="-247.8" font-family="sans" font-weight="bold" font-size="14.00">output →</text>
<text text-anchor="start" x="268.5" y="-247.8" font-family="sans" font-size="10.00"> </text>
<text text-anchor="start" x="7.5" y="-228" font-family="monospace" font-size="10.00">results/plots/output_params_distribution.png</text>
<polygon fill="#57d99e" stroke="#57d99e" points="1.5,-338 1.5,-338 279.5,-338 279.5,-338 1.5,-338"/>
<polygon fill="#57d99e" stroke="#57d99e" points="1.5,-262 1.5,-262 279.5,-262 279.5,-262 1.5,-262"/>
<polygon fill="none" stroke="#57d99e" stroke-width="2" points="1,-219 1,-367 278,-367 278,-219 1,-219"/>
</g>
<!-- 1&#45;&gt;7 -->
<g id="edge12" class="edge">
<title>1&#45;&gt;7</title>
<path fill="none" stroke="grey" stroke-width="2" d="M323.38,-403.8C307.02,-394.03 289.72,-383.7 272.55,-373.45"/>
<polygon fill="grey" stroke="grey" stroke-width="2" points="273.97,-370.22 263.59,-368.09 270.38,-376.23 273.97,-370.22"/>
</g>
<!-- 8 -->
<g id="node9" class="node">
<title>8</title>
<text text-anchor="start" x="427" y="-329.6" font-family="sans" font-weight="bold" font-size="18.00">dag</text>
<text text-anchor="start" x="343.5" y="-305.8" font-family="sans" font-size="10.00"> </text>
<text text-anchor="start" x="347.5" y="-305.8" font-family="sans" font-weight="bold" font-size="14.00">↪ input</text>
<text text-anchor="start" x="405.5" y="-305.8" font-family="sans" font-size="10.00"> </text>
<text text-anchor="start" x="343.5" y="-286" font-family="monospace" font-size="10.00">results/catalogs/final_catalog.csv</text>
<text text-anchor="start" x="470.5" y="-265.8" font-family="sans" font-size="10.00"> </text>
<text text-anchor="start" x="474.5" y="-265.8" font-family="sans" font-weight="bold" font-size="14.00">output →</text>
<text text-anchor="start" x="544.5" y="-265.8" font-family="sans" font-size="10.00"> </text>
<text text-anchor="start" x="343.5" y="-246" font-family="monospace" font-size="10.00">summary/dag.svg</text>
<polygon fill="#6ed957" stroke="#6ed957" points="337.5,-320 337.5,-320 555.5,-320 555.5,-320 337.5,-320"/>
<polygon fill="#6ed957" stroke="#6ed957" points="337.5,-280 337.5,-280 555.5,-280 555.5,-280 337.5,-280"/>
<polygon fill="none" stroke="#6ed957" stroke-width="2" points="337,-237 337,-349 554,-349 554,-237 337,-237"/>
</g>
<!-- 1&#45;&gt;8 -->
<g id="edge14" class="edge">
<title>1&#45;&gt;8</title>
<path fill="none" stroke="grey" stroke-width="2" d="M426.98,-403.8C429.35,-389.74 431.92,-374.53 434.36,-360.04"/>
<polygon fill="grey" stroke="grey" stroke-width="2" points="437.82,-360.59 436.03,-350.14 430.92,-359.42 437.82,-360.59"/>
</g>
<!-- 9 -->
<g id="node10" class="node">
<title>9</title>
<text text-anchor="start" x="633" y="-329.6" font-family="sans" font-weight="bold" font-size="18.00">rulegraph</text>
<text text-anchor="start" x="580.5" y="-305.8" font-family="sans" font-size="10.00"> </text>
<text text-anchor="start" x="584.5" y="-305.8" font-family="sans" font-weight="bold" font-size="14.00">↪ input</text>
<text text-anchor="start" x="642.5" y="-305.8" font-family="sans" font-size="10.00"> </text>
<text text-anchor="start" x="580.5" y="-286" font-family="monospace" font-size="10.00">results/catalogs/final_catalog.csv</text>
<text text-anchor="start" x="707.5" y="-265.8" font-family="sans" font-size="10.00"> </text>
<text text-anchor="start" x="711.5" y="-265.8" font-family="sans" font-weight="bold" font-size="14.00">output →</text>
<text text-anchor="start" x="781.5" y="-265.8" font-family="sans" font-size="10.00"> </text>
<text text-anchor="start" x="580.5" y="-246" font-family="monospace" font-size="10.00">summary/rulegraph.svg</text>
<polygon fill="#cdd957" stroke="#cdd957" points="574.5,-320 574.5,-320 792.5,-320 792.5,-320 574.5,-320"/>
<polygon fill="#cdd957" stroke="#cdd957" points="574.5,-280 574.5,-280 792.5,-280 792.5,-280 574.5,-280"/>
<polygon fill="none" stroke="#cdd957" stroke-width="2" points="574,-237 574,-349 791,-349 791,-237 574,-237"/>
</g>
<!-- 1&#45;&gt;9 -->
<g id="edge15" class="edge">
<title>1&#45;&gt;9</title>
<path fill="none" stroke="grey" stroke-width="2" d="M507.22,-403.8C532.04,-388.25 559.11,-371.3 584.38,-355.46"/>
<polygon fill="grey" stroke="grey" stroke-width="2" points="586.26,-358.42 592.88,-350.14 582.54,-352.48 586.26,-358.42"/>
</g>
<!-- 10 -->
<g id="node11" class="node">
<title>10</title>
<text text-anchor="start" x="874.5" y="-329.6" font-family="sans" font-weight="bold" font-size="18.00">filegraph</text>
<text text-anchor="start" x="817.5" y="-305.8" font-family="sans" font-size="10.00"> </text>
<text text-anchor="start" x="821.5" y="-305.8" font-family="sans" font-weight="bold" font-size="14.00">↪ input</text>
<text text-anchor="start" x="879.5" y="-305.8" font-family="sans" font-size="10.00"> </text>
<text text-anchor="start" x="817.5" y="-286" font-family="monospace" font-size="10.00">results/catalogs/final_catalog.csv</text>
<text text-anchor="start" x="944.5" y="-265.8" font-family="sans" font-size="10.00"> </text>
<text text-anchor="start" x="948.5" y="-265.8" font-family="sans" font-weight="bold" font-size="14.00">output →</text>
<text text-anchor="start" x="1018.5" y="-265.8" font-family="sans" font-size="10.00"> </text>
<text text-anchor="start" x="817.5" y="-246" font-family="monospace" font-size="10.00">summary/filegraph.svg</text>
<polygon fill="#57d96e" stroke="#57d96e" points="811.5,-320 811.5,-320 1029.5,-320 1029.5,-320 811.5,-320"/>
<polygon fill="#57d96e" stroke="#57d96e" points="811.5,-280 811.5,-280 1029.5,-280 1029.5,-280 811.5,-280"/>
<polygon fill="none" stroke="#57d96e" stroke-width="2" points="811,-237 811,-349 1028,-349 1028,-237 811,-237"/>
</g>
<!-- 1&#45;&gt;10 -->
<g id="edge16" class="edge">
<title>1&#45;&gt;10</title>
<path fill="none" stroke="grey" stroke-width="2" d="M548.38,-439.57C624.22,-425.07 720.44,-402.05 801.5,-368 810.53,-364.21 819.66,-359.76 828.62,-354.97"/>
<polygon fill="grey" stroke="grey" stroke-width="2" points="830.45,-357.96 837.52,-350.07 827.08,-351.82 830.45,-357.96"/>
</g>
<!-- 2 -->
<g id="node3" class="node">
<title>2</title>
<text text-anchor="start" x="220.5" y="-701.6" font-family="sans" font-weight="bold" font-size="18.00">concatenate_catalogs</text>
<text text-anchor="start" x="199.5" y="-677.8" font-family="sans" font-size="10.00"> </text>
<text text-anchor="start" x="203.5" y="-677.8" font-family="sans" font-weight="bold" font-size="14.00">↪ input</text>
<text text-anchor="start" x="261.5" y="-677.8" font-family="sans" font-size="10.00"> </text>
<text text-anchor="start" x="199.5" y="-658" font-family="monospace" font-size="10.00">results/sofia/0/subcube_0_final_catalog.csv</text>
<text text-anchor="start" x="199.5" y="-640" font-family="monospace" font-size="10.00">results/sofia/1/subcube_1_final_catalog.csv</text>
<text text-anchor="start" x="199.5" y="-622" font-family="monospace" font-size="10.00">results/sofia/2/subcube_2_final_catalog.csv</text>
<text text-anchor="start" x="199.5" y="-604" font-family="monospace" font-size="10.00">results/sofia/3/subcube_3_final_catalog.csv</text>
<text text-anchor="start" x="380.5" y="-583.8" font-family="sans" font-size="10.00"> </text>
<text text-anchor="start" x="384.5" y="-583.8" font-family="sans" font-weight="bold" font-size="14.00">output →</text>
<text text-anchor="start" x="454.5" y="-583.8" font-family="sans" font-size="10.00"> </text>
<text text-anchor="start" x="199.5" y="-564" font-family="monospace" font-size="10.00">results/catalogs/catalog_w_duplicates.csv</text>
<polygon fill="#d9b557" stroke="#d9b557" points="193.5,-692 193.5,-692 465.5,-692 465.5,-692 193.5,-692"/>
<polygon fill="#d9b557" stroke="#d9b557" points="193.5,-598 193.5,-598 465.5,-598 465.5,-598 193.5,-598"/>
<polygon fill="none" stroke="#d9b557" stroke-width="2" points="193,-555 193,-721 464,-721 464,-555 193,-555"/>
</g>
<!-- 2&#45;&gt;1 -->
<g id="edge6" class="edge">
<title>2&#45;&gt;1</title>
<path fill="none" stroke="grey" stroke-width="2" d="M370.78,-553.86C375.26,-545.05 379.77,-536.18 384.13,-527.61"/>
<polygon fill="grey" stroke="grey" stroke-width="2" points="387.38,-528.95 388.79,-518.45 381.14,-525.78 387.38,-528.95"/>
</g>
<!-- 2&#45;&gt;7 -->
<g id="edge13" class="edge">
<title>2&#45;&gt;7</title>
<path fill="none" stroke="grey" stroke-width="2" d="M282.75,-553.97C253.15,-500.26 214.77,-430.6 185.18,-376.91"/>
<polygon fill="grey" stroke="grey" stroke-width="2" points="188.22,-375.17 180.33,-368.1 182.09,-378.54 188.22,-375.17"/>
</g>
<!-- 3 -->
<g id="node4" class="node">
<title>3</title>
<text text-anchor="start" x="283" y="-851.6" font-family="sans" font-weight="bold" font-size="18.00">sofia2cat</text>
<text text-anchor="start" x="175.5" y="-827.8" font-family="sans" font-size="10.00"> </text>
<text text-anchor="start" x="179.5" y="-827.8" font-family="sans" font-weight="bold" font-size="14.00">↪ input</text>
<text text-anchor="start" x="237.5" y="-827.8" font-family="sans" font-size="10.00"> </text>
<text text-anchor="start" x="175.5" y="-808" font-family="monospace" font-size="10.00">results/sofia/{idx}/subcube_{idx}_cat.txt</text>
<text text-anchor="start" x="404.5" y="-787.8" font-family="sans" font-size="10.00"> </text>
<text text-anchor="start" x="408.5" y="-787.8" font-family="sans" font-weight="bold" font-size="14.00">output →</text>
<text text-anchor="start" x="478.5" y="-787.8" font-family="sans" font-size="10.00"> </text>
<text text-anchor="start" x="175.5" y="-768" font-family="monospace" font-size="10.00">results/sofia/{idx}/subcube_{idx}_final_catalog.csv</text>
<polygon fill="#d98657" stroke="#d98657" points="169.5,-842 169.5,-842 489.5,-842 489.5,-842 169.5,-842"/>
<polygon fill="#d98657" stroke="#d98657" points="169.5,-802 169.5,-802 489.5,-802 489.5,-802 169.5,-802"/>
<polygon fill="none" stroke="#d98657" stroke-width="2" points="169,-759 169,-871 488,-871 488,-759 169,-759"/>
</g>
<!-- 3&#45;&gt;2 -->
<g id="edge7" class="edge">
<title>3&#45;&gt;2</title>
<path fill="none" stroke="grey" stroke-width="2" d="M328.5,-757.67C328.5,-749.55 328.5,-741.02 328.5,-732.42"/>
<polygon fill="grey" stroke="grey" stroke-width="2" points="332,-732.31 328.5,-722.31 325,-732.31 332,-732.31"/>
</g>
<!-- 4 -->
<g id="node5" class="node">
<title>4</title>
<text text-anchor="start" x="268" y="-1001.6" font-family="sans" font-weight="bold" font-size="18.00">run_sofia</text>
<text text-anchor="start" x="190.5" y="-977.8" font-family="sans" font-size="10.00"> </text>
<text text-anchor="start" x="194.5" y="-977.8" font-family="sans" font-weight="bold" font-size="14.00">↪ input</text>
<text text-anchor="start" x="252.5" y="-977.8" font-family="sans" font-size="10.00"> </text>
<text text-anchor="start" x="190.5" y="-958" font-family="monospace" font-size="10.00">interim/subcubes/subcube_{idx}.fits</text>
<text text-anchor="start" x="359.5" y="-937.8" font-family="sans" font-size="10.00"> </text>
<text text-anchor="start" x="363.5" y="-937.8" font-family="sans" font-weight="bold" font-size="14.00">output →</text>
<text text-anchor="start" x="433.5" y="-937.8" font-family="sans" font-size="10.00"> </text>
<text text-anchor="start" x="190.5" y="-918" font-family="monospace" font-size="10.00">results/sofia/{idx}/subcube_{idx}_cat.txt</text>
<polygon fill="#5786d9" stroke="#5786d9" points="184.5,-992 184.5,-992 444.5,-992 444.5,-992 184.5,-992"/>
<polygon fill="#5786d9" stroke="#5786d9" points="184.5,-952 184.5,-952 444.5,-952 444.5,-952 184.5,-952"/>
<polygon fill="none" stroke="#5786d9" stroke-width="2" points="184,-909 184,-1021 443,-1021 443,-909 184,-909"/>
</g>
<!-- 4&#45;&gt;3 -->
<g id="edge8" class="edge">
<title>4&#45;&gt;3</title>
<path fill="none" stroke="grey" stroke-width="2" d="M319.21,-907.63C320.05,-899.38 320.92,-890.82 321.77,-882.4"/>
<polygon fill="grey" stroke="grey" stroke-width="2" points="325.28,-882.52 322.8,-872.22 318.31,-881.81 325.28,-882.52"/>
</g>
<!-- 5 -->
<g id="node6" class="node">
<title>5</title>
<text text-anchor="start" x="221.5" y="-1151.6" font-family="sans" font-weight="bold" font-size="18.00">split_subcube</text>
<text text-anchor="start" x="184.5" y="-1127.8" font-family="sans" font-size="10.00"> </text>
<text text-anchor="start" x="188.5" y="-1127.8" font-family="sans" font-weight="bold" font-size="14.00">↪ input</text>
<text text-anchor="start" x="246.5" y="-1127.8" font-family="sans" font-size="10.00"> </text>
<text text-anchor="start" x="184.5" y="-1108" font-family="monospace" font-size="10.00">results/catalogs/coord_subcubes.csv</text>
<text text-anchor="start" x="317.5" y="-1087.8" font-family="sans" font-size="10.00"> </text>
<text text-anchor="start" x="321.5" y="-1087.8" font-family="sans" font-weight="bold" font-size="14.00">output →</text>
<text text-anchor="start" x="391.5" y="-1087.8" font-family="sans" font-size="10.00"> </text>
<text text-anchor="start" x="184.5" y="-1068" font-family="monospace" font-size="10.00">interim/subcubes/subcube_{idx}.fits</text>
<polygon fill="#9ed957" stroke="#9ed957" points="178.5,-1142 178.5,-1142 402.5,-1142 402.5,-1142 178.5,-1142"/>
<polygon fill="#9ed957" stroke="#9ed957" points="178.5,-1102 178.5,-1102 402.5,-1102 402.5,-1102 178.5,-1102"/>
<polygon fill="none" stroke="#9ed957" stroke-width="2" points="178,-1059 178,-1171 401,-1171 401,-1059 178,-1059"/>
</g>
<!-- 5&#45;&gt;4 -->
<g id="edge9" class="edge">
<title>5&#45;&gt;4</title>
<path fill="none" stroke="grey" stroke-width="2" d="M298.64,-1057.63C299.99,-1049.29 301.4,-1040.63 302.78,-1032.12"/>
<polygon fill="grey" stroke="grey" stroke-width="2" points="306.24,-1032.65 304.38,-1022.22 299.33,-1031.53 306.24,-1032.65"/>
</g>
<!-- 6 -->
<g id="node7" class="node">
<title>6</title>
<text text-anchor="start" x="138" y="-1297.6" font-family="sans" font-weight="bold" font-size="18.00">define_chunks</text>
<text text-anchor="start" x="104.5" y="-1276" font-family="sans" font-size="10.00"> &#160;</text>
<text text-anchor="start" x="237.5" y="-1255.8" font-family="sans" font-size="10.00"> </text>
<text text-anchor="start" x="241.5" y="-1255.8" font-family="sans" font-weight="bold" font-size="14.00">output →</text>
<text text-anchor="start" x="311.5" y="-1255.8" font-family="sans" font-size="10.00"> </text>
<text text-anchor="start" x="104.5" y="-1236" font-family="monospace" font-size="10.00">results/catalogs/coord_subcubes.csv</text>
<text text-anchor="start" x="104.5" y="-1218" font-family="monospace" font-size="10.00">results/plots/subcube_grid.png</text>
<polygon fill="#d95757" stroke="#d95757" points="98.5,-1288 98.5,-1288 322.5,-1288 322.5,-1288 98.5,-1288"/>
<polygon fill="#d95757" stroke="#d95757" points="98.5,-1270 98.5,-1270 322.5,-1270 322.5,-1270 98.5,-1270"/>
<polygon fill="none" stroke="#d95757" stroke-width="2" points="98,-1209 98,-1317 321,-1317 321,-1209 98,-1209"/>
</g>
<!-- 6&#45;&gt;5 -->
<g id="edge10" class="edge">
<title>6&#45;&gt;5</title>
<path fill="none" stroke="grey" stroke-width="2" d="M239.29,-1207.63C244.02,-1199 248.96,-1189.99 253.81,-1181.14"/>
<polygon fill="grey" stroke="grey" stroke-width="2" points="256.88,-1182.81 258.62,-1172.36 250.74,-1179.45 256.88,-1182.81"/>
</g>
<!-- 6&#45;&gt;7 -->
<g id="edge11" class="edge">
<title>6&#45;&gt;7</title>
<path fill="none" stroke="grey" stroke-width="2" d="M181.02,-1207.81C175.85,-1196.24 171,-1183.91 167.5,-1172 141.45,-1083.35 139.5,-1058.4 139.5,-966 139.5,-966 139.5,-966 139.5,-637 139.5,-548.74 139.5,-447.71 139.5,-378.28"/>
<polygon fill="grey" stroke="grey" stroke-width="2" points="143,-378.27 139.5,-368.27 136,-378.27 143,-378.27"/>
</g>
<!-- 7&#45;&gt;0 -->
<g id="edge4" class="edge">
<title>7&#45;&gt;0</title>
<path fill="none" stroke="grey" stroke-width="2" d="M253.01,-217.81C268.01,-208.01 283.55,-197.85 299,-187.75"/>
<polygon fill="grey" stroke="grey" stroke-width="2" points="301.11,-190.55 307.57,-182.15 297.28,-184.69 301.11,-190.55"/>
</g>
<!-- 8&#45;&gt;0 -->
<g id="edge3" class="edge">
<title>8&#45;&gt;0</title>
<path fill="none" stroke="grey" stroke-width="2" d="M445.5,-235.76C445.5,-222.24 445.5,-207.39 445.5,-192.53"/>
<polygon fill="grey" stroke="grey" stroke-width="2" points="449,-192.25 445.5,-182.25 442,-192.25 449,-192.25"/>
</g>
<!-- 9&#45;&gt;0 -->
<g id="edge1" class="edge">
<title>9&#45;&gt;0</title>
<path fill="none" stroke="grey" stroke-width="2" d="M615.85,-235.76C598.52,-221.13 579.35,-204.96 560.31,-188.89"/>
<polygon fill="grey" stroke="grey" stroke-width="2" points="562.35,-186.03 552.45,-182.25 557.84,-191.38 562.35,-186.03"/>
</g>
<!-- 10&#45;&gt;0 -->
<g id="edge2" class="edge">
<title>10&#45;&gt;0</title>
<path fill="none" stroke="grey" stroke-width="2" d="M835.04,-235.96C823.97,-229.53 812.6,-223.37 801.5,-218 735.81,-186.25 659.95,-158.3 595.19,-136.84"/>
<polygon fill="grey" stroke="grey" stroke-width="2" points="595.9,-133.38 585.3,-133.58 593.71,-140.03 595.9,-133.38"/>
</g>
</g>
</svg>
