<?xml version="1.0" encoding="UTF-8" standalone="no"?>
<!DOCTYPE svg PUBLIC "-//W3C//DTD SVG 1.1//EN"
 "http://www.w3.org/Graphics/SVG/1.1/DTD/svg11.dtd">
<!-- Generated by graphviz version 2.47.3 (20210619.2315)
 -->
<!-- Title: snakemake_dag Pages: 1 -->
<svg width="545pt" height="1786pt"
 viewBox="0.00 0.00 545.00 1786.00" xmlns="http://www.w3.org/2000/svg" xmlns:xlink="http://www.w3.org/1999/xlink">
<g id="graph0" class="graph" transform="scale(1 1) rotate(0) translate(4 1782)">
<title>snakemake_dag</title>
<polygon fill="white" stroke="transparent" points="-4,4 -4,-1782 541,-1782 541,4 -4,4"/>
<!-- 0 -->
<g id="node1" class="node">
<title>0</title>
<text text-anchor="start" x="256.5" y="-107.6" font-family="sans" font-weight="bold" font-size="18.00">all</text>
<text text-anchor="start" x="136.5" y="-83.8" font-family="sans" font-size="10.00"> </text>
<text text-anchor="start" x="140.5" y="-83.8" font-family="sans" font-weight="bold" font-size="14.00">↪ input</text>
<text text-anchor="start" x="198.5" y="-83.8" font-family="sans" font-size="10.00"> </text>
<text text-anchor="start" x="136.5" y="-64" font-family="monospace" font-size="10.00">results/catalogs/final_catalog.csv</text>
<text text-anchor="start" x="136.5" y="-46" font-family="monospace" font-size="10.00">results/notebooks/sdc2_hi&#45;friends.ipynb</text>
<text text-anchor="start" x="136.5" y="-28" font-family="monospace" font-size="10.00">results/plots/output_params_distribution.png</text>
<text text-anchor="start" x="394.5" y="-10" font-family="sans" font-size="10.00"> &#160;</text>
<polygon fill="#57d9d9" stroke="#57d9d9" points="130.5,-98 130.5,-98 408.5,-98 408.5,-98 130.5,-98"/>
<polygon fill="#57d9d9" stroke="#57d9d9" points="130.5,-22 130.5,-22 408.5,-22 408.5,-22 130.5,-22"/>
<polygon fill="none" stroke="#57d9d9" stroke-width="2" points="130,-1 130,-127 407,-127 407,-1 130,-1"/>
</g>
<!-- 1 -->
<g id="node2" class="node">
<title>1</title>
<text text-anchor="start" x="106.5" y="-587.6" font-family="sans" font-weight="bold" font-size="18.00">final_catalog</text>
<text text-anchor="start" x="7.5" y="-563.8" font-family="sans" font-size="10.00"> </text>
<text text-anchor="start" x="11.5" y="-563.8" font-family="sans" font-weight="bold" font-size="14.00">↪ input</text>
<text text-anchor="start" x="69.5" y="-563.8" font-family="sans" font-size="10.00"> </text>
<text text-anchor="start" x="7.5" y="-544" font-family="monospace" font-size="10.00">results/catalogs/unfiltered_catalog.csv</text>
<text text-anchor="start" x="254.5" y="-523.8" font-family="sans" font-size="10.00"> </text>
<text text-anchor="start" x="258.5" y="-523.8" font-family="sans" font-weight="bold" font-size="14.00">output →</text>
<text text-anchor="start" x="328.5" y="-523.8" font-family="sans" font-size="10.00"> </text>
<text text-anchor="start" x="7.5" y="-504" font-family="monospace" font-size="10.00">results/catalogs/final_catalog.csv</text>
<text text-anchor="start" x="7.5" y="-486" font-family="monospace" font-size="10.00">results/catalogs/unfiltered_catalog_logMD.csv</text>
<text text-anchor="start" x="7.5" y="-468" font-family="monospace" font-size="10.00">results/catalogs/unfiltered_catalog_logMD_filtered.csv</text>
<polygon fill="#d98257" stroke="#d98257" points="1.5,-578 1.5,-578 339.5,-578 339.5,-578 1.5,-578"/>
<polygon fill="#d98257" stroke="#d98257" points="1.5,-538 1.5,-538 339.5,-538 339.5,-538 1.5,-538"/>
<polygon fill="none" stroke="#d98257" stroke-width="2" points="1,-459 1,-607 338,-607 338,-459 1,-459"/>
</g>
<!-- 1&#45;&gt;0 -->
<g id="edge1" class="edge">
<title>1&#45;&gt;0</title>
<path fill="none" stroke="grey" stroke-width="2" d="M160.22,-457.67C153.66,-381.32 151.62,-260.34 188.5,-164 192.08,-154.64 196.91,-145.48 202.43,-136.76"/>
<polygon fill="grey" stroke="grey" stroke-width="2" points="205.51,-138.44 208.16,-128.18 199.69,-134.55 205.51,-138.44"/>
</g>
<!-- 8 -->
<g id="node9" class="node">
<title>8</title>
<text text-anchor="start" x="324" y="-401.6" font-family="sans" font-weight="bold" font-size="18.00">visualize</text>
<text text-anchor="start" x="205.5" y="-377.8" font-family="sans" font-size="10.00"> </text>
<text text-anchor="start" x="209.5" y="-377.8" font-family="sans" font-weight="bold" font-size="14.00">↪ input</text>
<text text-anchor="start" x="267.5" y="-377.8" font-family="sans" font-size="10.00"> </text>
<text text-anchor="start" x="205.5" y="-358" font-family="monospace" font-size="10.00">resources/sky_ldev_truthcat_v2.txt</text>
<text text-anchor="start" x="205.5" y="-340" font-family="monospace" font-size="10.00">results/catalogs/catalog_w_duplicates.csv</text>
<text text-anchor="start" x="205.5" y="-322" font-family="monospace" font-size="10.00">results/catalogs/coord_subcubes.csv</text>
<text text-anchor="start" x="205.5" y="-304" font-family="monospace" font-size="10.00">results/catalogs/final_catalog.csv</text>
<text text-anchor="start" x="205.5" y="-286" font-family="monospace" font-size="10.00">results/catalogs/unfiltered_catalog_logMD.csv</text>
<text text-anchor="start" x="205.5" y="-268" font-family="monospace" font-size="10.00">results/catalogs/unfiltered_catalog_logMD_filtered.csv</text>
<text text-anchor="start" x="452.5" y="-247.8" font-family="sans" font-size="10.00"> </text>
<text text-anchor="start" x="456.5" y="-247.8" font-family="sans" font-weight="bold" font-size="14.00">output →</text>
<text text-anchor="start" x="526.5" y="-247.8" font-family="sans" font-size="10.00"> </text>
<text text-anchor="start" x="205.5" y="-228" font-family="monospace" font-size="10.00">results/notebooks/sdc2_hi&#45;friends.ipynb</text>
<text text-anchor="start" x="205.5" y="-210" font-family="monospace" font-size="10.00">results/plots/filtered_sources.png</text>
<text text-anchor="start" x="205.5" y="-192" font-family="monospace" font-size="10.00">results/plots/output_params_distribution.png</text>
<text text-anchor="start" x="205.5" y="-174" font-family="monospace" font-size="10.00">results/plots/sky_detected_sources.png</text>
<polygon fill="#d9d957" stroke="#d9d957" points="199.5,-392 199.5,-392 537.5,-392 537.5,-392 199.5,-392"/>
<polygon fill="#d9d957" stroke="#d9d957" points="199.5,-262 199.5,-262 537.5,-262 537.5,-262 199.5,-262"/>
<polygon fill="none" stroke="#d9d957" stroke-width="2" points="199,-165 199,-421 536,-421 536,-165 199,-165"/>
</g>
<!-- 1&#45;&gt;8 -->
<g id="edge10" class="edge">
<title>1&#45;&gt;8</title>
<path fill="none" stroke="grey" stroke-width="2" d="M231.06,-458C238.59,-448.96 246.45,-439.5 254.44,-429.9"/>
<polygon fill="grey" stroke="grey" stroke-width="2" points="257.16,-432.1 260.87,-422.18 251.78,-427.63 257.16,-432.1"/>
</g>
<!-- 2 -->
<g id="node3" class="node">
<title>2</title>
<text text-anchor="start" x="78.5" y="-737.6" font-family="sans" font-weight="bold" font-size="18.00">eliminate_duplicates</text>
<text text-anchor="start" x="58.5" y="-713.8" font-family="sans" font-size="10.00"> </text>
<text text-anchor="start" x="62.5" y="-713.8" font-family="sans" font-weight="bold" font-size="14.00">↪ input</text>
<text text-anchor="start" x="120.5" y="-713.8" font-family="sans" font-size="10.00"> </text>
<text text-anchor="start" x="58.5" y="-694" font-family="monospace" font-size="10.00">results/catalogs/catalog_w_duplicates.csv</text>
<text text-anchor="start" x="227.5" y="-673.8" font-family="sans" font-size="10.00"> </text>
<text text-anchor="start" x="231.5" y="-673.8" font-family="sans" font-weight="bold" font-size="14.00">output →</text>
<text text-anchor="start" x="301.5" y="-673.8" font-family="sans" font-size="10.00"> </text>
<text text-anchor="start" x="58.5" y="-654" font-family="monospace" font-size="10.00">results/catalogs/unfiltered_catalog.csv</text>
<polygon fill="#d9ad57" stroke="#d9ad57" points="52.5,-728 52.5,-728 312.5,-728 312.5,-728 52.5,-728"/>
<polygon fill="#d9ad57" stroke="#d9ad57" points="52.5,-688 52.5,-688 312.5,-688 312.5,-688 52.5,-688"/>
<polygon fill="none" stroke="#d9ad57" stroke-width="2" points="52,-645 52,-757 311,-757 311,-645 52,-645"/>
</g>
<!-- 2&#45;&gt;1 -->
<g id="edge3" class="edge">
<title>2&#45;&gt;1</title>
<path fill="none" stroke="grey" stroke-width="2" d="M177.44,-643.8C176.84,-635.55 176.22,-626.91 175.59,-618.25"/>
<polygon fill="grey" stroke="grey" stroke-width="2" points="179.07,-617.82 174.86,-608.09 172.09,-618.32 179.07,-617.82"/>
</g>
<!-- 3 -->
<g id="node4" class="node">
<title>3</title>
<text text-anchor="start" x="96.5" y="-1031.6" font-family="sans" font-weight="bold" font-size="18.00">concatenate_catalogs</text>
<text text-anchor="start" x="75.5" y="-1007.8" font-family="sans" font-size="10.00"> </text>
<text text-anchor="start" x="79.5" y="-1007.8" font-family="sans" font-weight="bold" font-size="14.00">↪ input</text>
<text text-anchor="start" x="137.5" y="-1007.8" font-family="sans" font-size="10.00"> </text>
<text text-anchor="start" x="75.5" y="-988" font-family="monospace" font-size="10.00">results/sofia/0/subcube_0_final_catalog.csv</text>
<text text-anchor="start" x="75.5" y="-970" font-family="monospace" font-size="10.00">results/sofia/1/subcube_1_final_catalog.csv</text>
<text text-anchor="start" x="75.5" y="-952" font-family="monospace" font-size="10.00">results/sofia/2/subcube_2_final_catalog.csv</text>
<text text-anchor="start" x="75.5" y="-934" font-family="monospace" font-size="10.00">results/sofia/3/subcube_3_final_catalog.csv</text>
<text text-anchor="start" x="75.5" y="-916" font-family="monospace" font-size="10.00">results/sofia/4/subcube_4_final_catalog.csv</text>
<text text-anchor="start" x="75.5" y="-898" font-family="monospace" font-size="10.00">results/sofia/5/subcube_5_final_catalog.csv</text>
<text text-anchor="start" x="75.5" y="-880" font-family="monospace" font-size="10.00">results/sofia/6/subcube_6_final_catalog.csv</text>
<text text-anchor="start" x="75.5" y="-862" font-family="monospace" font-size="10.00">results/sofia/7/subcube_7_final_catalog.csv</text>
<text text-anchor="start" x="75.5" y="-844" font-family="monospace" font-size="10.00">results/sofia/8/subcube_8_final_catalog.csv</text>
<text text-anchor="start" x="256.5" y="-823.8" font-family="sans" font-size="10.00"> </text>
<text text-anchor="start" x="260.5" y="-823.8" font-family="sans" font-weight="bold" font-size="14.00">output →</text>
<text text-anchor="start" x="330.5" y="-823.8" font-family="sans" font-size="10.00"> </text>
<text text-anchor="start" x="75.5" y="-804" font-family="monospace" font-size="10.00">results/catalogs/catalog_w_duplicates.csv</text>
<polygon fill="#5782d9" stroke="#5782d9" points="69.5,-1022 69.5,-1022 341.5,-1022 341.5,-1022 69.5,-1022"/>
<polygon fill="#5782d9" stroke="#5782d9" points="69.5,-838 69.5,-838 341.5,-838 341.5,-838 69.5,-838"/>
<polygon fill="none" stroke="#5782d9" stroke-width="2" points="69,-795 69,-1051 340,-1051 340,-795 69,-795"/>
</g>
<!-- 3&#45;&gt;2 -->
<g id="edge4" class="edge">
<title>3&#45;&gt;2</title>
<path fill="none" stroke="grey" stroke-width="2" d="M191.09,-793.71C190.18,-785.02 189.29,-776.5 188.44,-768.35"/>
<polygon fill="grey" stroke="grey" stroke-width="2" points="191.9,-767.83 187.38,-758.25 184.94,-768.56 191.9,-767.83"/>
</g>
<!-- 3&#45;&gt;8 -->
<g id="edge12" class="edge">
<title>3&#45;&gt;8</title>
<path fill="none" stroke="grey" stroke-width="2" d="M302.71,-793.89C309.38,-782.11 315.45,-770.06 320.5,-758 363.79,-654.7 374.02,-527.55 374.28,-432.49"/>
<polygon fill="grey" stroke="grey" stroke-width="2" points="377.78,-432.23 374.27,-422.23 370.78,-432.24 377.78,-432.23"/>
</g>
<!-- 4 -->
<g id="node5" class="node">
<title>4</title>
<text text-anchor="start" x="159" y="-1217.6" font-family="sans" font-weight="bold" font-size="18.00">sofia2cat</text>
<text text-anchor="start" x="51.5" y="-1193.8" font-family="sans" font-size="10.00"> </text>
<text text-anchor="start" x="55.5" y="-1193.8" font-family="sans" font-weight="bold" font-size="14.00">↪ input</text>
<text text-anchor="start" x="113.5" y="-1193.8" font-family="sans" font-size="10.00"> </text>
<text text-anchor="start" x="51.5" y="-1174" font-family="monospace" font-size="10.00">interim/subcubes/subcube_{idx}.fits</text>
<text text-anchor="start" x="51.5" y="-1156" font-family="monospace" font-size="10.00">results/sofia/{idx}/sofia.par</text>
<text text-anchor="start" x="51.5" y="-1138" font-family="monospace" font-size="10.00">results/sofia/{idx}/subcube_{idx}_cat.txt</text>
<text text-anchor="start" x="280.5" y="-1117.8" font-family="sans" font-size="10.00"> </text>
<text text-anchor="start" x="284.5" y="-1117.8" font-family="sans" font-weight="bold" font-size="14.00">output →</text>
<text text-anchor="start" x="354.5" y="-1117.8" font-family="sans" font-size="10.00"> </text>
<text text-anchor="start" x="51.5" y="-1098" font-family="monospace" font-size="10.00">results/sofia/{idx}/subcube_{idx}_final_catalog.csv</text>
<polygon fill="#add957" stroke="#add957" points="45.5,-1208 45.5,-1208 365.5,-1208 365.5,-1208 45.5,-1208"/>
<polygon fill="#add957" stroke="#add957" points="45.5,-1132 45.5,-1132 365.5,-1132 365.5,-1132 45.5,-1132"/>
<polygon fill="none" stroke="#add957" stroke-width="2" points="45,-1089 45,-1237 364,-1237 364,-1089 45,-1089"/>
</g>
<!-- 4&#45;&gt;3 -->
<g id="edge5" class="edge">
<title>4&#45;&gt;3</title>
<path fill="none" stroke="grey" stroke-width="2" d="M204.5,-1088C204.5,-1079.67 204.5,-1071 204.5,-1062.18"/>
<polygon fill="grey" stroke="grey" stroke-width="2" points="208,-1062.18 204.5,-1052.18 201,-1062.18 208,-1062.18"/>
</g>
<!-- 5 -->
<g id="node6" class="node">
<title>5</title>
<text text-anchor="start" x="151.5" y="-1589.6" font-family="sans" font-weight="bold" font-size="18.00">split_subcube</text>
<text text-anchor="start" x="69.5" y="-1565.8" font-family="sans" font-size="10.00"> </text>
<text text-anchor="start" x="73.5" y="-1565.8" font-family="sans" font-weight="bold" font-size="14.00">↪ input</text>
<text text-anchor="start" x="131.5" y="-1565.8" font-family="sans" font-size="10.00"> </text>
<text text-anchor="start" x="69.5" y="-1546" font-family="monospace" font-size="10.00">/mnt/scratch/sdc2/data/development/sky_dev_v2.fits</text>
<text text-anchor="start" x="69.5" y="-1528" font-family="monospace" font-size="10.00">results/catalogs/coord_subcubes.csv</text>
<text text-anchor="start" x="69.5" y="-1510" font-family="monospace" font-size="10.00">results/plots/subcube_grid.png</text>
<text text-anchor="start" x="292.5" y="-1489.8" font-family="sans" font-size="10.00"> </text>
<text text-anchor="start" x="296.5" y="-1489.8" font-family="sans" font-weight="bold" font-size="14.00">output →</text>
<text text-anchor="start" x="366.5" y="-1489.8" font-family="sans" font-size="10.00"> </text>
<text text-anchor="start" x="69.5" y="-1470" font-family="monospace" font-size="10.00">interim/subcubes/subcube_{idx}.fits</text>
<polygon fill="#57d957" stroke="#57d957" points="63.5,-1580 63.5,-1580 377.5,-1580 377.5,-1580 63.5,-1580"/>
<polygon fill="#57d957" stroke="#57d957" points="63.5,-1504 63.5,-1504 377.5,-1504 377.5,-1504 63.5,-1504"/>
<polygon fill="none" stroke="#57d957" stroke-width="2" points="63,-1461 63,-1609 376,-1609 376,-1461 63,-1461"/>
</g>
<!-- 5&#45;&gt;4 -->
<g id="edge7" class="edge">
<title>5&#45;&gt;4</title>
<path fill="none" stroke="grey" stroke-width="2" d="M117.13,-1459.96C107.64,-1448.98 99.39,-1436.95 93.5,-1424 65.92,-1363.31 67.85,-1335.53 93.5,-1274 97.53,-1264.32 102.88,-1255.06 109.05,-1246.31"/>
<polygon fill="grey" stroke="grey" stroke-width="2" points="112.02,-1248.18 115.2,-1238.07 106.41,-1243.99 112.02,-1248.18"/>
</g>
<!-- 7 -->
<g id="node8" class="node">
<title>7</title>
<text text-anchor="start" x="188" y="-1403.6" font-family="sans" font-weight="bold" font-size="18.00">run_sofia</text>
<text text-anchor="start" x="110.5" y="-1379.8" font-family="sans" font-size="10.00"> </text>
<text text-anchor="start" x="114.5" y="-1379.8" font-family="sans" font-weight="bold" font-size="14.00">↪ input</text>
<text text-anchor="start" x="172.5" y="-1379.8" font-family="sans" font-size="10.00"> </text>
<text text-anchor="start" x="110.5" y="-1360" font-family="monospace" font-size="10.00">config/sofia_12.par</text>
<text text-anchor="start" x="110.5" y="-1342" font-family="monospace" font-size="10.00">interim/subcubes/subcube_{idx}.fits</text>
<text text-anchor="start" x="279.5" y="-1321.8" font-family="sans" font-size="10.00"> </text>
<text text-anchor="start" x="283.5" y="-1321.8" font-family="sans" font-weight="bold" font-size="14.00">output →</text>
<text text-anchor="start" x="353.5" y="-1321.8" font-family="sans" font-size="10.00"> </text>
<text text-anchor="start" x="110.5" y="-1302" font-family="monospace" font-size="10.00">results/sofia/{idx}/sofia.par</text>
<text text-anchor="start" x="110.5" y="-1284" font-family="monospace" font-size="10.00">results/sofia/{idx}/subcube_{idx}_cat.txt</text>
<polygon fill="#d95757" stroke="#d95757" points="104.5,-1394 104.5,-1394 364.5,-1394 364.5,-1394 104.5,-1394"/>
<polygon fill="#d95757" stroke="#d95757" points="104.5,-1336 104.5,-1336 364.5,-1336 364.5,-1336 104.5,-1336"/>
<polygon fill="none" stroke="#d95757" stroke-width="2" points="104,-1275 104,-1423 363,-1423 363,-1275 104,-1275"/>
</g>
<!-- 5&#45;&gt;7 -->
<g id="edge9" class="edge">
<title>5&#45;&gt;7</title>
<path fill="none" stroke="grey" stroke-width="2" d="M225.13,-1459.96C225.78,-1451.49 226.44,-1442.81 227.09,-1434.22"/>
<polygon fill="grey" stroke="grey" stroke-width="2" points="230.59,-1434.43 227.85,-1424.19 223.61,-1433.9 230.59,-1434.43"/>
</g>
<!-- 6 -->
<g id="node7" class="node">
<title>6</title>
<text text-anchor="start" x="241" y="-1757.6" font-family="sans" font-weight="bold" font-size="18.00">define_chunks</text>
<text text-anchor="start" x="162.5" y="-1733.8" font-family="sans" font-size="10.00"> </text>
<text text-anchor="start" x="166.5" y="-1733.8" font-family="sans" font-weight="bold" font-size="14.00">↪ input</text>
<text text-anchor="start" x="224.5" y="-1733.8" font-family="sans" font-size="10.00"> </text>
<text text-anchor="start" x="162.5" y="-1714" font-family="monospace" font-size="10.00">/mnt/scratch/sdc2/data/development/sky_dev_v2.fits</text>
<text text-anchor="start" x="385.5" y="-1693.8" font-family="sans" font-size="10.00"> </text>
<text text-anchor="start" x="389.5" y="-1693.8" font-family="sans" font-weight="bold" font-size="14.00">output →</text>
<text text-anchor="start" x="459.5" y="-1693.8" font-family="sans" font-size="10.00"> </text>
<text text-anchor="start" x="162.5" y="-1674" font-family="monospace" font-size="10.00">results/catalogs/coord_subcubes.csv</text>
<text text-anchor="start" x="162.5" y="-1656" font-family="monospace" font-size="10.00">results/plots/subcube_grid.png</text>
<polygon fill="#57add9" stroke="#57add9" points="156.5,-1748 156.5,-1748 470.5,-1748 470.5,-1748 156.5,-1748"/>
<polygon fill="#57add9" stroke="#57add9" points="156.5,-1708 156.5,-1708 470.5,-1708 470.5,-1708 156.5,-1708"/>
<polygon fill="none" stroke="#57add9" stroke-width="2" points="156,-1647 156,-1777 469,-1777 469,-1647 156,-1647"/>
</g>
<!-- 6&#45;&gt;5 -->
<g id="edge8" class="edge">
<title>6&#45;&gt;5</title>
<path fill="none" stroke="grey" stroke-width="2" d="M277.87,-1645.84C273.22,-1637.09 268.4,-1628.03 263.62,-1619.02"/>
<polygon fill="grey" stroke="grey" stroke-width="2" points="266.64,-1617.25 258.86,-1610.06 260.46,-1620.53 266.64,-1617.25"/>
</g>
<!-- 6&#45;&gt;8 -->
<g id="edge11" class="edge">
<title>6&#45;&gt;8</title>
<path fill="none" stroke="grey" stroke-width="2" d="M368.11,-1645.85C375.43,-1634.49 381.96,-1622.34 386.5,-1610 426.52,-1501.27 405.5,-1465.86 405.5,-1350 405.5,-1350 405.5,-1350 405.5,-700 405.5,-610.55 396.24,-510.5 386.87,-432.11"/>
<polygon fill="grey" stroke="grey" stroke-width="2" points="390.34,-431.67 385.67,-422.17 383.39,-432.52 390.34,-431.67"/>
</g>
<!-- 7&#45;&gt;4 -->
<g id="edge6" class="edge">
<title>7&#45;&gt;4</title>
<path fill="none" stroke="grey" stroke-width="2" d="M221.83,-1273.96C220.5,-1265.49 219.13,-1256.81 217.77,-1248.22"/>
<polygon fill="grey" stroke="grey" stroke-width="2" points="221.21,-1247.53 216.19,-1238.19 214.29,-1248.62 221.21,-1247.53"/>
</g>
<!-- 8&#45;&gt;0 -->
<g id="edge2" class="edge">
<title>8&#45;&gt;0</title>
<path fill="none" stroke="grey" stroke-width="2" d="M311.63,-163.91C307.67,-154.82 303.77,-145.86 300.02,-137.27"/>
<polygon fill="grey" stroke="grey" stroke-width="2" points="303.23,-135.87 296.02,-128.1 296.81,-138.67 303.23,-135.87"/>
</g>
</g>
</svg>
