<?xml version="1.0" encoding="UTF-8" standalone="no"?>
<!DOCTYPE svg PUBLIC "-//W3C//DTD SVG 1.1//EN"
 "http://www.w3.org/Graphics/SVG/1.1/DTD/svg11.dtd">
<!-- Generated by graphviz version 2.47.3 (20210619.2315)
 -->
<!-- Title: snakemake_dag Pages: 1 -->
<svg width="337pt" height="548pt"
 viewBox="0.00 0.00 336.50 548.00" xmlns="http://www.w3.org/2000/svg" xmlns:xlink="http://www.w3.org/1999/xlink">
<g id="graph0" class="graph" transform="scale(1 1) rotate(0) translate(4 544)">
<title>snakemake_dag</title>
<polygon fill="white" stroke="transparent" points="-4,4 -4,-544 332.5,-544 332.5,4 -4,4"/>
<!-- 0 -->
<g id="node1" class="node">
<title>0</title>
<path fill="none" stroke="#d85656" stroke-width="2" d="M158,-36C158,-36 128,-36 128,-36 122,-36 116,-30 116,-24 116,-24 116,-12 116,-12 116,-6 122,0 128,0 128,0 158,0 158,0 164,0 170,-6 170,-12 170,-12 170,-24 170,-24 170,-30 164,-36 158,-36"/>
<text text-anchor="middle" x="143" y="-15.5" font-family="sans" font-size="10.00">all</text>
</g>
<!-- 1 -->
<g id="node2" class="node">
<title>1</title>
<path fill="none" stroke="#56d8c9" stroke-width="2" d="M168.5,-180C168.5,-180 113.5,-180 113.5,-180 107.5,-180 101.5,-174 101.5,-168 101.5,-168 101.5,-156 101.5,-156 101.5,-150 107.5,-144 113.5,-144 113.5,-144 168.5,-144 168.5,-144 174.5,-144 180.5,-150 180.5,-156 180.5,-156 180.5,-168 180.5,-168 180.5,-174 174.5,-180 168.5,-180"/>
<text text-anchor="middle" x="141" y="-159.5" font-family="sans" font-size="10.00">final_catalog</text>
</g>
<!-- 1&#45;&gt;0 -->
<g id="edge4" class="edge">
<title>1&#45;&gt;0</title>
<path fill="none" stroke="grey" stroke-width="2" d="M126.25,-143.63C118.91,-133.85 110.81,-121.01 107,-108 102.5,-92.65 102.3,-87.29 107,-72 110.01,-62.22 115.51,-52.62 121.32,-44.33"/>
<polygon fill="grey" stroke="grey" stroke-width="2" points="124.19,-46.33 127.39,-36.23 118.59,-42.13 124.19,-46.33"/>
</g>
<!-- 7 -->
<g id="node8" class="node">
<title>7</title>
<path fill="none" stroke="#d8b456" stroke-width="2" d="M48,-108C48,-108 12,-108 12,-108 6,-108 0,-102 0,-96 0,-96 0,-84 0,-84 0,-78 6,-72 12,-72 12,-72 48,-72 48,-72 54,-72 60,-78 60,-84 60,-84 60,-96 60,-96 60,-102 54,-108 48,-108"/>
<text text-anchor="middle" x="30" y="-87.5" font-family="sans" font-size="10.00">visualize</text>
</g>
<!-- 1&#45;&gt;7 -->
<g id="edge11" class="edge">
<title>1&#45;&gt;7</title>
<path fill="none" stroke="grey" stroke-width="2" d="M113.85,-143.88C99.47,-134.81 81.62,-123.55 66.09,-113.76"/>
<polygon fill="grey" stroke="grey" stroke-width="2" points="67.58,-110.56 57.26,-108.19 63.85,-116.48 67.58,-110.56"/>
</g>
<!-- 8 -->
<g id="node9" class="node">
<title>8</title>
<path fill="none" stroke="#5682d8" stroke-width="2" d="M158,-108C158,-108 128,-108 128,-108 122,-108 116,-102 116,-96 116,-96 116,-84 116,-84 116,-78 122,-72 128,-72 128,-72 158,-72 158,-72 164,-72 170,-78 170,-84 170,-84 170,-96 170,-96 170,-102 164,-108 158,-108"/>
<text text-anchor="middle" x="143" y="-87.5" font-family="sans" font-size="10.00">dag</text>
</g>
<!-- 1&#45;&gt;8 -->
<g id="edge14" class="edge">
<title>1&#45;&gt;8</title>
<path fill="none" stroke="grey" stroke-width="2" d="M141.49,-143.7C141.71,-135.98 141.98,-126.71 142.23,-118.11"/>
<polygon fill="grey" stroke="grey" stroke-width="2" points="145.72,-118.2 142.51,-108.1 138.73,-118 145.72,-118.2"/>
</g>
<!-- 9 -->
<g id="node10" class="node">
<title>9</title>
<path fill="none" stroke="#70d856" stroke-width="2" d="M239.5,-108C239.5,-108 200.5,-108 200.5,-108 194.5,-108 188.5,-102 188.5,-96 188.5,-96 188.5,-84 188.5,-84 188.5,-78 194.5,-72 200.5,-72 200.5,-72 239.5,-72 239.5,-72 245.5,-72 251.5,-78 251.5,-84 251.5,-84 251.5,-96 251.5,-96 251.5,-102 245.5,-108 239.5,-108"/>
<text text-anchor="middle" x="220" y="-87.5" font-family="sans" font-size="10.00">rulegraph</text>
</g>
<!-- 1&#45;&gt;9 -->
<g id="edge15" class="edge">
<title>1&#45;&gt;9</title>
<path fill="none" stroke="grey" stroke-width="2" d="M160.53,-143.7C170.38,-134.97 182.49,-124.24 193.2,-114.75"/>
<polygon fill="grey" stroke="grey" stroke-width="2" points="195.53,-117.36 200.7,-108.1 190.89,-112.12 195.53,-117.36"/>
</g>
<!-- 10 -->
<g id="node11" class="node">
<title>10</title>
<path fill="none" stroke="#56d89a" stroke-width="2" d="M316.5,-108C316.5,-108 281.5,-108 281.5,-108 275.5,-108 269.5,-102 269.5,-96 269.5,-96 269.5,-84 269.5,-84 269.5,-78 275.5,-72 281.5,-72 281.5,-72 316.5,-72 316.5,-72 322.5,-72 328.5,-78 328.5,-84 328.5,-84 328.5,-96 328.5,-96 328.5,-102 322.5,-108 316.5,-108"/>
<text text-anchor="middle" x="299" y="-87.5" font-family="sans" font-size="10.00">filegraph</text>
</g>
<!-- 1&#45;&gt;10 -->
<g id="edge16" class="edge">
<title>1&#45;&gt;10</title>
<path fill="none" stroke="grey" stroke-width="2" d="M179.66,-143.98C201.07,-134.54 228.39,-122.48 259.74,-108.55"/>
<polygon fill="grey" stroke="grey" stroke-width="2" points="261.42,-111.64 269.14,-104.38 258.58,-105.24 261.42,-111.64"/>
</g>
<!-- 2 -->
<g id="node3" class="node">
<title>2</title>
<path fill="none" stroke="#56b1d8" stroke-width="2" d="M169.5,-252C169.5,-252 70.5,-252 70.5,-252 64.5,-252 58.5,-246 58.5,-240 58.5,-240 58.5,-228 58.5,-228 58.5,-222 64.5,-216 70.5,-216 70.5,-216 169.5,-216 169.5,-216 175.5,-216 181.5,-222 181.5,-228 181.5,-228 181.5,-240 181.5,-240 181.5,-246 175.5,-252 169.5,-252"/>
<text text-anchor="middle" x="120" y="-231.5" font-family="sans" font-size="10.00">concatenate_catalogs</text>
</g>
<!-- 2&#45;&gt;1 -->
<g id="edge6" class="edge">
<title>2&#45;&gt;1</title>
<path fill="none" stroke="grey" stroke-width="2" d="M125.19,-215.7C127.53,-207.9 130.35,-198.51 132.95,-189.83"/>
<polygon fill="grey" stroke="grey" stroke-width="2" points="136.35,-190.69 135.87,-180.1 129.64,-188.68 136.35,-190.69"/>
</g>
<!-- 2&#45;&gt;7 -->
<g id="edge12" class="edge">
<title>2&#45;&gt;7</title>
<path fill="none" stroke="grey" stroke-width="2" d="M109.14,-215.87C93.53,-191.24 64.63,-145.64 46.41,-116.88"/>
<polygon fill="grey" stroke="grey" stroke-width="2" points="49.2,-114.76 40.89,-108.19 43.29,-118.51 49.2,-114.76"/>
</g>
<!-- 3 -->
<g id="node4" class="node">
<title>3</title>
<path fill="none" stroke="#9fd856" stroke-width="2" d="M135.5,-324C135.5,-324 98.5,-324 98.5,-324 92.5,-324 86.5,-318 86.5,-312 86.5,-312 86.5,-300 86.5,-300 86.5,-294 92.5,-288 98.5,-288 98.5,-288 135.5,-288 135.5,-288 141.5,-288 147.5,-294 147.5,-300 147.5,-300 147.5,-312 147.5,-312 147.5,-318 141.5,-324 135.5,-324"/>
<text text-anchor="middle" x="117" y="-303.5" font-family="sans" font-size="10.00">sofia2cat</text>
</g>
<!-- 3&#45;&gt;2 -->
<g id="edge7" class="edge">
<title>3&#45;&gt;2</title>
<path fill="none" stroke="grey" stroke-width="2" d="M117.74,-287.7C118.07,-279.98 118.47,-270.71 118.84,-262.11"/>
<polygon fill="grey" stroke="grey" stroke-width="2" points="122.34,-262.25 119.27,-252.1 115.34,-261.95 122.34,-262.25"/>
</g>
<!-- 4 -->
<g id="node5" class="node">
<title>4</title>
<path fill="none" stroke="#ced856" stroke-width="2" d="M130.5,-396C130.5,-396 93.5,-396 93.5,-396 87.5,-396 81.5,-390 81.5,-384 81.5,-384 81.5,-372 81.5,-372 81.5,-366 87.5,-360 93.5,-360 93.5,-360 130.5,-360 130.5,-360 136.5,-360 142.5,-366 142.5,-372 142.5,-372 142.5,-384 142.5,-384 142.5,-390 136.5,-396 130.5,-396"/>
<text text-anchor="middle" x="112" y="-375.5" font-family="sans" font-size="10.00">run_sofia</text>
</g>
<!-- 4&#45;&gt;3 -->
<g id="edge8" class="edge">
<title>4&#45;&gt;3</title>
<path fill="none" stroke="grey" stroke-width="2" d="M113.24,-359.7C113.79,-351.98 114.45,-342.71 115.06,-334.11"/>
<polygon fill="grey" stroke="grey" stroke-width="2" points="118.56,-334.33 115.78,-324.1 111.57,-333.83 118.56,-334.33"/>
</g>
<!-- 5 -->
<g id="node6" class="node">
<title>5</title>
<path fill="none" stroke="#d88556" stroke-width="2" d="M139.5,-468C139.5,-468 80.5,-468 80.5,-468 74.5,-468 68.5,-462 68.5,-456 68.5,-456 68.5,-444 68.5,-444 68.5,-438 74.5,-432 80.5,-432 80.5,-432 139.5,-432 139.5,-432 145.5,-432 151.5,-438 151.5,-444 151.5,-444 151.5,-456 151.5,-456 151.5,-462 145.5,-468 139.5,-468"/>
<text text-anchor="middle" x="110" y="-447.5" font-family="sans" font-size="10.00">split_subcube</text>
</g>
<!-- 5&#45;&gt;4 -->
<g id="edge9" class="edge">
<title>5&#45;&gt;4</title>
<path fill="none" stroke="grey" stroke-width="2" d="M110.49,-431.7C110.71,-423.98 110.98,-414.71 111.23,-406.11"/>
<polygon fill="grey" stroke="grey" stroke-width="2" points="114.72,-406.2 111.51,-396.1 107.73,-406 114.72,-406.2"/>
</g>
<!-- 6 -->
<g id="node7" class="node">
<title>6</title>
<path fill="none" stroke="#56d86b" stroke-width="2" d="M96,-540C96,-540 34,-540 34,-540 28,-540 22,-534 22,-528 22,-528 22,-516 22,-516 22,-510 28,-504 34,-504 34,-504 96,-504 96,-504 102,-504 108,-510 108,-516 108,-516 108,-528 108,-528 108,-534 102,-540 96,-540"/>
<text text-anchor="middle" x="65" y="-519.5" font-family="sans" font-size="10.00">define_chunks</text>
</g>
<!-- 6&#45;&gt;5 -->
<g id="edge10" class="edge">
<title>6&#45;&gt;5</title>
<path fill="none" stroke="grey" stroke-width="2" d="M76.12,-503.7C81.36,-495.56 87.7,-485.69 93.48,-476.7"/>
<polygon fill="grey" stroke="grey" stroke-width="2" points="96.54,-478.41 99,-468.1 90.65,-474.62 96.54,-478.41"/>
</g>
<!-- 6&#45;&gt;7 -->
<g id="edge13" class="edge">
<title>6&#45;&gt;7</title>
<path fill="none" stroke="grey" stroke-width="2" d="M57.92,-503.85C47.69,-477.49 30,-425.21 30,-379 30,-379 30,-379 30,-233 30,-193 30,-146.65 30,-118.08"/>
<polygon fill="grey" stroke="grey" stroke-width="2" points="33.5,-118.05 30,-108.05 26.5,-118.05 33.5,-118.05"/>
</g>
<!-- 7&#45;&gt;0 -->
<g id="edge1" class="edge">
<title>7&#45;&gt;0</title>
<path fill="none" stroke="grey" stroke-width="2" d="M57.64,-71.88C72.53,-62.66 91.07,-51.17 107.06,-41.26"/>
<polygon fill="grey" stroke="grey" stroke-width="2" points="108.98,-44.19 115.64,-35.95 105.3,-38.24 108.98,-44.19"/>
</g>
<!-- 8&#45;&gt;0 -->
<g id="edge5" class="edge">
<title>8&#45;&gt;0</title>
<path fill="none" stroke="grey" stroke-width="2" d="M143,-71.7C143,-63.98 143,-54.71 143,-46.11"/>
<polygon fill="grey" stroke="grey" stroke-width="2" points="146.5,-46.1 143,-36.1 139.5,-46.1 146.5,-46.1"/>
</g>
<!-- 9&#45;&gt;0 -->
<g id="edge2" class="edge">
<title>9&#45;&gt;0</title>
<path fill="none" stroke="grey" stroke-width="2" d="M200.97,-71.7C191.46,-63.05 179.79,-52.45 169.43,-43.03"/>
<polygon fill="grey" stroke="grey" stroke-width="2" points="171.57,-40.24 161.81,-36.1 166.86,-45.42 171.57,-40.24"/>
</g>
<!-- 10&#45;&gt;0 -->
<g id="edge3" class="edge">
<title>10&#45;&gt;0</title>
<path fill="none" stroke="grey" stroke-width="2" d="M269.29,-75.67C243.75,-64.21 206.82,-47.64 179.48,-35.37"/>
<polygon fill="grey" stroke="grey" stroke-width="2" points="180.81,-32.13 170.25,-31.23 177.94,-38.51 180.81,-32.13"/>
</g>
</g>
</svg>
