<?xml version="1.0" encoding="UTF-8" standalone="no"?>
<!DOCTYPE svg PUBLIC "-//W3C//DTD SVG 1.1//EN"
 "http://www.w3.org/Graphics/SVG/1.1/DTD/svg11.dtd">
<!-- Generated by graphviz version 2.48.0 (20210717.2242)
 -->
<!-- Title: snakemake_dag Pages: 1 -->
<svg width="166pt" height="548pt"
 viewBox="0.00 0.00 165.50 548.00" xmlns="http://www.w3.org/2000/svg" xmlns:xlink="http://www.w3.org/1999/xlink">
<g id="graph0" class="graph" transform="scale(1 1) rotate(0) translate(4 544)">
<title>snakemake_dag</title>
<polygon fill="white" stroke="transparent" points="-4,4 -4,-544 161.5,-544 161.5,4 -4,4"/>
<!-- 0 -->
<g id="node1" class="node">
<title>0</title>
<path fill="none" stroke="#9fd856" stroke-width="2" d="M94.5,-36C94.5,-36 64.5,-36 64.5,-36 58.5,-36 52.5,-30 52.5,-24 52.5,-24 52.5,-12 52.5,-12 52.5,-6 58.5,0 64.5,0 64.5,0 94.5,0 94.5,0 100.5,0 106.5,-6 106.5,-12 106.5,-12 106.5,-24 106.5,-24 106.5,-30 100.5,-36 94.5,-36"/>
<text text-anchor="middle" x="79.5" y="-15.5" font-family="sans" font-size="10.00">all</text>
</g>
<!-- 1 -->
<g id="node2" class="node">
<title>1</title>
<path fill="none" stroke="#d88556" stroke-width="2" d="M73,-180C73,-180 18,-180 18,-180 12,-180 6,-174 6,-168 6,-168 6,-156 6,-156 6,-150 12,-144 18,-144 18,-144 73,-144 73,-144 79,-144 85,-150 85,-156 85,-156 85,-168 85,-168 85,-174 79,-180 73,-180"/>
<text text-anchor="middle" x="45.5" y="-159.5" font-family="sans" font-size="10.00">final_catalog</text>
</g>
<!-- 1&#45;&gt;0 -->
<g id="edge2" class="edge">
<title>1&#45;&gt;0</title>
<path fill="none" stroke="grey" stroke-width="2" d="M49.6,-143.87C55.42,-119.56 66.13,-74.82 73.03,-46.01"/>
<polygon fill="grey" stroke="grey" stroke-width="2" points="76.46,-46.73 75.38,-36.19 69.65,-45.1 76.46,-46.73"/>
</g>
<!-- 7 -->
<g id="node8" class="node">
<title>7</title>
<path fill="none" stroke="#d85656" stroke-width="2" d="M128.5,-108C128.5,-108 92.5,-108 92.5,-108 86.5,-108 80.5,-102 80.5,-96 80.5,-96 80.5,-84 80.5,-84 80.5,-78 86.5,-72 92.5,-72 92.5,-72 128.5,-72 128.5,-72 134.5,-72 140.5,-78 140.5,-84 140.5,-84 140.5,-96 140.5,-96 140.5,-102 134.5,-108 128.5,-108"/>
<text text-anchor="middle" x="110.5" y="-87.5" font-family="sans" font-size="10.00">visualize</text>
</g>
<!-- 1&#45;&gt;7 -->
<g id="edge10" class="edge">
<title>1&#45;&gt;7</title>
<path fill="none" stroke="grey" stroke-width="2" d="M61.57,-143.7C69.44,-135.22 79.06,-124.86 87.67,-115.58"/>
<polygon fill="grey" stroke="grey" stroke-width="2" points="90.38,-117.81 94.62,-108.1 85.25,-113.05 90.38,-117.81"/>
</g>
<!-- 2 -->
<g id="node3" class="node">
<title>2</title>
<path fill="none" stroke="#56d86b" stroke-width="2" d="M111,-252C111,-252 12,-252 12,-252 6,-252 0,-246 0,-240 0,-240 0,-228 0,-228 0,-222 6,-216 12,-216 12,-216 111,-216 111,-216 117,-216 123,-222 123,-228 123,-228 123,-240 123,-240 123,-246 117,-252 111,-252"/>
<text text-anchor="middle" x="61.5" y="-231.5" font-family="sans" font-size="10.00">concatenate_catalogs</text>
</g>
<!-- 2&#45;&gt;1 -->
<g id="edge3" class="edge">
<title>2&#45;&gt;1</title>
<path fill="none" stroke="grey" stroke-width="2" d="M57.54,-215.7C55.78,-207.98 53.66,-198.71 51.7,-190.11"/>
<polygon fill="grey" stroke="grey" stroke-width="2" points="55.05,-189.07 49.41,-180.1 48.23,-190.63 55.05,-189.07"/>
</g>
<!-- 2&#45;&gt;7 -->
<g id="edge8" class="edge">
<title>2&#45;&gt;7</title>
<path fill="none" stroke="grey" stroke-width="2" d="M74.13,-215.66C80.83,-205.68 88.65,-192.65 93.5,-180 101.13,-160.08 105.45,-136.29 107.82,-118.32"/>
<polygon fill="grey" stroke="grey" stroke-width="2" points="111.32,-118.57 109.03,-108.22 104.37,-117.74 111.32,-118.57"/>
</g>
<!-- 3 -->
<g id="node4" class="node">
<title>3</title>
<path fill="none" stroke="#ced856" stroke-width="2" d="M85,-324C85,-324 48,-324 48,-324 42,-324 36,-318 36,-312 36,-312 36,-300 36,-300 36,-294 42,-288 48,-288 48,-288 85,-288 85,-288 91,-288 97,-294 97,-300 97,-300 97,-312 97,-312 97,-318 91,-324 85,-324"/>
<text text-anchor="middle" x="66.5" y="-303.5" font-family="sans" font-size="10.00">sofia2cat</text>
</g>
<!-- 3&#45;&gt;2 -->
<g id="edge4" class="edge">
<title>3&#45;&gt;2</title>
<path fill="none" stroke="grey" stroke-width="2" d="M65.26,-287.7C64.71,-279.98 64.05,-270.71 63.44,-262.11"/>
<polygon fill="grey" stroke="grey" stroke-width="2" points="66.93,-261.83 62.72,-252.1 59.94,-262.33 66.93,-261.83"/>
</g>
<!-- 4 -->
<g id="node5" class="node">
<title>4</title>
<path fill="none" stroke="#5682d8" stroke-width="2" d="M95,-396C95,-396 58,-396 58,-396 52,-396 46,-390 46,-384 46,-384 46,-372 46,-372 46,-366 52,-360 58,-360 58,-360 95,-360 95,-360 101,-360 107,-366 107,-372 107,-372 107,-384 107,-384 107,-390 101,-396 95,-396"/>
<text text-anchor="middle" x="76.5" y="-375.5" font-family="sans" font-size="10.00">run_sofia</text>
</g>
<!-- 4&#45;&gt;3 -->
<g id="edge5" class="edge">
<title>4&#45;&gt;3</title>
<path fill="none" stroke="grey" stroke-width="2" d="M74.03,-359.7C72.93,-351.98 71.6,-342.71 70.37,-334.11"/>
<polygon fill="grey" stroke="grey" stroke-width="2" points="73.82,-333.51 68.94,-324.1 66.89,-334.5 73.82,-333.51"/>
</g>
<!-- 5 -->
<g id="node6" class="node">
<title>5</title>
<path fill="none" stroke="#70d856" stroke-width="2" d="M109,-468C109,-468 50,-468 50,-468 44,-468 38,-462 38,-456 38,-456 38,-444 38,-444 38,-438 44,-432 50,-432 50,-432 109,-432 109,-432 115,-432 121,-438 121,-444 121,-444 121,-456 121,-456 121,-462 115,-468 109,-468"/>
<text text-anchor="middle" x="79.5" y="-447.5" font-family="sans" font-size="10.00">split_subcube</text>
</g>
<!-- 5&#45;&gt;4 -->
<g id="edge6" class="edge">
<title>5&#45;&gt;4</title>
<path fill="none" stroke="grey" stroke-width="2" d="M78.76,-431.7C78.43,-423.98 78.03,-414.71 77.66,-406.11"/>
<polygon fill="grey" stroke="grey" stroke-width="2" points="81.16,-405.95 77.23,-396.1 74.16,-406.25 81.16,-405.95"/>
</g>
<!-- 6 -->
<g id="node7" class="node">
<title>6</title>
<path fill="none" stroke="#56d89a" stroke-width="2" d="M145.5,-540C145.5,-540 83.5,-540 83.5,-540 77.5,-540 71.5,-534 71.5,-528 71.5,-528 71.5,-516 71.5,-516 71.5,-510 77.5,-504 83.5,-504 83.5,-504 145.5,-504 145.5,-504 151.5,-504 157.5,-510 157.5,-516 157.5,-516 157.5,-528 157.5,-528 157.5,-534 151.5,-540 145.5,-540"/>
<text text-anchor="middle" x="114.5" y="-519.5" font-family="sans" font-size="10.00">define_chunks</text>
</g>
<!-- 6&#45;&gt;5 -->
<g id="edge7" class="edge">
<title>6&#45;&gt;5</title>
<path fill="none" stroke="grey" stroke-width="2" d="M105.85,-503.7C101.86,-495.73 97.05,-486.1 92.63,-477.26"/>
<polygon fill="grey" stroke="grey" stroke-width="2" points="95.65,-475.48 88.05,-468.1 89.39,-478.61 95.65,-475.48"/>
</g>
<!-- 6&#45;&gt;7 -->
<g id="edge9" class="edge">
<title>6&#45;&gt;7</title>
<path fill="none" stroke="grey" stroke-width="2" d="M121.99,-503.89C132.8,-477.58 151.5,-425.37 151.5,-379 151.5,-379 151.5,-379 151.5,-233 151.5,-191.41 135.06,-145.56 123,-117.51"/>
<polygon fill="grey" stroke="grey" stroke-width="2" points="126.05,-115.75 118.8,-108.03 119.65,-118.59 126.05,-115.75"/>
</g>
<!-- 7&#45;&gt;0 -->
<g id="edge1" class="edge">
<title>7&#45;&gt;0</title>
<path fill="none" stroke="grey" stroke-width="2" d="M102.84,-71.7C99.31,-63.73 95.04,-54.1 91.13,-45.26"/>
<polygon fill="grey" stroke="grey" stroke-width="2" points="94.32,-43.83 87.07,-36.1 87.92,-46.67 94.32,-43.83"/>
</g>
</g>
</svg>
